<?xml version="1.0" encoding="UTF-8" standalone="no"?>
<!-- Created with Inkscape (http://www.inkscape.org/) -->

<svg
   width="40.465462mm"
   height="128.55mm"
   viewBox="0 0 40.465462 128.55"
   version="1.1"
   id="svg3463"
   inkscape:version="1.1.1 (c3084ef, 2021-09-22)"
   sodipodi:docname="Klasmata.svg"
   xmlns:inkscape="http://www.inkscape.org/namespaces/inkscape"
   xmlns:sodipodi="http://sodipodi.sourceforge.net/DTD/sodipodi-0.dtd"
   xmlns="http://www.w3.org/2000/svg"
   xmlns:svg="http://www.w3.org/2000/svg">
  <sodipodi:namedview
     id="namedview3465"
     pagecolor="#ffffff"
     bordercolor="#666666"
     borderopacity="1.0"
     inkscape:pageshadow="2"
     inkscape:pageopacity="0.0"
     inkscape:pagecheckerboard="0"
     inkscape:document-units="mm"
     showgrid="false"
     fit-margin-top="0"
     fit-margin-left="0"
     fit-margin-right="0"
     fit-margin-bottom="0"
     inkscape:zoom="2.1997092"
     inkscape:cx="89.32999"
     inkscape:cy="265.71694"
     inkscape:window-width="1312"
     inkscape:window-height="1081"
     inkscape:window-x="2495"
     inkscape:window-y="97"
     inkscape:window-maximized="0"
     inkscape:current-layer="layer3" />
  <defs
     id="defs3460" />
  <g
     inkscape:label="background"
     inkscape:groupmode="layer"
     id="layer1"
     style="display:inline">
    <g
       id="g16669"
       style="fill:none;stroke:#ff0000;stroke-width:0.05"
       transform="translate(0.025,0.02500495)">
      <rect
         id="rect16671"
         height="128.5"
         width="40.299999"
         y="0"
         x="0"
         style="fill:#ffffff;fill-opacity:1" />
      <g
         id="g16679"
         transform="translate(12.53,102.35)">
        <g
           id="g16681">
          <path
             id="path16683"
             d="M -4.2037748,7.5814929 C -6.8346316,6.1114925 -8.6120123,3.3014922 -8.6120123,0.07148931 c 0,-4.75000381 3.8628404,-8.61000481 8.6282233,-8.61000481 4.764047,0 8.627555,3.8600011 8.627555,8.61000481 0,3.23000299 -1.780051,6.04000329 -4.414579,7.52000359"
             style="fill:none;stroke:#030303;stroke-width:0.212"
             inkscape:connector-curvature="0" />
          <path
             id="path16685"
             d="m -2.440413,-9.0485165 0.216323,0.810001"
             style="fill:none;stroke:#030303;stroke-width:0.212"
             inkscape:connector-curvature="0" />
          <path
             id="path16687"
             d="m -5.1129926,-8.7785155 0.8080822,1.4000001"
             style="fill:none;stroke:#030303;stroke-width:0.283"
             inkscape:connector-curvature="0" />
          <path
             id="path16689"
             d="m -6.6800914,-6.5985155 0.5891225,0.59"
             style="fill:none;stroke:#030303;stroke-width:0.212"
             inkscape:connector-curvature="0" />
          <path
             id="path16691"
             d="m -8.8466601,-5.0285155 1.3848552,0.8000013"
             style="fill:none;stroke:#030303;stroke-width:0.283"
             inkscape:connector-curvature="0" />
          <path
             id="path16693"
             d="m -9.1267017,-2.3685125 0.8044106,0.2200004"
             style="fill:none;stroke:#030303;stroke-width:0.212"
             inkscape:connector-curvature="0" />
          <path
             id="path16695"
             d="m -10.221501,0.08148931 h 1.6061507"
             style="fill:none;stroke:#030303;stroke-width:0.283"
             inkscape:connector-curvature="0" />
          <path
             id="path16697"
             d="M -9.1243652,2.5214918 -8.3199546,2.3014913"
             style="fill:none;stroke:#030303;stroke-width:0.212"
             inkscape:connector-curvature="0" />
          <path
             id="path16699"
             d="M -8.8489964,5.181492 -7.4574658,4.3814921"
             style="fill:none;stroke:#030303;stroke-width:0.283"
             inkscape:connector-curvature="0" />
          <path
             id="path16701"
             d="m -6.6737496,6.7514925 0.5877873,-0.59"
             style="fill:none;stroke:#030303;stroke-width:0.212"
             inkscape:connector-curvature="0" />
          <path
             id="path16703"
             d="m -5.0742739,8.871494 0.776373,-1.3400011"
             style="fill:none;stroke:#030303;stroke-width:0.283"
             inkscape:connector-curvature="0" />
          <path
             id="path16705"
             d="M 5.113671,8.8814939 4.329988,7.5214929"
             style="fill:none;stroke:#030303;stroke-width:0.283"
             inkscape:connector-curvature="0" />
          <path
             id="path16707"
             d="m 6.704836,6.7414925 -0.588789,-0.58"
             style="fill:none;stroke:#030303;stroke-width:0.212"
             inkscape:connector-curvature="0" />
          <path
             id="path16709"
             d="m 8.846371,5.1614921 -1.360155,-0.79"
             style="fill:none;stroke:#030303;stroke-width:0.283"
             inkscape:connector-curvature="0" />
          <path
             id="path16711"
             d="M 9.151112,2.5114918 8.347402,2.2914913"
             style="fill:none;stroke:#030303;stroke-width:0.212"
             inkscape:connector-curvature="0" />
          <path
             id="path16713"
             d="M 10.195511,0.07148931 H 8.640094"
             style="fill:none;stroke:#030303;stroke-width:0.283"
             inkscape:connector-curvature="0" />
          <path
             id="path16715"
             d="M 9.148809,-2.3785126 8.344698,-2.1585121"
             style="fill:none;stroke:#030303;stroke-width:0.212"
             inkscape:connector-curvature="0" />
          <path
             id="path16717"
             d="M 8.836691,-5.0185155 7.482544,-4.2385142"
             style="fill:none;stroke:#030303;stroke-width:0.283"
             inkscape:connector-curvature="0" />
          <path
             id="path16719"
             d="m 6.699128,-6.6085155 -0.588421,0.59"
             style="fill:none;stroke:#030303;stroke-width:0.212"
             inkscape:connector-curvature="0" />
          <path
             id="path16721"
             d="m 5.131729,-8.7785155 -0.80875,1.39"
             style="fill:none;stroke:#030303;stroke-width:0.283"
             inkscape:connector-curvature="0" />
          <path
             id="path16723"
             d="m 2.456813,-9.0485165 -0.215288,0.800001"
             style="fill:none;stroke:#030303;stroke-width:0.212"
             inkscape:connector-curvature="0" />
          <path
             id="path16725"
             d="m 0.007833,-10.128517 v 1.5900015"
             style="fill:none;stroke:#030303;stroke-width:0.283"
             inkscape:connector-curvature="0" />
        </g>
      </g>
      <g
         id="g16729"
         transform="translate(12.53,83.3)">
        <g
           id="g16731">
          <path
             id="path16733"
             d="M -4.2037748,7.5814929 C -6.8346316,6.1114925 -8.6120123,3.3014922 -8.6120123,0.07148931 c 0,-4.75000381 3.8628404,-8.61000481 8.6282233,-8.61000481 4.764047,0 8.627555,3.8600011 8.627555,8.61000481 0,3.23000299 -1.780051,6.04000329 -4.414579,7.52000359"
             style="fill:none;stroke:#030303;stroke-width:0.212"
             inkscape:connector-curvature="0" />
          <path
             id="path16735"
             d="m -2.440413,-9.0485165 0.216323,0.810001"
             style="fill:none;stroke:#030303;stroke-width:0.212"
             inkscape:connector-curvature="0" />
          <path
             id="path16737"
             d="m -5.1129926,-8.7785155 0.8080822,1.4000001"
             style="fill:none;stroke:#030303;stroke-width:0.283"
             inkscape:connector-curvature="0" />
          <path
             id="path16739"
             d="m -6.6800914,-6.5985155 0.5891225,0.59"
             style="fill:none;stroke:#030303;stroke-width:0.212"
             inkscape:connector-curvature="0" />
          <path
             id="path16741"
             d="m -8.8466601,-5.0285155 1.3848552,0.8000013"
             style="fill:none;stroke:#030303;stroke-width:0.283"
             inkscape:connector-curvature="0" />
          <path
             id="path16743"
             d="m -9.1267017,-2.3685125 0.8044106,0.2200004"
             style="fill:none;stroke:#030303;stroke-width:0.212"
             inkscape:connector-curvature="0" />
          <path
             id="path16745"
             d="m -10.221501,0.08148931 h 1.6061507"
             style="fill:none;stroke:#030303;stroke-width:0.283"
             inkscape:connector-curvature="0" />
          <path
             id="path16747"
             d="M -9.1243652,2.5214918 -8.3199546,2.3014913"
             style="fill:none;stroke:#030303;stroke-width:0.212"
             inkscape:connector-curvature="0" />
          <path
             id="path16749"
             d="M -8.8489964,5.181492 -7.4574658,4.3814921"
             style="fill:none;stroke:#030303;stroke-width:0.283"
             inkscape:connector-curvature="0" />
          <path
             id="path16751"
             d="m -6.6737496,6.7514925 0.5877873,-0.59"
             style="fill:none;stroke:#030303;stroke-width:0.212"
             inkscape:connector-curvature="0" />
          <path
             id="path16753"
             d="m -5.0742739,8.871494 0.776373,-1.3400011"
             style="fill:none;stroke:#030303;stroke-width:0.283"
             inkscape:connector-curvature="0" />
          <path
             id="path16755"
             d="M 5.113671,8.8814939 4.329988,7.5214929"
             style="fill:none;stroke:#030303;stroke-width:0.283"
             inkscape:connector-curvature="0" />
          <path
             id="path16757"
             d="m 6.704836,6.7414925 -0.588789,-0.58"
             style="fill:none;stroke:#030303;stroke-width:0.212"
             inkscape:connector-curvature="0" />
          <path
             id="path16759"
             d="m 8.846371,5.1614921 -1.360155,-0.79"
             style="fill:none;stroke:#030303;stroke-width:0.283"
             inkscape:connector-curvature="0" />
          <path
             id="path16761"
             d="M 9.151112,2.5114918 8.347402,2.2914913"
             style="fill:none;stroke:#030303;stroke-width:0.212"
             inkscape:connector-curvature="0" />
          <path
             id="path16763"
             d="M 10.195511,0.07148931 H 8.640094"
             style="fill:none;stroke:#030303;stroke-width:0.283"
             inkscape:connector-curvature="0" />
          <path
             id="path16765"
             d="M 9.148809,-2.3785126 8.344698,-2.1585121"
             style="fill:none;stroke:#030303;stroke-width:0.212"
             inkscape:connector-curvature="0" />
          <path
             id="path16767"
             d="M 8.836691,-5.0185155 7.482544,-4.2385142"
             style="fill:none;stroke:#030303;stroke-width:0.283"
             inkscape:connector-curvature="0" />
          <path
             id="path16769"
             d="m 6.699128,-6.6085155 -0.588421,0.59"
             style="fill:none;stroke:#030303;stroke-width:0.212"
             inkscape:connector-curvature="0" />
          <path
             id="path16771"
             d="m 5.131729,-8.7785155 -0.80875,1.39"
             style="fill:none;stroke:#030303;stroke-width:0.283"
             inkscape:connector-curvature="0" />
          <path
             id="path16773"
             d="m 2.456813,-9.0485165 -0.215288,0.800001"
             style="fill:none;stroke:#030303;stroke-width:0.212"
             inkscape:connector-curvature="0" />
          <path
             id="path16775"
             d="m 0.007833,-10.128517 v 1.5900015"
             style="fill:none;stroke:#030303;stroke-width:0.283"
             inkscape:connector-curvature="0" />
        </g>
      </g>
      <g
         id="g16779"
         transform="translate(12.53,64.25)">
        <g
           id="g16781">
          <path
             id="path16783"
             d="M -4.2037748,7.5814929 C -6.8346316,6.1114925 -8.6120123,3.3014922 -8.6120123,0.07148931 c 0,-4.75000381 3.8628404,-8.61000481 8.6282233,-8.61000481 4.764047,0 8.627555,3.8600011 8.627555,8.61000481 0,3.23000299 -1.780051,6.04000329 -4.414579,7.52000359"
             style="fill:none;stroke:#030303;stroke-width:0.212"
             inkscape:connector-curvature="0" />
          <path
             id="path16785"
             d="m -2.440413,-9.0485165 0.216323,0.810001"
             style="fill:none;stroke:#030303;stroke-width:0.212"
             inkscape:connector-curvature="0" />
          <path
             id="path16787"
             d="m -5.1129926,-8.7785155 0.8080822,1.4000001"
             style="fill:none;stroke:#030303;stroke-width:0.283"
             inkscape:connector-curvature="0" />
          <path
             id="path16789"
             d="m -6.6800914,-6.5985155 0.5891225,0.59"
             style="fill:none;stroke:#030303;stroke-width:0.212"
             inkscape:connector-curvature="0" />
          <path
             id="path16791"
             d="m -8.8466601,-5.0285155 1.3848552,0.8000013"
             style="fill:none;stroke:#030303;stroke-width:0.283"
             inkscape:connector-curvature="0" />
          <path
             id="path16793"
             d="m -9.1267017,-2.3685125 0.8044106,0.2200004"
             style="fill:none;stroke:#030303;stroke-width:0.212"
             inkscape:connector-curvature="0" />
          <path
             id="path16795"
             d="m -10.221501,0.08148931 h 1.6061507"
             style="fill:none;stroke:#030303;stroke-width:0.283"
             inkscape:connector-curvature="0" />
          <path
             id="path16797"
             d="M -9.1243652,2.5214918 -8.3199546,2.3014913"
             style="fill:none;stroke:#030303;stroke-width:0.212"
             inkscape:connector-curvature="0" />
          <path
             id="path16799"
             d="M -8.8489964,5.181492 -7.4574658,4.3814921"
             style="fill:none;stroke:#030303;stroke-width:0.283"
             inkscape:connector-curvature="0" />
          <path
             id="path16801"
             d="m -6.6737496,6.7514925 0.5877873,-0.59"
             style="fill:none;stroke:#030303;stroke-width:0.212"
             inkscape:connector-curvature="0" />
          <path
             id="path16803"
             d="m -5.0742739,8.871494 0.776373,-1.3400011"
             style="fill:none;stroke:#030303;stroke-width:0.283"
             inkscape:connector-curvature="0" />
          <path
             id="path16805"
             d="M 5.113671,8.8814939 4.329988,7.5214929"
             style="fill:none;stroke:#030303;stroke-width:0.283"
             inkscape:connector-curvature="0" />
          <path
             id="path16807"
             d="m 6.704836,6.7414925 -0.588789,-0.58"
             style="fill:none;stroke:#030303;stroke-width:0.212"
             inkscape:connector-curvature="0" />
          <path
             id="path16809"
             d="m 8.846371,5.1614921 -1.360155,-0.79"
             style="fill:none;stroke:#030303;stroke-width:0.283"
             inkscape:connector-curvature="0" />
          <path
             id="path16811"
             d="M 9.151112,2.5114918 8.347402,2.2914913"
             style="fill:none;stroke:#030303;stroke-width:0.212"
             inkscape:connector-curvature="0" />
          <path
             id="path16813"
             d="M 10.195511,0.07148931 H 8.640094"
             style="fill:none;stroke:#030303;stroke-width:0.283"
             inkscape:connector-curvature="0" />
          <path
             id="path16815"
             d="M 9.148809,-2.3785126 8.344698,-2.1585121"
             style="fill:none;stroke:#030303;stroke-width:0.212"
             inkscape:connector-curvature="0" />
          <path
             id="path16817"
             d="M 8.836691,-5.0185155 7.482544,-4.2385142"
             style="fill:none;stroke:#030303;stroke-width:0.283"
             inkscape:connector-curvature="0" />
          <path
             id="path16819"
             d="m 6.699128,-6.6085155 -0.588421,0.59"
             style="fill:none;stroke:#030303;stroke-width:0.212"
             inkscape:connector-curvature="0" />
          <path
             id="path16821"
             d="m 5.131729,-8.7785155 -0.80875,1.39"
             style="fill:none;stroke:#030303;stroke-width:0.283"
             inkscape:connector-curvature="0" />
          <path
             id="path16823"
             d="m 2.456813,-9.0485165 -0.215288,0.800001"
             style="fill:none;stroke:#030303;stroke-width:0.212"
             inkscape:connector-curvature="0" />
          <path
             id="path16825"
             d="m 0.007833,-10.128517 v 1.5900015"
             style="fill:none;stroke:#030303;stroke-width:0.283"
             inkscape:connector-curvature="0" />
        </g>
      </g>
      <g
         id="g16829"
         transform="translate(12.53,45.2)">
        <g
           id="g16831">
          <path
             id="path16833"
             d="M -4.2037748,7.5814929 C -6.8346316,6.1114925 -8.6120123,3.3014922 -8.6120123,0.07148931 c 0,-4.75000381 3.8628404,-8.61000481 8.6282233,-8.61000481 4.764047,0 8.627555,3.8600011 8.627555,8.61000481 0,3.23000299 -1.780051,6.04000329 -4.414579,7.52000359"
             style="fill:none;stroke:#030303;stroke-width:0.212"
             inkscape:connector-curvature="0" />
          <path
             id="path16835"
             d="m -2.440413,-9.0485165 0.216323,0.810001"
             style="fill:none;stroke:#030303;stroke-width:0.212"
             inkscape:connector-curvature="0" />
          <path
             id="path16837"
             d="m -5.1129926,-8.7785155 0.8080822,1.4000001"
             style="fill:none;stroke:#030303;stroke-width:0.283"
             inkscape:connector-curvature="0" />
          <path
             id="path16839"
             d="m -6.6800914,-6.5985155 0.5891225,0.59"
             style="fill:none;stroke:#030303;stroke-width:0.212"
             inkscape:connector-curvature="0" />
          <path
             id="path16841"
             d="m -8.8466601,-5.0285155 1.3848552,0.8000013"
             style="fill:none;stroke:#030303;stroke-width:0.283"
             inkscape:connector-curvature="0" />
          <path
             id="path16843"
             d="m -9.1267017,-2.3685125 0.8044106,0.2200004"
             style="fill:none;stroke:#030303;stroke-width:0.212"
             inkscape:connector-curvature="0" />
          <path
             id="path16845"
             d="m -10.221501,0.08148931 h 1.6061507"
             style="fill:none;stroke:#030303;stroke-width:0.283"
             inkscape:connector-curvature="0" />
          <path
             id="path16847"
             d="M -9.1243652,2.5214918 -8.3199546,2.3014913"
             style="fill:none;stroke:#030303;stroke-width:0.212"
             inkscape:connector-curvature="0" />
          <path
             id="path16849"
             d="M -8.8489964,5.181492 -7.4574658,4.3814921"
             style="fill:none;stroke:#030303;stroke-width:0.283"
             inkscape:connector-curvature="0" />
          <path
             id="path16851"
             d="m -6.6737496,6.7514925 0.5877873,-0.59"
             style="fill:none;stroke:#030303;stroke-width:0.212"
             inkscape:connector-curvature="0" />
          <path
             id="path16853"
             d="m -5.0742739,8.871494 0.776373,-1.3400011"
             style="fill:none;stroke:#030303;stroke-width:0.283"
             inkscape:connector-curvature="0" />
          <path
             id="path16855"
             d="M 5.113671,8.8814939 4.329988,7.5214929"
             style="fill:none;stroke:#030303;stroke-width:0.283"
             inkscape:connector-curvature="0" />
          <path
             id="path16857"
             d="m 6.704836,6.7414925 -0.588789,-0.58"
             style="fill:none;stroke:#030303;stroke-width:0.212"
             inkscape:connector-curvature="0" />
          <path
             id="path16859"
             d="m 8.846371,5.1614921 -1.360155,-0.79"
             style="fill:none;stroke:#030303;stroke-width:0.283"
             inkscape:connector-curvature="0" />
          <path
             id="path16861"
             d="M 9.151112,2.5114918 8.347402,2.2914913"
             style="fill:none;stroke:#030303;stroke-width:0.212"
             inkscape:connector-curvature="0" />
          <path
             id="path16863"
             d="M 10.195511,0.07148931 H 8.640094"
             style="fill:none;stroke:#030303;stroke-width:0.283"
             inkscape:connector-curvature="0" />
          <path
             id="path16865"
             d="M 9.148809,-2.3785126 8.344698,-2.1585121"
             style="fill:none;stroke:#030303;stroke-width:0.212"
             inkscape:connector-curvature="0" />
          <path
             id="path16867"
             d="M 8.836691,-5.0185155 7.482544,-4.2385142"
             style="fill:none;stroke:#030303;stroke-width:0.283"
             inkscape:connector-curvature="0" />
          <path
             id="path16869"
             d="m 6.699128,-6.6085155 -0.588421,0.59"
             style="fill:none;stroke:#030303;stroke-width:0.212"
             inkscape:connector-curvature="0" />
          <path
             id="path16871"
             d="m 5.131729,-8.7785155 -0.80875,1.39"
             style="fill:none;stroke:#030303;stroke-width:0.283"
             inkscape:connector-curvature="0" />
          <path
             id="path16873"
             d="m 2.456813,-9.0485165 -0.215288,0.800001"
             style="fill:none;stroke:#030303;stroke-width:0.212"
             inkscape:connector-curvature="0" />
          <path
             id="path16875"
             d="m 0.007833,-10.128517 v 1.5900015"
             style="fill:none;stroke:#030303;stroke-width:0.283"
             inkscape:connector-curvature="0" />
        </g>
      </g>
      <g
         id="g16879"
         transform="translate(12.53,26.15)">
        <g
           id="g16881">
          <path
             id="path16883"
             d="M -4.2037748,7.5814929 C -6.8346316,6.1114925 -8.6120123,3.3014922 -8.6120123,0.07148931 c 0,-4.75000381 3.8628404,-8.61000481 8.6282233,-8.61000481 4.764047,0 8.627555,3.8600011 8.627555,8.61000481 0,3.23000299 -1.780051,6.04000329 -4.414579,7.52000359"
             style="fill:none;stroke:#030303;stroke-width:0.212"
             inkscape:connector-curvature="0" />
          <path
             id="path16885"
             d="m -2.440413,-9.0485165 0.216323,0.810001"
             style="fill:none;stroke:#030303;stroke-width:0.212"
             inkscape:connector-curvature="0" />
          <path
             id="path16887"
             d="m -5.1129926,-8.7785155 0.8080822,1.4000001"
             style="fill:none;stroke:#030303;stroke-width:0.283"
             inkscape:connector-curvature="0" />
          <path
             id="path16889"
             d="m -6.6800914,-6.5985155 0.5891225,0.59"
             style="fill:none;stroke:#030303;stroke-width:0.212"
             inkscape:connector-curvature="0" />
          <path
             id="path16891"
             d="m -8.8466601,-5.0285155 1.3848552,0.8000013"
             style="fill:none;stroke:#030303;stroke-width:0.283"
             inkscape:connector-curvature="0" />
          <path
             id="path16893"
             d="m -9.1267017,-2.3685125 0.8044106,0.2200004"
             style="fill:none;stroke:#030303;stroke-width:0.212"
             inkscape:connector-curvature="0" />
          <path
             id="path16895"
             d="m -10.221501,0.08148931 h 1.6061507"
             style="fill:none;stroke:#030303;stroke-width:0.283"
             inkscape:connector-curvature="0" />
          <path
             id="path16897"
             d="M -9.1243652,2.5214918 -8.3199546,2.3014913"
             style="fill:none;stroke:#030303;stroke-width:0.212"
             inkscape:connector-curvature="0" />
          <path
             id="path16899"
             d="M -8.8489964,5.181492 -7.4574658,4.3814921"
             style="fill:none;stroke:#030303;stroke-width:0.283"
             inkscape:connector-curvature="0" />
          <path
             id="path16901"
             d="m -6.6737496,6.7514925 0.5877873,-0.59"
             style="fill:none;stroke:#030303;stroke-width:0.212"
             inkscape:connector-curvature="0" />
          <path
             id="path16903"
             d="m -5.0742739,8.871494 0.776373,-1.3400011"
             style="fill:none;stroke:#030303;stroke-width:0.283"
             inkscape:connector-curvature="0" />
          <path
             id="path16905"
             d="M 5.113671,8.8814939 4.329988,7.5214929"
             style="fill:none;stroke:#030303;stroke-width:0.283"
             inkscape:connector-curvature="0" />
          <path
             id="path16907"
             d="m 6.704836,6.7414925 -0.588789,-0.58"
             style="fill:none;stroke:#030303;stroke-width:0.212"
             inkscape:connector-curvature="0" />
          <path
             id="path16909"
             d="m 8.846371,5.1614921 -1.360155,-0.79"
             style="fill:none;stroke:#030303;stroke-width:0.283"
             inkscape:connector-curvature="0" />
          <path
             id="path16911"
             d="M 9.151112,2.5114918 8.347402,2.2914913"
             style="fill:none;stroke:#030303;stroke-width:0.212"
             inkscape:connector-curvature="0" />
          <path
             id="path16913"
             d="M 10.195511,0.07148931 H 8.640094"
             style="fill:none;stroke:#030303;stroke-width:0.283"
             inkscape:connector-curvature="0" />
          <path
             id="path16915"
             d="M 9.148809,-2.3785126 8.344698,-2.1585121"
             style="fill:none;stroke:#030303;stroke-width:0.212"
             inkscape:connector-curvature="0" />
          <path
             id="path16917"
             d="M 8.836691,-5.0185155 7.482544,-4.2385142"
             style="fill:none;stroke:#030303;stroke-width:0.283"
             inkscape:connector-curvature="0" />
          <path
             id="path16919"
             d="m 6.699128,-6.6085155 -0.588421,0.59"
             style="fill:none;stroke:#030303;stroke-width:0.212"
             inkscape:connector-curvature="0" />
          <path
             id="path16921"
             d="m 5.131729,-8.7785155 -0.80875,1.39"
             style="fill:none;stroke:#030303;stroke-width:0.283"
             inkscape:connector-curvature="0" />
          <path
             id="path16923"
             d="m 2.456813,-9.0485165 -0.215288,0.800001"
             style="fill:none;stroke:#030303;stroke-width:0.212"
             inkscape:connector-curvature="0" />
          <path
             id="path16925"
             d="m 0.007833,-10.128517 v 1.5900015"
             style="fill:none;stroke:#030303;stroke-width:0.283"
             inkscape:connector-curvature="0" />
        </g>
      </g>
    </g>
    <path
       d="M 40.430735,104.84882 C 39.969866,104.41843 39.51323,103.98325 39.066473,103.5379 28.439113,92.948642 21.866441,78.320219 21.866441,62.161022 c 0,-16.158632 6.572672,-30.786773 17.200032,-41.376314 0.436033,-0.434622 0.881379,-0.859649 1.331242,-1.280724 0.0093,-0.009 0.01891,-0.0175 0.02879,-0.02625 2.83e-4,-0.02794 0.0028,-0.05616 0.0034,-0.0841 0,-0.03471 -0.0031,-0.06914 -0.0028,-0.103576 -11.504506,10.705535 -18.7023,25.948356 -18.7023,42.870963 0,16.925148 7.196383,32.172202 18.703146,42.878299 -0.0028,-0.0635 -0.0028,-0.127 0.0028,-0.1905 z"
       id="path7963"
       inkscape:connector-curvature="0"
       style="stroke-width:0.282222" />
    <path
       d="m 40.438072,75.617659 c -0.01467,-0.100753 -0.02342,-0.202918 -0.01891,-0.305082 C 36.360526,65.762742 34.39118,56.036236 34.39118,47.00569 c 2.82e-4,-9.213426 2.065866,-17.683479 6.030241,-24.519182 -0.0071,-0.09398 -0.0056,-0.188524 0.0034,-0.282504 -4.060331,6.89751 -6.175022,15.473678 -6.174739,24.801686 0,9.180688 2.030588,19.075116 6.215379,28.772835 -0.01185,-0.05277 -0.02088,-0.106679 -0.02738,-0.160866 z"
       id="path7967"
       inkscape:connector-curvature="0"
       style="stroke-width:0.282222" />
    <path
       d="M 40.419164,95.155055 C 30.022662,83.743683 24.499857,69.485253 24.500139,55.64564 c 0,-10.414845 3.123635,-20.590085 9.644096,-29.134926 1.901613,-2.492304 4.018562,-4.734841 6.305409,-6.74003 -0.0099,-0.05786 -0.01609,-0.115994 -0.01976,-0.174696 -0.01044,0.009 -0.02145,0.01806 -0.03189,0.02738 -2.310271,2.020993 -4.446129,4.286391 -6.365522,6.801837 -6.540217,8.570805 -9.673447,18.777654 -9.673165,29.220722 0,13.925407 5.575017,28.268504 16.064651,39.724468 -0.0071,-0.07169 -0.0079,-0.143651 -0.0048,-0.215336 z"
       id="path7969"
       inkscape:connector-curvature="0"
       style="stroke-width:0.282222" />
    <path
       d="m 40.442588,48.502314 -6.0579,-1.962291 -0.04346,0.134338 6.094024,1.973862 c -2.82e-4,-0.04882 0.0028,-0.09737 0.0073,-0.145909 z"
       id="path7971"
       inkscape:connector-curvature="0"
       style="stroke-width:0.282222" />
    <path
       d="m 40.438355,58.402669 -16.316958,-3.414606 -0.02935,0.138006 16.344616,3.420251 c -0.0028,-0.04798 0,-0.09596 0.0028,-0.143651 z"
       id="path7973"
       inkscape:connector-curvature="0"
       style="stroke-width:0.282222" />
    <path
       d="m 40.446539,56.806138 -16.373967,-1.951566 -0.01722,0.139982 16.391182,1.953542 c -0.0028,-0.04741 -0.0028,-0.09454 0,-0.141958 z"
       id="path7975"
       inkscape:connector-curvature="0"
       style="stroke-width:0.282222" />
    <g
       id="g17102"
       transform="matrix(0.2822222,0,0,0.2822222,-21.983758,14.987857)">
      <path
         style="fill:#030303"
         inkscape:connector-curvature="0"
         id="path7977"
         d="m 88.364939,75.839985 c -1.973,-1.109 -3.303,-3.216 -3.303,-5.637 0,-1.786 0.723,-3.397 1.894,-4.569 1.171,-1.17 2.784,-1.893 4.569,-1.893 1.785,0 3.396,0.722 4.568,1.893 1.17,1.171 1.893,2.783 1.893,4.569 0,2.423 -1.332,4.531 -3.306,5.639 l 0.611,1.09 c 2.353,-1.318 3.944,-3.839 3.944,-6.729 0,-4.26 -3.453,-7.711 -7.711,-7.712 -4.259,0 -7.713,3.453 -7.713,7.712 0,2.888 1.588,5.406 3.939,6.727 z" />
      <polygon
         transform="translate(-941.01006,-395.03402)"
         style="fill:#030303"
         id="polygon7979"
         points="1031.379,472.875 1028.887,469.207 1027.18,471.425 " />
      <polygon
         transform="translate(-941.01006,-395.03402)"
         style="fill:#030303"
         id="polygon7981"
         points="1033.963,472.88 1036.429,469.193 1038.152,471.398 " />
    </g>
    <g
       id="g17096"
       transform="matrix(0.2822222,0,0,0.2822222,-21.983758,14.987857)">
      <polyline
         transform="translate(-941.01006,-395.03402)"
         style="fill:#030303"
         id="polyline7983"
         points="1024.569,526.193 1024.569,539.209 1025.819,539.209 1025.819,526.193 " />
      <polyline
         transform="translate(-941.01006,-395.03402)"
         style="fill:#030303"
         id="polyline7985"
         points="1038.084,526.228 1038.084,539.141 1039.334,539.141 1039.334,526.228 " />
      <polyline
         transform="translate(-941.01006,-395.03402)"
         style="fill:#030303"
         id="polyline7987"
         points="1025.332,533.275 1035.428,533.275 1035.428,532.025 1025.332,532.025 " />
      <polygon
         transform="translate(-941.01006,-395.03402)"
         style="fill:#030303"
         id="polygon7989"
         points="1033.82,531.059 1033.785,534.305 1038.635,532.664 " />
    </g>
    <g
       id="g17083"
       transform="matrix(0.2822222,0,0,0.2822222,-21.983758,14.987857)">
      <polyline
         transform="translate(-941.01006,-395.03402)"
         style="fill:#030303"
         id="polyline7991"
         points="1024.947,600.754 1038.192,600.754 1038.192,599.504 1024.947,599.504 " />
      <polyline
         transform="translate(-941.01006,-395.03402)"
         style="fill:#030303"
         id="polyline7993"
         points="1024.523,593.761 1024.523,606.531 1025.773,606.531 1025.773,593.761 " />
      <polyline
         transform="translate(-941.01006,-395.03402)"
         style="fill:#030303"
         id="polyline7995"
         points="1030.945,593.761 1030.945,606.531 1032.195,606.531 1032.195,593.761 " />
      <polyline
         transform="translate(-941.01006,-395.03402)"
         style="fill:#030303"
         id="polyline7997"
         points="1032.906,593.761 1032.906,606.531 1034.156,606.531 1034.156,593.761 " />
      <polyline
         transform="translate(-941.01006,-395.03402)"
         style="fill:#030303"
         id="polyline7999"
         points="1034.156,593.761 1034.156,606.531 1035.406,606.531 1035.406,593.761 " />
      <polyline
         transform="translate(-941.01006,-395.03402)"
         style="fill:#030303"
         id="polyline8001"
         points="1035.049,593.761 1035.049,606.531 1036.299,606.531 1036.299,593.761 " />
      <polyline
         transform="translate(-941.01006,-395.03402)"
         style="fill:#030303"
         id="polyline8003"
         points="1035.761,593.761 1035.761,606.531 1037.011,606.531 1037.011,593.761 " />
      <polyline
         transform="translate(-941.01006,-395.03402)"
         style="fill:#030303"
         id="polyline8005"
         points="1036.477,593.761 1036.477,606.531 1037.727,606.531 1037.727,593.761 " />
      <polyline
         transform="translate(-941.01006,-395.03402)"
         style="fill:#030303"
         id="polyline8007"
         points="1036.832,593.761 1036.832,606.531 1038.082,606.531 1038.082,593.761 " />
      <polyline
         transform="translate(-941.01006,-395.03402)"
         style="fill:#030303"
         id="polyline8009"
         points="1037.367,593.761 1037.367,606.531 1038.617,606.531 1038.617,593.761 " />
      <polyline
         transform="translate(-941.01006,-395.03402)"
         style="fill:#030303"
         id="polyline8011"
         points="1028.805,593.761 1028.805,606.531 1030.055,606.531 1030.055,593.761 " />
    </g>
    <g
       id="g11221"
       transform="matrix(0.2822222,0,0,0.2822222,0.025,0.02501167)">
      <path
         inkscape:connector-curvature="0"
         id="path8013"
         d="m 136.98894,29.588985 c -0.374,-0.004 -0.688,-0.157 -0.849,-0.423 -0.274,-0.436 -1.043,-1.991 -1.464,-2.959 -0.4,-0.938 -0.521,-1.231 -0.69,-1.783 -0.374,-1.227 -0.753,-2.354 -0.824,-2.435 -0.037,-0.047 -0.07,-0.308 -0.072,-0.569 -0.001,-0.264 -0.038,-0.547 -0.09,-0.625 -0.045,-0.078 -0.142,-0.295 -0.213,-0.48 -0.068,-0.188 -0.217,-0.407 -0.33,-0.487 -0.104,-0.079 -0.255,-0.265 -0.325,-0.403 -0.184,-0.355 -0.312,-0.508 -0.439,-0.508 -0.124,0 -0.438,0.271 -0.438,0.383 0,0.036 -0.104,0.313 -0.218,0.614 -0.144,0.362 -0.267,0.562 -0.373,0.614 -0.181,0.077 -0.399,0.477 -0.4,0.729 0,0.161 -0.021,0.204 -0.249,0.658 -0.129,0.258 -0.278,0.679 -0.355,1.016 -0.026,0.108 -0.074,0.18 -0.113,0.158 l -0.064,0.047 c 0,0.047 -0.107,0.319 -0.245,0.595 -0.132,0.271 -0.312,0.679 -0.401,0.894 -0.085,0.217 -0.181,0.459 -0.212,0.537 -0.029,0.076 -0.161,0.41 -0.279,0.751 -0.341,0.902 -0.568,1.479 -0.784,1.959 -0.107,0.232 -0.216,0.506 -0.252,0.604 -0.03,0.094 -0.146,0.375 -0.254,0.619 -0.167,0.376 -0.229,0.452 -0.376,0.452 -0.103,0 -0.271,0.053 -0.396,0.119 -0.254,0.146 -0.675,0.837 -0.616,1.021 0.048,0.164 0.271,0.24 0.442,0.146 0.067,-0.036 0.25,-0.09 0.396,-0.109 0.149,-0.025 0.313,-0.062 0.351,-0.087 0.036,-0.031 0.339,-0.044 0.666,-0.044 0.425,0.002 0.618,-0.023 0.681,-0.095 0.041,-0.06 0.16,-0.104 0.254,-0.104 0.188,0 0.456,-0.117 0.542,-0.244 0.103,-0.149 0.051,-0.396 -0.102,-0.472 -0.081,-0.042 -0.313,-0.073 -0.518,-0.063 -0.63,0.022 -0.65,-0.003 -0.396,-0.519 0.078,-0.167 0.141,-0.324 0.141,-0.348 0,-0.029 0.037,-0.146 0.086,-0.255 0.039,-0.108 0.153,-0.399 0.244,-0.651 0.188,-0.526 0.365,-0.818 0.459,-0.762 0.037,0.021 0.33,-0.007 0.653,-0.067 0.329,-0.06 0.863,-0.156 1.202,-0.218 0.328,-0.062 0.854,-0.138 1.165,-0.173 l 0.56,-0.063 0.212,0.243 c 0.206,0.237 0.41,0.322 0.41,0.167 l 0.108,-0.05 c 0.059,0.012 0.237,0.312 0.397,0.666 0.159,0.351 0.412,0.896 0.565,1.211 0.273,0.564 0.327,0.739 0.226,0.756 -0.03,0.003 -0.176,0.018 -0.323,0.033 -0.146,0.017 -0.353,0.094 -0.457,0.174 -0.104,0.082 -0.229,0.147 -0.276,0.147 -0.126,0 -0.312,0.264 -0.278,0.408 l 0.031,0.208 c 0.013,0.196 0.329,0.254 0.742,0.134 0.352,-0.104 1.366,-0.238 2.146,-0.288 0.271,-0.02 0.479,0.021 0.766,0.138 l 0.125,-0.055 c 0,-0.061 0.095,-0.119 0.214,-0.149 0.133,-0.026 0.238,-0.104 0.276,-0.203 0.086,-0.264 -0.11,-0.51 -0.389,-0.51 z m -5.947,-3.717 c -0.526,0.001 -1.069,0.037 -1.209,0.078 -0.331,0.104 -0.571,0.099 -0.571,-0.021 0,-0.264 1.636,-3.756 1.781,-3.812 0.077,-0.032 0.137,0.134 0.258,0.729 0.058,0.271 0.183,0.771 0.282,1.104 0.104,0.329 0.258,0.86 0.354,1.188 0.099,0.322 0.178,0.601 0.178,0.619 -0.01,0.096 -0.16,0.113 -1.073,0.115 z" />
      <path
         inkscape:connector-curvature="0"
         id="path8015"
         d="m 125.66994,19.724985 -0.213,0.28 c -0.115,0.116 -0.128,0.206 -0.092,0.688 0.04,0.571 -0.034,0.771 -0.271,0.771 -0.235,0 -0.347,-0.218 -0.428,-0.867 -0.029,-0.229 -0.083,-0.348 -0.168,-0.379 -0.101,-0.031 -1.055,-0.017 -2.332,0.034 -0.047,0.002 -0.106,0.544 -0.16,1.518 -0.108,1.957 -0.108,2.296 0.021,2.501 0.087,0.128 0.096,0.271 0.038,0.768 -0.036,0.329 -0.083,1.469 -0.107,2.521 -0.056,2.399 -0.021,2.5 0.801,2.521 0.126,0.006 0.297,-0.035 0.375,-0.082 0.199,-0.121 0.386,0.011 0.414,0.311 0.023,0.262 -0.118,0.42 -0.384,0.42 -0.087,0 -0.287,0.066 -0.453,0.146 -0.269,0.131 -0.345,0.138 -0.74,0.063 -0.281,-0.048 -0.766,-0.062 -1.347,-0.029 -0.778,0.041 -0.938,0.036 -1.087,-0.065 -0.103,-0.06 -0.221,-0.113 -0.276,-0.113 -0.123,0 -0.332,-0.227 -0.332,-0.364 0,-0.151 0.303,-0.413 0.475,-0.413 0.079,0 0.267,-0.102 0.425,-0.214 0.153,-0.113 0.329,-0.215 0.398,-0.215 0.092,-0.002 0.111,-0.051 0.09,-0.23 -0.016,-0.128 -0.04,-0.766 -0.064,-1.411 -0.023,-0.646 -0.066,-1.693 -0.106,-2.313 -0.034,-0.625 -0.038,-1.171 0,-1.208 0.035,-0.035 0.101,-0.931 0.148,-1.979 0.082,-1.646 0.078,-1.921 -0.01,-2.001 -0.071,-0.066 -0.398,-0.109 -1.062,-0.142 -0.979,-0.044 -1.724,0.019 -1.857,0.153 -0.041,0.039 -0.1,0.374 -0.109,0.741 -0.034,0.667 -0.133,0.911 -0.351,0.911 l -0.098,0.069 c 0,0.038 -0.081,0.07 -0.185,0.07 -0.099,0 -0.192,0.05 -0.223,0.112 -0.104,0.258 -0.166,-0.113 -0.166,-0.979 -0.001,-0.884 -0.001,-0.896 -0.184,-0.989 -0.297,-0.159 -0.327,-0.569 -0.037,-0.569 0.07,0 0.183,-0.104 0.256,-0.238 l 0.124,-0.242 0.79,-0.022 c 1.927,-0.059 4.953,-0.028 5.525,0.055 0.332,0.044 0.87,0.105 1.199,0.121 0.572,0.037 0.586,0.032 0.586,-0.125 0,-0.37 0.336,-0.439 0.568,-0.115 0.104,0.147 0.207,0.213 0.349,0.213 0.262,-0.007 0.366,0.12 0.265,0.317 z" />
      <path
         inkscape:connector-curvature="0"
         id="path8017"
         d="m 121.18494,20.318985 -0.065,0.188 c 0.037,0.094 0.062,0.091 0.181,-0.016 0.153,-0.143 0.052,-0.313 -0.116,-0.172 z" />
      <path
         inkscape:connector-curvature="0"
         id="path8019"
         d="m 117.65094,29.980985 -0.036,-0.21 c 0.104,-0.253 -0.066,-0.302 -0.754,-0.234 -0.352,0.036 -0.693,0.044 -0.752,0.021 -0.12,-0.042 -0.431,-0.688 -1.212,-2.51 -0.594,-1.384 -0.706,-1.711 -1.106,-3.159 -0.256,-0.912 -0.757,-2.229 -0.938,-2.477 -0.103,-0.121 -0.301,-0.111 -0.41,0.022 -0.086,0.103 -0.104,0.097 -0.187,-0.054 -0.046,-0.09 -0.094,-0.266 -0.095,-0.396 0,-0.121 -0.033,-0.303 -0.065,-0.396 -0.034,-0.09 -0.138,-0.393 -0.224,-0.676 -0.086,-0.283 -0.213,-0.563 -0.279,-0.622 -0.113,-0.109 -0.146,-0.102 -0.381,0.13 -0.221,0.211 -0.252,0.283 -0.221,0.483 0.033,0.188 -0.044,0.403 -0.388,1.101 -0.235,0.474 -0.546,1.183 -0.691,1.565 -0.426,1.154 -0.677,1.73 -1.09,2.519 -0.76,1.451 -0.979,1.892 -1.183,2.354 -0.939,2.192 -0.918,2.147 -1.205,2.252 -0.305,0.105 -0.906,0.567 -0.906,0.696 0,0.146 0.232,0.307 0.534,0.354 0.155,0.027 0.476,0.088 0.708,0.14 0.351,0.073 0.462,0.073 0.604,-0.004 0.104,-0.05 0.39,-0.096 0.632,-0.096 0.469,0 0.659,-0.065 0.902,-0.296 l 0.285,-0.244 c 0.145,-0.106 0.145,-0.106 0,-0.215 -0.08,-0.063 -0.252,-0.104 -0.394,-0.092 -0.14,0.007 -0.316,-0.024 -0.393,-0.066 -0.335,-0.189 -0.338,-0.193 -0.258,-0.488 0.039,-0.148 0.126,-0.499 0.19,-0.771 0.062,-0.271 0.19,-0.692 0.289,-0.936 l 0.178,-0.434 0.399,-0.045 c 0.226,-0.022 0.708,-0.092 1.082,-0.152 0.374,-0.056 1.129,-0.126 1.688,-0.155 l 1.007,-0.042 0.181,0.194 c 0.104,0.109 0.275,0.361 0.396,0.564 0.109,0.196 0.256,0.406 0.321,0.463 l 0.114,0.213 c 0,0.146 0.241,0.912 0.309,0.979 0.138,0.14 0.019,0.29 -0.372,0.474 -0.234,0.107 -0.482,0.194 -0.562,0.194 -0.221,0 -0.334,0.185 -0.237,0.393 0.103,0.229 0.38,0.299 1.281,0.314 0.409,0.01 0.771,0.034 0.809,0.053 0.104,0.062 0.41,0.085 0.41,0.025 0,-0.031 0.145,-0.037 0.317,-0.017 0.181,0.021 0.381,0.009 0.444,-0.025 0.072,-0.032 0.244,-0.062 0.382,-0.062 0.203,-0.001 0.254,-0.036 0.269,-0.159 0.021,-0.107 0.104,-0.181 0.284,-0.244 0.146,-0.042 0.289,-0.101 0.326,-0.113 v -0.113 z m -6.377,-3.669 c -0.233,0 -0.769,0.037 -1.19,0.085 -0.499,0.058 -0.793,0.062 -0.837,0.021 -0.041,-0.046 0.044,-0.323 0.258,-0.781 0.179,-0.396 0.4,-0.906 0.504,-1.135 0.102,-0.24 0.228,-0.51 0.274,-0.608 0.054,-0.098 0.267,-0.521 0.475,-0.944 0.202,-0.421 0.393,-0.74 0.419,-0.709 0.021,0.032 0.165,0.438 0.31,0.908 0.315,1.018 0.531,1.577 0.906,2.359 0.151,0.323 0.276,0.618 0.276,0.648 -0.01,0.068 -0.722,0.154 -1.395,0.156 z" />
      <path
         inkscape:connector-curvature="0"
         id="path8021"
         d="m 103.70094,30.776985 c -0.051,0.082 -0.259,0.146 -0.516,0.156 -0.065,0.003 -0.155,0.082 -0.205,0.182 -0.091,0.165 -0.105,0.171 -1.312,0.182 -1.174,0.009 -1.229,0.001 -1.418,-0.151 -0.105,-0.092 -0.269001,-0.221 -0.373001,-0.292 -0.375,-0.268 -0.146,-0.563 0.498001,-0.649 0.688,-0.097 0.631,0.04 0.573,-1.396 -0.039,-0.854 -0.021,-1.629 0.038,-2.395 0.054,-0.622 0.102,-1.612 0.102,-2.2 0,-1.271 -0.041,-2.812 -0.071,-2.812 -0.04,0 -0.854,1.512 -1.222001,2.279 -0.443,0.917 -0.604,1.239 -1.479,2.956 -0.968,1.889 -1.248,2.559 -1.248,2.937 0,0.394 -0.24,0.875 -0.425,0.875 -0.185,0 -0.354,-0.183 -0.48,-0.491 -0.131,-0.318 -0.494,-0.915 -1.315,-2.179 -0.659,-1.012 -1.023,-1.713 -1.257,-2.435 -0.195,-0.604 -0.768,-1.826 -0.98,-2.117 -0.146,-0.196 -0.185,-0.105 -0.219,0.438 -0.014,0.264 -0.041,0.805 -0.069,1.196 -0.025,0.396 -0.056,1.264 -0.071,1.931 -0.012,0.669 -0.06,1.543 -0.102,1.939 -0.097,0.859 -0.043,1.358 0.136,1.358 0.224,0 0.769,0.221 0.897,0.362 0.104,0.105 0.107,0.182 0.058,0.368 -0.038,0.135 -0.114,0.229 -0.183,0.231 -0.124,0.002 -0.48,0.182 -0.48,0.245 0,0.086 -2.458,0.034 -2.625,-0.061 -0.218,-0.112 -0.184,-0.366 0.081,-0.489 l 0.2,-0.102 -0.183,-0.168 c -0.21,-0.193 -0.225,-0.267 -0.069,-0.42 0.078,-0.076 0.248,-0.106 0.534,-0.106 h 0.422 v -0.521 c 0,-0.281 0.065,-0.914 0.146,-1.408 0.191,-1.146 0.199,-3.476 0.032,-6.906 -0.035,-0.625 -0.11,-0.784 -0.396,-0.784 -0.201,0 -0.495,-0.279 -0.495,-0.477 0,-0.262 0.272,-0.357 0.713,-0.252 0.192,0.049 0.396,0.065 0.438,0.036 0.104,-0.058 1.896,-0.118 2.039,-0.062 0.073,0.025 0.074,0.063 0.014,0.184 -0.062,0.122 -0.038,0.225 0.136,0.587 0.214,0.437 1.084,2.854 1.407,3.9 0.191,0.641 0.868,2.021 1.167,2.396 0.109,0.146 0.265,0.427 0.337,0.617 0.073,0.194 0.164,0.354 0.198,0.349 0.036,-0.003 0.261,-0.383 0.494,-0.834 0.236,-0.458 0.538,-1.016 0.672,-1.237 0.133,-0.229 0.337,-0.591 0.461,-0.808 0.111,-0.214 0.381,-0.68 0.587,-1.033 0.444,-0.766 1.071,-2.045 1.303001,-2.635 l 0.162,-0.428 -0.19,-0.153 c -0.235001,-0.188 -0.190001,-0.351 0.13,-0.485 0.126,-0.054 0.271,-0.164 0.322,-0.247 0.104,-0.16 0.307,-0.188 0.521,-0.075 0.104,0.055 0.18,0.044 0.312,-0.038 0.154,-0.105 0.197,-0.107 0.405,-0.008 0.127,0.06 0.446,0.12 0.698,0.143 0.588,0.042 0.872,0.176 0.823,0.369 l -0.034,0.223 c 0,0.044 -0.2,0.104 -0.475,0.132 l -0.473,0.051 0.048,1.261 c 0.029,0.69 0.062,1.784 0.075,2.435 0.014,0.69 0.055,1.271 0.104,1.394 0.062,0.151 0.078,0.826 0.062,2.425 l -0.029,2.21 0.4,-0.026 c 0.224,-0.013 0.473,0.015 0.556,0.056 0.152,0.077 0.197,0.312 0.093,0.477 z" />
      <path
         inkscape:connector-curvature="0"
         id="path8023"
         d="m 87.804939,27.524985 c -0.031,0.059 -0.106,0.37 -0.175,0.697 -0.063,0.329 -0.134,0.622 -0.147,0.653 -0.02,0.032 -0.1,0.358 -0.171,0.739 -0.074,0.377 -0.189,0.768 -0.265,0.873 -0.072,0.102 -0.185,0.269 -0.244,0.375 -0.229,0.399 -0.44,0.574 -0.709,0.574 -0.292,0 -0.457,-0.135 -0.53,-0.441 -0.041,-0.194 -0.05,-0.198 -0.581,-0.19 -0.45,0.011 -0.546,0.035 -0.631,0.158 -0.103,0.134 -0.111,0.137 -0.349,0.027 -0.139,-0.062 -0.387,-0.114 -0.556,-0.114 -0.358,0.001 -0.84,0.121 -0.84,0.209 0,0.037 -0.138,0.034 -0.305,-0.008 -0.306,-0.068 -1.653,-0.1 -3.478,-0.066 -0.535,0.008 -1.021,-0.007 -1.088,-0.039 -0.093,-0.035 -0.116,-0.104 -0.106,-0.262 0.021,-0.185 0.062,-0.229 0.255,-0.278 0.143,-0.038 0.255,-0.119 0.294,-0.219 0.035,-0.086 0.188,-0.258 0.353,-0.396 0.161,-0.127 0.491,-0.491 0.732,-0.816 0.245,-0.325 0.965,-1.105 1.604,-1.736 0.643,-0.63 1.164,-1.201 1.164,-1.271 0,-0.243 -0.582,-1.143 -1.247,-1.931 -0.629,-0.75 -1.049,-1.293 -1.349,-1.774 -0.149,-0.235 -0.604,-0.76 -1.013,-1.159 -0.541,-0.537 -0.735,-0.775 -0.735,-0.909 0,-0.254 0.227,-0.354 0.49,-0.217 0.109,0.059 0.229,0.081 0.252,0.046 0.072,-0.116 1.063,-0.322 1.538,-0.315 0.256,0.005 0.948,0.012 1.542,0.02 1.127,0.01 2.202,0.135 2.726,0.322 0.406,0.144 0.785,0.142 0.947,-0.01 0.071,-0.063 0.267,-0.127 0.434,-0.139 0.169,-0.009 0.417,-0.035 0.562,-0.066 0.219,-0.034 0.275,-0.021 0.374,0.119 0.064,0.093 0.118,0.235 0.118,0.326 0,0.106 0.044,0.164 0.15,0.182 0.224,0.033 0.229,0.143 0.025,0.438 l -0.177,0.261 0.098,0.798 c 0.107,0.859 0.098,0.956 -0.107,1.021 -0.346,0.104 -0.641,-0.287 -0.771,-1.044 -0.112,-0.662 -0.136,-0.705 -0.312,-0.705 l -0.234,-0.074 c -0.036,-0.038 -0.536,-0.134 -1.102,-0.206 -0.563,-0.073 -1.105,-0.149 -1.198,-0.179 -0.615,-0.146 -1.12,-0.2 -1.709,-0.188 -0.37,0.004 -0.685,0.021 -0.689,0.036 -0.08,0.077 1.021,1.708 1.506,2.234 0.316,0.341 0.626,0.729 0.694,0.869 0.068,0.139 0.353,0.457 0.622,0.696 0.54,0.494 0.688,0.827 0.476,1.063 l -0.146,0.246 -0.14,0.089 c -0.104,-0.038 -3.382,3.138 -3.312,3.21 0.021,0.024 0.325,0.071 0.674,0.107 1.5,0.158 2.093,0.225 2.633,0.291 0.317,0.035 0.975,0.062 1.456,0.048 l 0.88,-0.021 0.336,-0.752 c 0.288,-0.646 0.372,-0.762 0.595,-0.879 0.141,-0.073 0.303,-0.22 0.36,-0.327 0.058,-0.106 0.172,-0.217 0.253,-0.242 0.177,-0.044 0.35,0.103 0.273,0.246 z" />
      <path
         inkscape:connector-curvature="0"
         id="path8025"
         d="m 82.152939,24.686985 c -0.155,-0.209 -0.299,-0.36 -0.32,-0.34 l 0.672,1.038 c 0.091,-0.004 -0.088,-0.357 -0.352,-0.698 z" />
      <path
         inkscape:connector-curvature="0"
         id="path8027"
         d="m 76.436939,30.124985 c -0.126,-0.128 -0.364,-0.146 -0.63,-0.044 -0.248,0.098 -0.332,0.049 -0.548,-0.286 -0.196,-0.305 -0.256,-0.438 -0.842,-2.023 -0.204,-0.545 -0.463,-1.19 -0.571,-1.422 -0.259,-0.565 -0.428,-0.946 -0.716,-1.672 -0.127,-0.334 -0.309,-0.72 -0.392,-0.854 -0.082,-0.141 -0.254,-0.589 -0.385,-0.995 -0.131,-0.411 -0.276,-0.842 -0.329,-0.964 -0.044,-0.114 -0.143,-0.438 -0.206,-0.706 -0.059,-0.272 -0.188,-0.614 -0.287,-0.751 -0.208,-0.31 -0.468,-0.896 -0.468,-1.067 0,-0.114 -0.132,-0.215 -0.286,-0.215 -0.129,0 -0.729,0.716 -0.936,1.115 -0.112,0.229 -0.247,0.447 -0.281,0.481 l -0.066,0.213 c 0,0.081 -0.073,0.335 -0.17,0.571 -0.094,0.239 -0.309,0.796 -0.473,1.25 -0.262,0.7 -0.625,1.54 -1.388,3.167 -0.354,0.763 -0.522,1.146 -0.564,1.315 -0.031,0.102 -0.28,0.65 -0.56,1.229 l -0.516,1.053 h -0.472 c -0.597,0 -0.702,0.095 -0.682,0.559 0.018,0.312 0.039,0.345 0.37,0.566 0.257,0.171 0.4,0.224 0.522,0.188 0.1,-0.026 0.654,-0.054 1.242,-0.073 0.594,-0.017 1.085,-0.043 1.107,-0.063 0.021,-0.021 0.043,-0.143 0.062,-0.27 0.024,-0.201 -0.015,-0.255 -0.22,-0.396 -0.169,-0.111 -0.295,-0.15 -0.399,-0.117 -0.083,0.025 -0.27,0.025 -0.409,0 l -0.254,-0.047 0.161,-0.12 c 0.18,-0.131 0.417,-0.615 0.617,-1.216 0.11,-0.36 0.393,-1.021 0.533,-1.283 0.041,-0.08 0.172,-0.104 0.512,-0.098 0.255,0.008 0.6,0.008 0.772,0 0.767,-0.027 1.637,0.018 2.031,0.101 0.235,0.049 0.541,0.088 0.677,0.086 l 0.25,-0.007 0.604,1.201 c 0.327,0.657 0.576,1.227 0.55,1.267 -0.021,0.037 -0.234,0.089 -0.473,0.109 -0.653,0.056 -0.845,0.311 -0.522,0.688 l 0.179,0.209 1.047,-0.013 c 0.933,-0.016 1.067,0 1.252,0.118 0.142,0.101 0.367,0.146 0.772,0.172 0.569,0.036 0.582,0.033 0.742,-0.175 0.18,-0.248 0.206,-0.618 0.043,-0.781 z m -4.5,-4.005 c -0.125,0.037 -2.534,0.081 -3.171,0.055 -0.328,-0.01 -0.335,-0.014 -0.294,-0.208 0.028,-0.107 0.093,-0.271 0.138,-0.373 0.046,-0.097 0.207,-0.471 0.354,-0.818 0.66,-1.604 1.245,-2.778 1.385,-2.778 0.062,0 0.182,0.209 0.306,0.536 0.11,0.295 0.314,0.792 0.441,1.104 0.134,0.317 0.399,0.963 0.606,1.438 0.199,0.476 0.362,0.901 0.362,0.938 z" />
      <path
         inkscape:connector-curvature="0"
         id="path8029"
         d="m 62.585939,30.921985 c -0.182,0.113 -0.42,0.108 -0.728,-0.016 -0.182,-0.074 -0.447,-0.095 -0.983,-0.072 -1.612,0.062 -3.061,0.048 -3.166,-0.039 -0.182,-0.146 -0.111,-0.312 0.227,-0.598 l 0.329,-0.275 0.688,0.012 c 0.537,0.017 0.712,-0.011 0.779,-0.09 0.068,-0.082 -0.013,-0.317 -0.418,-1.212 -0.271,-0.614 -0.504,-1.137 -0.504,-1.169 0,-0.033 -0.146,-0.295 -0.319,-0.587 -0.179,-0.292 -0.316,-0.585 -0.325,-0.652 l -0.135,-0.164 c -0.213,-0.064 -0.766,-1.089 -1.522,-2.834 -0.065,-0.146 -0.148,-0.262 -0.188,-0.262 -0.036,0 -0.198,0.259 -0.352,0.587 -0.352,0.737 -0.579,1.246 -0.579,1.287 0,0.021 -0.091,0.24 -0.204,0.488 -0.111,0.247 -0.229,0.52 -0.253,0.604 -0.028,0.088 -0.243,0.547 -0.479,1.034 -0.438,0.883 -0.663,1.45 -0.763,1.907 -0.036,0.138 -0.109,0.353 -0.173,0.476 -0.139,0.257 -0.156,0.472 -0.046,0.669 0.059,0.109 0.15,0.138 0.434,0.138 0.195,0 0.425,0.033 0.503,0.078 0.646,0.344 0.646,0.888 0.001,0.869 -0.146,-0.007 -0.31,0.021 -0.361,0.046 -0.057,0.036 -0.212,0.011 -0.355,-0.052 -0.169,-0.071 -0.565,-0.116 -1.183,-0.137 -1.023,-0.032 -1.361,-0.128 -1.438,-0.434 -0.064,-0.259 0.163,-0.44 0.646,-0.509 0.46,-0.062 0.604,-0.169 0.64,-0.472 0.034,-0.292 0.105,-0.501 0.292,-0.84 0.188,-0.363 0.426,-0.83 0.801,-1.616 0.443,-0.922 1.055,-2.153 1.139,-2.31 0.108,-0.196 0.443,-0.934 0.443,-0.981 0,-0.026 0.107,-0.275 0.243,-0.562 0.359,-0.771 0.587,-1.349 0.646,-1.616 0.029,-0.133 0.119,-0.401 0.215,-0.595 0.136,-0.3 0.149,-0.384 0.082,-0.564 -0.078,-0.209 -0.067,-0.234 0.253,-0.518 0.185,-0.166 0.336,-0.337 0.336,-0.387 l 0.137,-0.15 c 0.195,-0.107 0.472,0.138 0.562,0.511 0.043,0.174 0.179,0.452 0.293,0.624 0.117,0.176 0.281,0.544 0.369,0.813 0.084,0.273 0.211,0.686 0.284,0.908 0.071,0.229 0.132,0.454 0.132,0.506 0,0.099 0.11,0.367 0.513,1.264 0.082,0.18 0.397,0.818 0.696,1.426 0.59,1.179 1.14,2.424 1.14,2.577 0,0.101 0.188,0.562 0.538,1.312 0.193,0.426 0.209,0.438 0.578,0.53 0.326,0.078 0.396,0.123 0.521,0.366 0.194,0.348 0.196,0.572 0.014,0.681 z" />
      <path
         inkscape:connector-curvature="0"
         id="path8031"
         d="m 47.763939,30.728985 c -0.578,0.003 -1.445,0.121 -2.016,0.271 -0.15,0.038 -0.508,0.094 -0.791,0.118 -0.446,0.04 -0.548,0.028 -0.825,-0.11 -0.229,-0.114 -0.458,-0.169 -0.817,-0.178 -1.081,-0.032 -1.414,-0.161 -1.26,-0.499 0.081,-0.18 0.185,-0.204 0.597,-0.184 0.231,0.02 0.331,-0.145 0.36,-0.566 0.019,-0.312 0.017,-0.312 -0.457,-0.634 -0.659,-0.449 -0.838,-0.629 -1,-0.996 -0.148,-0.331 -0.312,-0.509 -0.821,-0.875 -0.167,-0.121 -0.302,-0.242 -0.302,-0.265 0,-0.02 -0.289,-0.298 -0.644,-0.605 -0.456,-0.401 -0.638,-0.616 -0.638,-0.729 0,-0.193 -0.107,-0.216 -0.162,-0.032 -0.05,0.189 0.014,3.691 0.073,4.072 0.041,0.273 0.074,0.325 0.242,0.338 0.107,0.018 0.229,0.068 0.274,0.125 0.046,0.055 0.175,0.106 0.282,0.106 0.104,0 0.24,0.046 0.291,0.107 0.053,0.062 0.172,0.146 0.264,0.184 0.146,0.053 0.162,0.095 0.114,0.295 -0.063,0.299 -0.057,0.293 -0.327,0.203 -0.131,-0.039 -0.41,-0.094 -0.619,-0.111 -0.334,-0.035 -0.385,-0.02 -0.417,0.107 -0.036,0.163 -0.104,0.18 -0.31,0.067 -0.104,-0.05 -0.239,-0.042 -0.497,0.036 -0.348,0.107 -0.566,0.093 -0.566,-0.036 0,-0.088 -0.261,-0.082 -0.318,0.009 -0.026,0.033 -0.141,0.068 -0.25,0.068 -0.115,0 -0.229,-0.036 -0.256,-0.068 -0.024,-0.037 -0.262,-0.073 -0.538,-0.073 -0.589,0 -0.993,-0.188 -0.993,-0.475 0,-0.26 0.256,-0.369 0.952,-0.407 0.348,-0.021 0.64,-0.042 0.646,-0.062 0.038,-0.044 0.205,-1.852 0.23,-2.477 0.039,-0.871 0.059,-3.383 0.039,-4.025 -0.009,-0.271 -0.014,-0.598 -0.007,-0.715 0.016,-0.329 -0.172,-1.87 -0.241,-1.971 -0.043,-0.074 -0.076,-0.064 -0.129,0.028 -0.081,0.137 -0.28,0.176 -0.28,0.055 l 0.079,-0.205 c 0.116,-0.187 0.034,-0.341 -0.216,-0.4 -0.334,-0.071 -0.791,-0.437 -0.791,-0.627 0,-0.22 0.211,-0.398 0.474,-0.398 0.106,0 0.301,-0.049 0.408,-0.107 0.27,-0.145 0.397,-0.136 0.842,0.038 0.367,0.146 0.606,0.148 1.126,0.029 0.124,-0.032 0.256,0.01 0.43,0.125 0.187,0.128 0.322,0.165 0.515,0.142 0.416,-0.046 0.479,0.002 0.396,0.304 -0.044,0.139 -0.123,0.252 -0.177,0.252 -0.053,0 -0.235,0.108 -0.401,0.235 l -0.313,0.229 -0.041,0.683 c -0.063,0.934 -0.062,2.99 0.009,2.99 0.031,0 0.214,-0.133 0.401,-0.286 0.487,-0.394 0.443,-0.357 0.996,-0.771 0.775,-0.583 1.272,-0.979 1.608,-1.294 0.817,-0.764 1.055,-1.013 1.133,-1.214 0.081,-0.188 0.075,-0.235 -0.043,-0.353 -0.074,-0.076 -0.259,-0.182 -0.419,-0.235 -0.317,-0.109 -0.396,-0.276 -0.218,-0.473 0.092,-0.104 0.272,-0.141 0.818,-0.179 0.391,-0.023 0.948,-0.093 1.248,-0.146 0.373,-0.071 0.604,-0.082 0.727,-0.037 0.1,0.037 0.308,0.07 0.463,0.07 0.268,0 0.362,0.079 0.201,0.182 l -0.037,0.146 c 0.041,0.105 -0.167,0.277 -1.106,0.919 -0.286,0.193 -0.565,0.4 -0.625,0.466 -0.335,0.321 -1.385,1.229 -1.828,1.584 -0.562,0.45 -1.59,1.479 -1.692,1.694 -0.14,0.297 0.671,1.305 2.095,2.606 0.67,0.616 1.361,1.361 1.382,1.49 0.012,0.083 0.097,0.149 0.229,0.18 0.112,0.024 0.333,0.164 0.489,0.31 0.158,0.146 0.531,0.412 0.829,0.582 0.306,0.18 0.562,0.376 0.579,0.443 0.042,0.169 0.61,0.298 1.391,0.329 0.326,0.012 0.604,0.034 0.618,0.05 0.021,0.021 0.057,0.15 0.083,0.299 l 0.049,0.264 z" />
      <polygon
         transform="translate(-941.01006,-395.03402)"
         id="polygon8033"
         points="979.047,421.646 979.043,421.783 979.08,421.743 " />
      <polygon
         transform="translate(-941.01006,-395.03402)"
         id="polygon8035"
         points="979.047,420.364 979.043,420.503 979.08,420.458 " />
    </g>
    <g
       id="g8361"
       transform="matrix(0.2822222,0,0,0.2822222,0.04080458,0.47204437)">
      <path
         inkscape:connector-curvature="0"
         id="path8037"
         d="m 25.404939,429.49998 -0.398,3.653 -0.357,-3.653 v -15.021 h 7.896 v 10.105 l -1.886,0.951 1.886,0.979 v 2.979 l -0.396,3.658 -0.36,-3.65 v -2.518 l -2.8,-1.473 2.799,-1.396 v -8.878 h -6.378 z m 4.76,-12.638 v 6.255 l -3.142,1.588 v -7.843 z m -2.779,16.292 -0.359,-3.64 v -3.089 l 3.142,1.604 v 1.472 l -0.396,3.653 -0.361,-3.649 v -1.01 l -1.616,-0.836 v 1.846 z m 2.016,-15.531 h -1.616 v 5.829 l 1.616,-0.814 z" />
      <polygon
         transform="translate(-941.01006,-395.03402)"
         id="polygon8039"
         points="982.715,824.534 982.715,822.175 977.956,822.175 977.956,819.016 982.715,819.016 982.715,817.417 977.956,817.417 977.956,811.877 981.098,811.877 981.098,814.257 982.715,814.257 982.715,810.278 976.338,810.278 976.338,824.535 975.942,828.188 975.581,824.535 975.581,809.514 983.477,809.514 983.477,815.015 980.334,815.015 980.334,812.636 978.718,812.636 978.718,816.657 983.477,816.657 983.477,819.777 978.718,819.777 978.718,821.414 983.477,821.414 983.472,824.534 983.076,828.188 " />
      <path
         inkscape:connector-curvature="0"
         id="path8041"
         d="m 52.319939,429.49598 -0.399,3.657 -0.356,-3.651 v -4.89 l -2.789,-1.469 2.789,-1.396 v -6.511 h -6.377 v 14.258 l -0.398,3.649 -0.361,-3.649 v -15.021 h 7.898 v 7.737 l -1.877,0.948 1.877,0.975 z m -2.38,-12.634 v 3.875 l -3.146,1.589 v -5.464 z m 0,8.764 v 1.495 h -3.146 v -3.085 z m -0.762,-8.003 h -1.613 v 3.465 l 1.613,-0.816 z m 0,8.472 -1.613,-0.818 v 1.09 h 1.613 z" />
      <polygon
         transform="translate(-941.01006,-395.03402)"
         id="polygon8043"
         points="1002.49,824.534 1002.49,822.175 997.727,822.175 997.727,819.016 1002.49,819.016 1002.49,817.417 997.727,817.417 997.727,811.877 1000.872,811.877 1000.872,814.257 1002.49,814.257 1002.49,810.278 996.113,810.278 996.113,824.535 995.714,828.188 995.353,824.535 995.353,809.514 1003.252,809.514 1003.252,815.015 1000.105,815.015 1000.105,812.636 998.493,812.636 998.493,816.657 1003.252,816.657 1003.252,819.777 998.493,819.777 998.493,821.414 1003.252,821.414 1003.246,824.534 1002.847,828.188 " />
      <polygon
         transform="translate(-941.01006,-395.03402)"
         id="polygon8045"
         points="1009.971,824.534 1009.971,822.175 1007.592,822.175 1007.592,810.279 1005.974,810.279 1005.974,824.536 1005.578,828.189 1005.216,824.536 1005.216,809.515 1008.361,809.515 1008.361,821.411 1010.742,821.411 1010.742,824.534 1010.727,824.534 1010.331,828.188 " />
      <polygon
         transform="translate(-941.01006,-395.03402)"
         id="polygon8047"
         points="1021.888,809.516 1029.787,809.516 1029.787,812.638 1027.407,812.638 1027.401,824.534 1027.001,828.188 1026.641,824.534 1026.641,811.876 1029.021,811.876 1029.021,810.277 1022.644,810.277 1022.644,811.876 1025.025,811.876 1025.025,824.534 1024.629,828.188 1024.268,824.534 1024.268,812.638 1021.888,812.638 " />
      <polygon
         transform="translate(-941.01006,-395.03402)"
         id="polygon8049"
         points="1038.692,824.534 1038.692,822.175 1033.929,822.175 1033.929,819.016 1038.692,819.016 1038.692,817.417 1033.929,817.417 1033.929,811.877 1037.074,811.877 1037.074,814.257 1038.692,814.257 1038.692,810.278 1032.311,810.278 1032.311,824.535 1031.915,828.188 1031.554,824.535 1031.554,809.514 1039.453,809.514 1039.453,815.015 1036.307,815.015 1036.307,812.636 1034.693,812.636 1034.693,816.657 1039.453,816.657 1039.453,819.777 1034.693,819.777 1034.693,821.414 1039.453,821.414 1039.448,824.534 1039.049,828.188 " />
      <polygon
         transform="translate(-941.01006,-395.03402)"
         id="polygon8051"
         points="1043.793,822.175 1043.793,811.877 1046.936,811.877 1046.936,814.257 1048.553,814.257 1048.553,810.278 1042.176,810.278 1042.176,824.535 1041.78,828.188 1041.418,824.535 1041.418,809.514 1049.318,809.514 1049.318,815.015 1046.172,815.015 1046.172,812.636 1044.556,812.636 1044.556,821.408 1046.172,821.408 1046.172,819.029 1049.318,819.029 1049.309,824.534 1048.913,828.188 1048.553,824.534 1048.553,819.797 1046.936,819.797 1046.936,822.175 " />
      <path
         inkscape:connector-curvature="0"
         id="path8053"
         d="m 118.11994,429.49998 -0.396,3.653 -0.36,-3.653 v -14.257 h -1.618 v 9.52 h -3.141 v -9.52 h -1.618 v 14.257 l -0.398,3.653 -0.357,-3.653 v -15.021 h 3.142 v 9.521 h 1.616 v -9.521 h 3.143 v 15.021 z m -2.381,0 -0.399,3.653 -0.355,-3.653 v -2.379 h -1.618 v 2.379 l -0.396,3.653 -0.36,-3.653 v -3.144 h 3.142 v 3.144 z" />
    </g>
    <polygon
       points="1062.182,802.148 1059.828,802.148 1059.828,796.148 1055.974,796.148 1055.974,802.148 1052.873,802.148 1052.873,803.148 1056.974,803.148 1056.974,797.148 1058.828,797.148 1058.828,803.148 1062.182,803.148 "
       id="polygon8309"
       transform="matrix(0.2822222,0,0,0.2822222,-265.54893,-111.46236)" />
    <polyline
       points="1051.168,617.432 1051.168,625.414 1052.168,625.414 1052.168,617.432 "
       id="polyline8311"
       style="fill:#030303"
       transform="matrix(0.2822222,0,0,0.2822222,-265.54893,-111.46236)" />
    <polyline
       points="1063.862,620.885 1055.416,620.885 1055.416,621.885 1063.862,621.885 "
       id="polyline8313"
       style="fill:#030303"
       transform="matrix(0.2822222,0,0,0.2822222,-265.54893,-111.46236)" />
    <polygon
       points="1057.254,619.566 1057.293,623.274 1051.752,621.4 "
       id="polygon8315"
       style="fill:#030303"
       transform="matrix(0.2822222,0,0,0.2822222,-265.54893,-111.46236)" />
    <path
       d="m 30.602629,52.194063 h 1.122397 v -1.834444 h -0.141111 v 0.141111 c 0.828887,0 1.657491,0 2.486378,0 v -0.141111 h -0.141111 v 1.834444 h 1.122115 v -0.282222 h -0.839893 v -1.693333 h -0.141111 c -0.828887,0 -1.657491,0 -2.486378,0 h -0.141111 v 1.693333 h -0.840175 z"
       id="path8317"
       inkscape:connector-curvature="0"
       style="stroke-width:0.282222" />
    <path
       d="m 11.321491,12.337515 0.0841,-0.01298 c 0,0 -0.01298,-0.459175 0.336127,-0.465666 0.349109,-0.0062 0.401037,0.362091 0.665762,1.849119 0,0 -0.252307,0.569525 -0.245816,0.6858 0.0065,0.116558 -0.103293,0.536505 0.129258,0.562469 0.232551,0.02568 0.290971,-0.394546 0.28448,-0.433211 -0.0062,-0.03895 0.0062,-0.79502 -0.03895,-0.859931 -0.04544,-0.06463 1.002171,-2.114409 1.002171,-2.114409 h -0.497839 l -0.517314,1.758527 c 0,0 -0.129258,-1.927013 -0.750146,-1.810455 -0.620607,0.116557 -0.451838,0.795302 -0.451838,0.840739 z"
       id="path8323"
       inkscape:connector-curvature="0"
       style="stroke-width:0.282222" />
    <path
       d="m 31.641489,75.83751 0.0841,-0.01298 c 0,0 -0.01298,-0.459176 0.336127,-0.465667 0.349108,-0.0059 0.401037,0.362091 0.665762,1.849402 0,0 -0.252307,0.569525 -0.245816,0.686082 0.0065,0.116276 -0.103293,0.536223 0.129258,0.561905 0.232833,0.02625 0.290971,-0.393982 0.28448,-0.432929 -0.0062,-0.03895 0.0062,-0.794738 -0.03895,-0.859931 -0.04544,-0.06463 1.002171,-2.114409 1.002171,-2.114409 h -0.49784 l -0.517313,1.758527 c 0,0 -0.129258,-1.927014 -0.750147,-1.810456 -0.620606,0.116558 -0.451837,0.79502 -0.451837,0.840458 z"
       id="path8325"
       inkscape:connector-curvature="0"
       style="stroke-width:0.282222" />
    <polyline
       points="1050.569,706.193 1050.569,719.209 1051.819,719.209 1051.819,706.193 "
       id="polyline8327"
       style="fill:#030303"
       transform="matrix(0.2822222,0,0,0.2822222,-265.54893,-111.46236)" />
    <polyline
       points="1064.084,706.228 1064.084,719.141 1065.334,719.141 1065.334,706.228 "
       id="polyline8329"
       style="fill:#030303"
       transform="matrix(0.2822222,0,0,0.2822222,-265.54893,-111.46236)" />
    <polyline
       points="1051.332,713.275 1061.428,713.275 1061.428,712.025 1051.332,712.025 "
       id="polyline8331"
       style="fill:#030303"
       transform="matrix(0.2822222,0,0,0.2822222,-265.54893,-111.46236)" />
    <polygon
       points="1059.82,711.059 1059.785,714.305 1064.635,712.664 "
       id="polygon8333"
       style="fill:#030303"
       transform="matrix(0.2822222,0,0,0.2822222,-265.54893,-111.46236)" />
    <polyline
       points="1051.057,758.219 1064.302,758.219 1064.302,756.969 1051.057,756.969 "
       id="polyline8335"
       style="fill:#030303"
       transform="matrix(0.2822222,0,0,0.2822222,-265.54893,-111.46236)" />
    <polyline
       points="1050.633,751.226 1050.633,763.996 1051.883,763.996 1051.883,751.226 "
       id="polyline8337"
       style="fill:#030303"
       transform="matrix(0.2822222,0,0,0.2822222,-265.54893,-111.46236)" />
    <polyline
       points="1057.055,751.226 1057.055,763.996 1058.305,763.996 1058.305,751.226 "
       id="polyline8339"
       style="fill:#030303"
       transform="matrix(0.2822222,0,0,0.2822222,-265.54893,-111.46236)" />
    <polyline
       points="1059.016,751.226 1059.016,763.996 1060.266,763.996 1060.266,751.226 "
       id="polyline8341"
       style="fill:#030303"
       transform="matrix(0.2822222,0,0,0.2822222,-265.54893,-111.46236)" />
    <polyline
       points="1060.266,751.226 1060.266,763.996 1061.516,763.996 1061.516,751.226 "
       id="polyline8343"
       style="fill:#030303"
       transform="matrix(0.2822222,0,0,0.2822222,-265.54893,-111.46236)" />
    <polyline
       points="1061.158,751.226 1061.158,763.996 1062.408,763.996 1062.408,751.226 "
       id="polyline8345"
       style="fill:#030303"
       transform="matrix(0.2822222,0,0,0.2822222,-265.54893,-111.46236)" />
    <polyline
       points="1061.87,751.226 1061.87,763.996 1063.12,763.996 1063.12,751.226 "
       id="polyline8347"
       style="fill:#030303"
       transform="matrix(0.2822222,0,0,0.2822222,-265.54893,-111.46236)" />
    <polyline
       points="1062.585,751.226 1062.585,763.996 1063.835,763.996 1063.835,751.226 "
       id="polyline8349"
       style="fill:#030303"
       transform="matrix(0.2822222,0,0,0.2822222,-265.54893,-111.46236)" />
    <polyline
       points="1062.939,751.226 1062.939,763.996 1064.189,763.996 1064.189,751.226 "
       id="polyline8351"
       style="fill:#030303"
       transform="matrix(0.2822222,0,0,0.2822222,-265.54893,-111.46236)" />
    <polyline
       points="1063.477,751.226 1063.477,763.996 1064.727,763.996 1064.727,751.226 "
       id="polyline8353"
       style="fill:#030303"
       transform="matrix(0.2822222,0,0,0.2822222,-265.54893,-111.46236)" />
    <polyline
       points="1054.914,751.226 1054.914,763.996 1056.164,763.996 1056.164,751.226 "
       id="polyline8355"
       style="fill:#030303"
       transform="matrix(0.2822222,0,0,0.2822222,-265.54893,-111.46236)" />
    <path
       id="path32"
       d="m 39.898701,70.572909 c -0.02964,0.08362 -0.12312,0.107272 -0.182395,0.162278 -0.05715,0.05328 -0.10232,0.119972 -0.156292,0.175006 -0.13618,0.139361 -0.352444,0.270594 -0.480864,0.424772 -0.09208,0.110067 -0.160522,0.245195 -0.312578,0.312561 -0.07938,0.207462 -0.30517,0.297067 -0.481217,0.437134 -0.154878,0.123811 -0.307639,0.250472 -0.455109,0.38735 -0.05292,-0.04479 -0.166169,-0.03243 -0.156289,-0.137216 -0.09773,-0.04798 -0.213797,-0.07764 -0.246961,-0.187339 0.208858,-0.203567 0.526375,-0.302006 0.715123,-0.524962 0.215558,-0.06528 0.381728,-0.242372 0.546483,-0.387378 0.12312,-0.107611 0.294234,-0.185561 0.429709,-0.287189 0.142884,-0.107583 0.248723,-0.220134 0.351034,-0.349617 -0.168992,-0.2921 -0.501326,-0.402195 -0.754637,-0.611745 -0.15382,-0.127706 -0.329159,-0.330228 -0.559184,-0.400417 -0.184864,-0.217678 -0.490389,-0.32035 -0.702773,-0.511923 0.0208,-0.155222 0.253662,-0.106906 0.260365,-0.274828 0.08503,0.02314 0.07832,-0.04092 0.130183,-0.05046 0.165461,0.121722 0.291764,0.288233 0.455109,0.412439 0.08114,0.06243 0.174989,0.09525 0.246958,0.150284 0.08926,0.0681 0.137945,0.161233 0.221206,0.249766 0.264245,0.281207 0.574353,0.524623 0.832601,0.812151 0.03564,0.01298 0.124183,0.05715 0.142886,0.124884 0.06315,0.01439 0.09808,0.05577 0.156642,0.07445 z M 37.68701,68.911241 c -0.0081,0.04586 0.02681,0.04902 0.06527,0.05009 -5.65e-4,-0.01722 0.0064,-0.02709 0.0127,-0.03739 -0.02012,-0.01496 -0.05045,-0.04022 -0.07797,-0.0127 z m 1.209743,1.012529 c -0.03281,-0.02455 -0.07162,-0.0293 -0.09138,0.01242 0.03669,-0.01016 0.03386,0.0175 0.06526,0.01242 0.0029,-0.0096 2.82e-4,-0.02455 0.01304,-0.02455 0,0.0068 0.01061,0.01411 0.01304,0 z"
       inkscape:connector-curvature="0"
       style="clip-rule:evenodd;display:inline;fill:#231f20;fill-rule:evenodd;stroke-width:0.282222" />
    <path
       style="clip-rule:evenodd;display:inline;fill:#231f20;fill-rule:evenodd;stroke-width:0.282222"
       inkscape:connector-curvature="0"
       d="m 37.427064,108.67288 c 0.02964,0.0836 0.123119,0.10727 0.182397,0.1623 0.05715,0.0533 0.102305,0.11995 0.156289,0.17498 0.136181,0.13936 0.352445,0.2706 0.480864,0.42477 0.09208,0.11007 0.160523,0.2452 0.312578,0.31259 0.07938,0.20744 0.30517,0.29704 0.481217,0.43711 0.154878,0.12384 0.307639,0.25047 0.455109,0.38738 0.05292,-0.0448 0.166167,-0.0325 0.156289,-0.13725 0.09773,-0.048 0.213797,-0.0776 0.246959,-0.18734 -0.208856,-0.20356 -0.526376,-0.302 -0.71512,-0.52496 -0.215562,-0.0653 -0.381729,-0.24237 -0.546484,-0.38738 -0.123134,-0.10761 -0.294234,-0.18556 -0.429709,-0.28716 -0.142883,-0.10761 -0.248722,-0.22016 -0.351034,-0.34964 0.168989,-0.2921 0.501326,-0.40217 0.754634,-0.61175 0.15382,-0.1277 0.329162,-0.33023 0.559184,-0.40041 0.184867,-0.21768 0.490389,-0.32035 0.702773,-0.51193 -0.02083,-0.15522 -0.253658,-0.10687 -0.260364,-0.27482 -0.08503,0.0231 -0.07832,-0.0409 -0.130184,-0.0504 -0.165461,0.1217 -0.291761,0.28824 -0.455105,0.41241 -0.08114,0.0624 -0.174989,0.0952 -0.246962,0.15029 -0.08925,0.0681 -0.137944,0.16123 -0.221203,0.24979 -0.264247,0.28118 -0.574356,0.5246 -0.832603,0.81212 -0.03563,0.013 -0.124184,0.0572 -0.142884,0.12492 -0.06315,0.0144 -0.09808,0.0557 -0.156641,0.0744 z m 2.21169,-1.66167 c 0.0081,0.0459 -0.02681,0.049 -0.06527,0.0501 5.64e-4,-0.0172 -0.0064,-0.0271 -0.0127,-0.0374 0.02012,-0.015 0.05045,-0.0402 0.07797,-0.0127 z m -1.209745,1.01253 c 0.03281,-0.0248 0.07162,-0.0293 0.09138,0.0124 -0.03669,-0.0102 -0.03386,0.0175 -0.06527,0.0124 -0.0029,-0.01 -2.82e-4,-0.0246 -0.01304,-0.0246 0,0.007 -0.01061,0.0141 -0.01304,0 z"
       id="path4307" />
    <path
       style="fill:none;fill-rule:evenodd;stroke:#000000;stroke-width:0.705;stroke-linecap:butt;stroke-linejoin:miter;stroke-miterlimit:4;stroke-dasharray:none;stroke-opacity:1"
       d="M 17.184999,83.325003 H 29.717524"
       id="path17107"
       inkscape:connector-curvature="0" />
    <path
       inkscape:connector-curvature="0"
       id="path17109"
       d="M 17.006055,100.97285 29.893754,97.009647"
       style="fill:none;fill-rule:evenodd;stroke:#000000;stroke-width:0.705;stroke-linecap:butt;stroke-linejoin:miter;stroke-miterlimit:4;stroke-dasharray:none;stroke-opacity:1"
       sodipodi:nodetypes="cc" />
    <path
       d="m 40.431299,79.790314 c -0.481753,-0.189371 -0.958144,-0.380718 -1.424093,-0.57658 -5.300697,-2.228426 -9.588217,-4.88188 -12.54647,-7.823199 -2.959099,-2.941602 -4.588368,-6.16712 -4.588368,-9.547577 0,-3.380458 1.628986,-6.605693 4.588368,-9.547295 3.223824,-3.206044 8.026681,-6.066931 13.998221,-8.410786 -0.004,-0.04939 -0.0056,-0.09878 -0.0051,-0.148449 -0.508,0.198967 -1.010356,0.400473 -1.501422,0.606778 -5.312551,2.233506 -9.614182,4.89345 -12.591343,7.852268 -2.976598,2.957971 -4.629573,6.219331 -4.629573,9.647201 0,3.427871 1.652975,6.689231 4.629573,9.648049 3.247812,3.226364 8.072683,6.099386 14.065389,8.450579 0,-0.05024 2.83e-4,-0.100471 0.0048,-0.150989 z"
       id="path7965"
       inkscape:connector-curvature="0"
       style="display:inline;stroke-width:0.282222" />
  </g>
  <g
     inkscape:groupmode="layer"
     id="layer3"
     inkscape:label="components"
     style="display:inline">
    <circle
       style="display:inline;fill:#ff0000;fill-opacity:1;stroke-width:0.435;stroke-linejoin:round"
       id="path1465"
       cx="12.549902"
       cy="26.256495"
       r="2.645833"
       inkscape:label="offset" />
    <circle
       style="display:inline;fill:#ff0000;fill-opacity:1;stroke-width:0.435;stroke-linejoin:round"
       id="path1465-0"
       cx="12.549902"
       cy="45.306492"
       r="2.645833"
       inkscape:label="length" />
    <circle
       style="display:inline;fill:#ff0000;fill-opacity:1;stroke-width:0.435;stroke-linejoin:round"
       id="path1465-7"
       cx="12.549902"
       cy="64.356491"
       r="2.645833"
       inkscape:label="density" />
    <circle
       style="display:inline;fill:#ff0000;fill-opacity:1;stroke-width:0.435;stroke-linejoin:round"
       id="path1465-9"
       cx="12.549902"
       cy="83.406487"
       r="2.645833"
       inkscape:label="length_atten" />
    <circle
       style="display:inline;fill:#ff0000;fill-opacity:1;stroke-width:0.435;stroke-linejoin:round"
       id="path1465-6"
       cx="12.549902"
       cy="102.45649"
       r="2.645833"
       inkscape:label="density_atten" />
    <circle
       style="display:inline;fill:#0000ff;fill-opacity:1;stroke-width:0.435;stroke-linejoin:round"
       id="path1514"
       cx="32.874996"
       cy="70.625"
       r="2.6726949"
       inkscape:label="out" />
    <circle
       style="display:inline;fill:#00ff00;fill-opacity:1;stroke-width:0.435;stroke-linejoin:round"
       id="path1514-0"
       cx="32.874996"
       cy="57.925003"
       r="2.6726949"
       inkscape:label="reset" />
    <circle
       style="display:inline;fill:#00ff00;fill-opacity:1;stroke-width:0.435;stroke-linejoin:round"
       id="path1514-0-5"
       cx="32.874996"
       cy="83.324997"
       r="2.6726949"
       inkscape:label="length" />
    <circle
       style="display:inline;fill:#00ff00;fill-opacity:1;stroke-width:0.435;stroke-linejoin:round"
       id="path1514-0-4"
       cx="32.874996"
       cy="96.025002"
       r="2.6726949"
       inkscape:label="density" />
    <circle
       style="display:inline;fill:#00ff00;fill-opacity:1;stroke-width:0.435;stroke-linejoin:round"
       id="path1514-0-8"
       cx="32.874996"
       cy="108.725"
       r="2.6726949"
       inkscape:label="clock" />
    <circle
       style="display:inline;fill:#ff00ff;fill-opacity:1;stroke-width:0.435;stroke-linejoin:round"
       id="path1574"
       cx="22.714998"
       cy="70.625"
       r="1.3363475"
       inkscape:label="out" />
    <circle
       style="display:inline;fill:#ff00ff;fill-opacity:1;stroke-width:0.435;stroke-linejoin:round"
       id="path1574-2"
       cx="22.714998"
       cy="108.725"
       r="1.3363475"
       inkscape:label="in" />
    <a
       id="a5738"
       style="display:inline">
      <circle
         style="display:inline;fill:#ff0000;fill-opacity:1;stroke-width:0.435;stroke-linejoin:round"
         id="path1465-93"
         cx="32.874996"
         cy="45.225002"
         r="2.645833"
         inkscape:label="switch" />
    </a>
  </g>
</svg>
