<?xml version="1.0" encoding="UTF-8" standalone="no"?>
<!-- Generator: Adobe Illustrator 25.2.3, SVG Export Plug-In . SVG Version: 6.00 Build 0)  -->

<svg
   version="1.0"
   id="svg15246"
   x="0px"
   y="0px"
   width="44.80079px"
   height="44.79687px"
   viewBox="0 0 44.80079 44.79687"
   enable-background="new 0 0 44.80079 44.79687"
   xml:space="preserve"
   sodipodi:docname="Pot.svg"
   inkscape:version="1.1.1 (c3084ef, 2021-09-22)"
   xmlns:inkscape="http://www.inkscape.org/namespaces/inkscape"
   xmlns:sodipodi="http://sodipodi.sourceforge.net/DTD/sodipodi-0.dtd"
   xmlns="http://www.w3.org/2000/svg"
   xmlns:svg="http://www.w3.org/2000/svg"><defs
   id="defs969">
	
	
	
	
	
</defs>
<sodipodi:namedview
   bordercolor="#666666"
   borderopacity="1.0"
   fit-margin-bottom="0"
   fit-margin-left="0"
   fit-margin-right="0"
   fit-margin-top="0"
   id="base"
   inkscape:current-layer="svg15246"
   inkscape:cx="24.117392"
   inkscape:cy="20.487156"
   inkscape:document-units="mm"
   inkscape:pageopacity="0.0"
   inkscape:pageshadow="2"
   inkscape:window-height="1159"
   inkscape:window-maximized="0"
   inkscape:window-width="1496"
   inkscape:window-x="2579"
   inkscape:window-y="92"
   inkscape:zoom="15.839192"
   pagecolor="#ffffff"
   showgrid="false"
   units="px"
   inkscape:pagecheckerboard="0">
	</sodipodi:namedview>
<path
   opacity="0.24"
   fill="#616161"
   enable-background="new    "
   d="M 22.4004,0 C 10.02903,0 3e-5,10.02899 3e-5,22.40044 c 0,12.37137 10.02899,22.40037 22.40037,22.40037 12.37138,0 22.40037,-10.02899 22.40037,-22.40037 C 44.80077,10.02899 34.77177,0 22.4004,0 Z m 0,37.56196 c -8.37349,0 -15.1616,-6.7881 -15.1616,-15.16152 0,-8.37349 6.7881,-15.16159 15.1616,-15.16159 8.3735,0 15.16152,6.7881 15.16152,15.16159 0,8.37342 -6.78803,15.16152 -15.16152,15.16152 z"
   id="path954"
   style="fill:#f4f4f4;fill-opacity:1;opacity:0.68199234" /><g
   opacity="0.71"
   id="g958"
   style="opacity:0.13409962">
		<path
   d="m 22.40043,0.75012 c 1.29184,0 2.5929,0.11694 3.86725,0.34741 0.30887,0.05591 0.54169,0.25806 0.68262,0.41772 2.28137,2.58643 5.56633,4.17603 9.01242,4.36108 0.20985,0.01123 0.50885,0.06787 0.74165,0.27295 1.95107,1.71899 3.56307,3.75415 4.7912,6.04883 0.14473,0.27026 0.1337,0.5708 0.09895,0.77539 -0.56816,3.34473 0.22821,6.85376 2.18494,9.6272 0.11928,0.16895 0.2587,0.43506 0.24556,0.74194 -0.11276,2.63379 -0.69417,5.18921 -1.72807,7.59522 -0.12018,0.27979 -0.3606,0.45801 -0.54121,0.55811 -2.9665,1.64746 -5.20812,4.46143 -6.15006,7.72071 -0.05724,0.198 -0.17699,0.47168 -0.42244,0.65186 -2.10883,1.54614 -4.44751,2.68457 -6.95098,3.3833 -0.08386,0.02344 -0.17338,0.03516 -0.26606,0.03516 -0.16582,0 -0.34575,-0.03833 -0.52051,-0.11133 -1.58391,-0.65991 -3.25978,-0.99438 -4.98105,-0.99438 -1.73848,0 -3.42914,0.34106 -5.02509,1.01367 -0.17586,0.07422 -0.35703,0.11353 -0.52393,0.11353 -0.09091,0 -0.1788,-0.01172 -0.26134,-0.03418 C 14.19236,42.59828 11.8891,41.49965 9.80841,40.00917 9.54988,39.82387 9.42662,39.53773 9.36873,39.33021 8.42632,35.95179 6.11339,33.06263 3.02287,31.40321 2.83313,31.3014 2.581,31.11854 2.45726,30.82606 1.47926,28.51405 0.91713,26.0619 0.7865,23.53797 0.77351,23.28699 0.86592,23.01185 1.04668,22.7638 3.12807,19.90735 3.95487,16.27527 3.31507,12.79895 3.26012,12.50037 3.29548,12.21643 3.41466,11.99939 4.6268,9.79041 6.19709,7.82654 8.08202,6.16199 8.32117,5.95081 8.62911,5.89514 8.84511,5.88562 12.35668,5.73206 15.69899,4.12854 18.01517,1.48572 18.1577,1.32312 18.3936,1.1178 18.70774,1.06384 19.91984,0.85559 21.16222,0.75012 22.40043,0.75012 m 0,-0.75 c -1.30214,0 -2.57832,0.11133 -3.81961,0.32446 C 18.13658,0.401 17.74813,0.65246 17.45104,0.99157 15.26273,3.4884 12.13031,4.99133 8.81237,5.13635 8.36261,5.15613 7.92295,5.30188 7.58548,5.59998 5.64724,7.3114 4.01039,9.35462 2.75714,11.63855 c -0.21616,0.3938 -0.26102,0.85425 -0.17969,1.29614 0.60423,3.2832 -0.17113,6.6897 -2.13692,9.38745 -0.26611,0.36523 -0.42638,0.80322 -0.40303,1.25464 0.13786,2.66382 0.74008,5.20362 1.72902,7.54151 0.17482,0.41333 0.50638,0.73364 0.9017,0.9458 2.92095,1.56836 5.08759,4.27539 5.97809,7.46753 0.12053,0.43213 0.36067,0.82593 0.72531,1.08716 2.1162,1.51611 4.50704,2.67114 7.08409,3.37866 0.15114,0.0415 0.30553,0.06104 0.4599,0.06104 0.27769,0 0.55553,-0.06274 0.81529,-0.17236 1.51038,-0.63672 3.12221,-0.95483 4.7337,-0.95483 1.59702,0 3.19373,0.31226 4.69263,0.93677 0.25797,0.10767 0.53363,0.16895 0.80894,0.16895 0.15707,0 0.314,-0.02002 0.46758,-0.06274 2.62406,-0.73242 5.05235,-1.9314 7.19296,-3.50098 0.3483,-0.25537 0.57954,-0.63354 0.69945,-1.04834 0.89284,-3.08936 2.98249,-5.71216 5.79366,-7.2732 0.37823,-0.20996 0.6954,-0.52026 0.8662,-0.91772 1.04352,-2.42847 1.66922,-5.07788 1.7883,-7.85938 0.01852,-0.43262 -0.13245,-0.85254 -0.38205,-1.2063 C 42.5384,19.54066 41.7953,16.26991 42.33392,13.09901 42.40663,12.67103 42.36169,12.22694 42.15681,11.84413 40.88652,9.47084 39.20349,7.3517 37.20017,5.58656 36.87026,5.29579 36.44216,5.15101 36.00309,5.12733 32.74332,4.95228 29.67292,3.46815 27.51275,1.01917 27.21925,0.68641 26.83759,0.43836 26.40096,0.3595 25.10281,0.12463 23.76635,1.2e-4 22.40043,1.2e-4 Z"
   id="path956" />
	</g><path
   opacity="0.47"
   fill="#242424"
   d="m 22.40044,1.50012 c 1.24678,0 2.50301,0.11279 3.73368,0.33545 0.07452,0.01343 0.16705,0.07764 0.25372,0.17578 2.41368,2.73633 5.88892,4.41821 9.53479,4.61402 0.12497,0.00659 0.2319,0.03906 0.28595,0.08667 1.88365,1.65967 3.43998,3.62451 4.62584,5.84009 0.03372,0.06299 0.04144,0.17358 0.02071,0.29565 -0.60112,3.53882 0.24139,7.25122 2.31165,10.18555 0.07237,0.10254 0.11209,0.20361 0.10893,0.27734 -0.10883,2.54248 -0.66997,5.00904 -1.66789,7.3313 -0.02774,0.06445 -0.10835,0.13867 -0.21622,0.19824 -3.13848,1.74316 -5.50998,4.72022 -6.50637,8.16821 -0.03415,0.11792 -0.08864,0.21362 -0.14548,0.25537 -2.03593,1.49268 -4.29318,2.59131 -6.70934,3.26562 -0.01221,0.0034 -0.03326,0.0076 -0.06424,0.0076 -0.06584,0 -0.15021,-0.01953 -0.23206,-0.05371 -1.67552,-0.698 -3.44844,-1.052 -5.26947,-1.052 -1.839,0 -3.6277,0.36084 -5.31674,1.07275 -0.08203,0.03467 -0.1667,0.05444 -0.23227,0.05444 -0.02357,0 -0.04524,-0.0027 -0.06276,-0.0073 C 14.47692,41.8986 12.25376,40.8383 10.24537,39.39958 10.18289,39.35485 10.1267,39.25598 10.09116,39.12878 9.09415,35.55456 6.64716,32.49792 3.37744,30.7423 3.26131,30.68004 3.17766,30.60412 3.14799,30.5338 2.20414,28.3026 1.6616,25.93565 1.53547,23.49937 1.53251,23.442 1.56149,23.33067 1.65281,23.20542 3.85485,20.18345 4.72955,16.34092 4.05265,12.66318 4.02543,12.51523 4.04607,12.40756 4.07215,12.3602 5.24247,10.22739 6.75861,8.33115 8.57845,6.72421 8.63605,6.67318 8.74529,6.64071 8.87789,6.63485 12.59301,6.4725 16.12899,4.77572 18.57917,1.98006 18.6665,1.88045 18.75964,1.81575 18.83472,1.80306 20.00455,1.60193 21.20423,1.50012 22.40044,1.50012 m 0,-0.75 c -1.23822,0 -2.48059,0.10547 -3.69269,0.31372 -0.31415,0.05396 -0.55005,0.25928 -0.69257,0.42188 -2.31616,2.64282 -5.65851,4.24634 -9.17005,4.3999 -0.216,0.00952 -0.52399,0.06519 -0.76312,0.27637 -1.88495,1.66455 -3.4552,3.62842 -4.66736,5.8374 -0.1192,0.21704 -0.15454,0.50098 -0.09961,0.79956 0.63983,3.47632 -0.18695,7.1084 -2.26837,9.96485 -0.18073,0.24805 -0.27313,0.52319 -0.26019,0.77417 0.13068,2.52393 0.69281,4.97608 1.67078,7.28809 0.12372,0.29248 0.37585,0.47534 0.56561,0.57715 3.09052,1.65942 5.40344,4.54859 6.34589,7.927 0.05786,0.20752 0.18115,0.49365 0.43964,0.67896 2.08069,1.49048 4.38397,2.58911 6.84589,3.26514 0.08252,0.02246 0.17041,0.03418 0.26135,0.03418 0.16687,0 0.34808,-0.03931 0.52393,-0.11353 1.59595,-0.67261 3.28662,-1.01367 5.02509,-1.01367 1.72125,0 3.39716,0.33447 4.98102,0.99438 0.1748,0.073 0.35474,0.11133 0.52051,0.11133 0.09271,0 0.18225,-0.01172 0.26611,-0.03516 2.50342,-0.69873 4.8421,-1.83716 6.95093,-3.3833 0.24548,-0.18018 0.36523,-0.45386 0.42249,-0.65186 0.94189,-3.25928 3.18353,-6.07325 6.15003,-7.72071 0.1806,-0.1001 0.42102,-0.27832 0.5412,-0.55811 1.03394,-2.40601 1.61536,-4.96143 1.72809,-7.59522 0.01312,-0.30688 -0.12628,-0.573 -0.24554,-0.74194 -1.95673,-2.77344 -2.75311,-6.28247 -2.18494,-9.6272 0.03473,-0.20459 0.04578,-0.50513 -0.09894,-0.77539 C 40.26747,9.90343 38.65547,7.86828 36.70442,6.14928 36.47157,5.9442 36.17262,5.88756 35.96272,5.87633 32.51668,5.69127 29.2317,4.10167 26.95033,1.51525 26.8094,1.35558 26.57655,1.15343 26.26771,1.09753 24.99334,0.86707 23.69226,0.75012 22.40044,0.75012 Z"
   id="path960"
   style="fill:#484848;fill-opacity:1" /><path
   fill="#e3e3e3"
   d="m 23.46128,0.02557 h -2.11143 v 7.27744 c 0,0.45242 0.36676,0.81919 0.81919,0.81919 h 0.47305 c 0.45243,0 0.81919,-0.36676 0.81919,-0.81919 z"
   id="path964"
   style="fill:#151515;fill-opacity:0.78039217" />
</svg>
