<?xml version="1.0" encoding="utf-8"?>
<!-- Generator: Adobe Illustrator 26.0.2, SVG Export Plug-In . SVG Version: 6.00 Build 0)  -->
<svg xmlns:cc="http://creativecommons.org/ns#" xmlns:dc="http://purl.org/dc/elements/1.1/" xmlns:inkscape="http://www.inkscape.org/namespaces/inkscape" xmlns:rdf="http://www.w3.org/1999/02/22-rdf-syntax-ns#" xmlns:sodipodi="http://sodipodi.sourceforge.net/DTD/sodipodi-0.dtd" xmlns:svg="http://www.w3.org/2000/svg" xmlns="http://www.w3.org/2000/svg" xmlns:xlink="http://www.w3.org/1999/xlink" version="1.0" id="svg15246" x="0px" y="0px" width="44.80079px" height="44.79687px" viewBox="0 0 44.80079 44.79687" enable-background="new 0 0 44.80079 44.79687" xml:space="preserve">

<g>
	
		<linearGradient id="SVGID_1_" gradientUnits="userSpaceOnUse" x1="22.4004" y1="46" x2="22.4004" y2="1.1992" gradientTransform="matrix(1 0 0 -1 0 46)">
		<stop offset="0" style="stop-color:#8A8788"/>
		<stop offset="1" style="stop-color:#000000"/>
	</linearGradient>
	<circle fill="url(#SVGID_1_)" cx="22.4004" cy="22.4004" r="22.4004"/>
	
		<linearGradient id="SVGID_00000157998776411594966230000006975558204097982602_" gradientUnits="userSpaceOnUse" x1="22.4004" y1="46" x2="22.4004" y2="1.1992" gradientTransform="matrix(1 0 0 -1 0 46)">
		<stop offset="0" style="stop-color:#FFFFFF"/>
		<stop offset="1" style="stop-color:#858585"/>
	</linearGradient>
	<circle fill="url(#SVGID_00000157998776411594966230000006975558204097982602_)" cx="22.4004" cy="22.4004" r="22.4004"/>
	
		<linearGradient id="SVGID_00000032615319642195735370000009843746264451357851_" gradientUnits="userSpaceOnUse" x1="-1204.47253" y1="-510.70502" x2="-1204.47253" y2="-546.00085" gradientTransform="matrix(-1 0 0 -0.50871 -1182.06604 -255.72685)">
		<stop offset="0" style="stop-color:#FDFDFF"/>
		<stop offset="1" style="stop-color:#FCFEFF;stop-opacity:0"/>
	</linearGradient>
	
		<ellipse fill="url(#SVGID_00000032615319642195735370000009843746264451357851_)" enable-background="new    " cx="22.40646" cy="13.05159" rx="12.84752" ry="8.97767"/>
	
		<linearGradient id="SVGID_00000145758066686217829980000000130337216770548372_" gradientUnits="userSpaceOnUse" x1="-2257.68799" y1="1438.44751" x2="-2227.36499" y2="1438.44751" gradientTransform="matrix(0 -1 1 0 -1416.04712 -2220.12598)">
		<stop offset="0" style="stop-color:#FFFFFF"/>
		<stop offset="1" style="stop-color:#A8A8A8"/>
	</linearGradient>
	<circle fill="url(#SVGID_00000145758066686217829980000000130337216770548372_)" cx="22.40038" cy="22.4004" r="15.16154"/>
	
		<linearGradient id="SVGID_00000132071428624311427600000001186552423569489553_" gradientUnits="userSpaceOnUse" x1="22.40033" y1="9.68258" x2="22.40033" y2="37.51662" gradientTransform="matrix(1 0 0 -1 0 46)">
		<stop offset="0.00559" style="stop-color:#F2F2F2"/>
		<stop offset="1" style="stop-color:#D6D6D6"/>
	</linearGradient>
	
		<ellipse fill="url(#SVGID_00000132071428624311427600000001186552423569489553_)" cx="22.40033" cy="22.4004" rx="13.94376" ry="13.91702"/>
	<path opacity="0.1" enable-background="new    " d="M22.3976,22.4017l12.07801,6.97324   c1.22397-2.11998,1.86848-4.5253,1.86848-6.97324s-0.64451-4.85327-1.86848-6.97324L22.3976,22.4017z"/>
	<path opacity="0.1" enable-background="new    " d="M22.39762,22.4017l-12.07801-6.97324   c-1.22397,2.11998-1.86848,4.5253-1.86848,6.97324s0.64451,4.85327,1.86848,6.97324L22.39762,22.4017z"/>
	<path opacity="0.8" fill="#FFFFFF" enable-background="new    " d="M22.39753,22.39789L26.01889,35.9   c1.1811-0.31617,2.31563-0.78566,3.37457-1.39645c1.05894-0.61079,2.03318-1.35764,2.8978-2.22143L22.39753,22.39789z"/>
	<path opacity="0.8" fill="#FFFFFF" enable-background="new    " d="M22.3976,22.39798L18.79477,8.95201   c-1.17506,0.31485-2.30379,0.78239-3.35731,1.39064s-2.02279,1.35199-2.88298,2.21219L22.3976,22.39798z"/>
</g>
</svg>
