<?xml version="1.0" encoding="UTF-8" standalone="no"?>
<!-- Created with Inkscape (http://www.inkscape.org/) -->

<svg
   width="50.549999mm"
   height="128.55mm"
   viewBox="0 0 50.549999 128.55"
   version="1.1"
   id="svg1166"
   inkscape:version="1.1.1 (c3084ef, 2021-09-22)"
   sodipodi:docname="Logoi_drk.svg"
   xmlns:inkscape="http://www.inkscape.org/namespaces/inkscape"
   xmlns:sodipodi="http://sodipodi.sourceforge.net/DTD/sodipodi-0.dtd"
   xmlns="http://www.w3.org/2000/svg"
   xmlns:svg="http://www.w3.org/2000/svg">
  <sodipodi:namedview
     id="namedview1168"
     pagecolor="#ffffff"
     bordercolor="#666666"
     borderopacity="1.0"
     inkscape:pageshadow="2"
     inkscape:pageopacity="0.0"
     inkscape:pagecheckerboard="0"
     inkscape:document-units="mm"
     showgrid="false"
     inkscape:zoom="3.1108586"
     inkscape:cx="90.007306"
     inkscape:cy="151.88733"
     inkscape:window-width="2560"
     inkscape:window-height="1387"
     inkscape:window-x="2560"
     inkscape:window-y="25"
     inkscape:window-maximized="1"
     inkscape:current-layer="layer1" />
  <defs
     id="defs1163">
    <clipPath
       clipPathUnits="userSpaceOnUse"
       id="clipPath12741">
      <g
         transform="matrix(3.5433072,0,0,3.5433072,874.65065,451.94963)"
         style="fill:none;stroke:#cccccc;stroke-width:0.1"
         id="g12743">
        <g
           inkscape:label="#g5762"
           id="g12745">
          <rect
             id="rect12747"
             height="128.5"
             width="50.5"
             y="0"
             x="0"
             style="stroke-width:0.1" />
          <circle
             id="circle12749"
             r="1.6"
             cy="3"
             cx="7.5"
             style="stroke-width:0.1" />
          <circle
             id="circle12751"
             r="1.6"
             cy="125.5"
             cx="7.5"
             style="stroke-width:0.1" />
          <circle
             id="circle12753"
             r="1.6"
             cy="3"
             cx="43.060001"
             style="stroke-width:0.1" />
          <circle
             id="circle12755"
             r="1.6"
             cy="125.5"
             cx="43.060001"
             style="stroke-width:0.1" />
          <circle
             id="circle12757"
             r="4.5"
             cy="45.200001"
             cx="12.55"
             style="stroke-width:0.1" />
          <circle
             id="circle12759"
             r="4.5"
             cy="45.200001"
             cx="37.950001"
             style="stroke-width:0.1" />
          <circle
             id="circle12761"
             r="4.5"
             cy="26.15"
             cx="12.55"
             style="stroke-width:0.1" />
          <circle
             id="circle12763"
             r="4.5"
             cy="26.15"
             cx="37.950001"
             style="stroke-width:0.1" />
          <circle
             id="circle12765"
             r="1.5"
             cy="57.900002"
             cx="25.25"
             style="stroke-width:0.1" />
          <circle
             id="circle12767"
             r="1.5"
             cy="70.599998"
             cx="12.55"
             style="stroke-width:0.1" />
          <circle
             id="circle12769"
             r="1.5"
             cy="70.599998"
             cx="37.950001"
             style="stroke-width:0.1" />
          <circle
             id="circle12771"
             r="3"
             cy="70.599998"
             cx="25.25"
             style="stroke-width:0.1" />
          <circle
             id="circle12773"
             r="3"
             cy="83.300003"
             cx="12.55"
             style="stroke-width:0.1" />
          <circle
             id="circle12775"
             r="3"
             cy="83.300003"
             cx="37.950001"
             style="stroke-width:0.1" />
          <circle
             id="circle12777"
             r="3"
             cy="96"
             cx="12.55"
             style="stroke-width:0.1" />
          <circle
             id="circle12779"
             r="3"
             cy="96"
             cx="25.25"
             style="stroke-width:0.1" />
          <circle
             id="circle12781"
             r="3"
             cy="96"
             cx="37.950001"
             style="stroke-width:0.1" />
          <circle
             id="circle12783"
             r="3"
             cy="108.7"
             cx="12.55"
             style="stroke-width:0.1" />
          <circle
             id="circle12785"
             r="3"
             cy="108.7"
             cx="25.25"
             style="stroke-width:0.1" />
          <circle
             id="circle12787"
             r="3"
             cy="108.7"
             cx="37.950001"
             style="stroke-width:0.1" />
        </g>
      </g>
    </clipPath>
  </defs>
  <g
     inkscape:label="Layer 1"
     inkscape:groupmode="layer"
     id="layer1">
    <g
       id="g4383"
       style="display:inline;fill:#ffffff;stroke:#ff0000;stroke-width:0.05;fill-opacity:1"
       transform="translate(0.025,0.02499676)">
      <rect
         id="rect4385"
         height="128.5"
         width="50.5"
         y="0"
         x="0"
         style="fill:#171717;fill-opacity:1" />
    </g>
    <g
       id="g240"
       clip-path="url(#clipPath12741)"
       transform="matrix(0.28222223,0,0,0.28222223,-246.82061,-127.57536)"
       inkscape:export-xdpi="90"
       inkscape:export-ydpi="90"
       style="display:inline">
      <path
         d="m 1224.367,672.158 c 0,114.65 -93.271,207.588 -208.331,207.588 -115.062,0 -208.337,-92.938 -208.337,-207.588 0,-114.65 93.273,-207.587 208.337,-207.587 115.063,0 208.331,92.937 208.331,207.587 z"
         id="path242"
         inkscape:connector-curvature="0"
         style="fill:none;stroke:#cccccc;stroke-width:0.5" />
      <path
         d="m 1153.896,670.01 c 0,76.123 -61.707,137.83 -137.834,137.83 -76.122,0 -137.837,-61.707 -137.837,-137.83 0,-76.13 61.714,-137.84 137.837,-137.84 76.126,0.002 137.834,61.712 137.834,137.84 z"
         id="path244"
         inkscape:connector-curvature="0"
         style="fill:none;stroke:#cccccc;stroke-width:0.5" />
      <path
         d="m 1153.896,671.035 c 0,32.99 -61.707,59.739 -137.834,59.739 -76.122,0 -137.837,-26.749 -137.837,-59.739 0,-32.987 61.714,-59.733 137.837,-59.733 76.126,0 137.834,26.746 137.834,59.733 z"
         id="path246"
         inkscape:connector-curvature="0"
         style="fill:none;stroke:#cccccc;stroke-width:0.5" />
      <path
         d="m 1223.342,671.031 c 0,48.251 -93.04,87.372 -207.808,87.372 -114.771,0 -207.812,-39.121 -207.812,-87.372 0,-48.25 93.041,-87.364 207.812,-87.364 114.768,0 207.808,39.114 207.808,87.364 z"
         id="path248"
         inkscape:connector-curvature="0"
         style="fill:none;stroke:#cccccc;stroke-width:0.5" />
      <path
         d="m 1149.391,600.824 c 53.646,101.861 37.697,215.746 -35.639,254.373 -73.335,38.618 -176.271,-12.642 -229.923,-114.501 -53.648,-101.861 -37.69,-215.75 35.643,-254.376 73.336,-38.624 176.266,12.649 229.919,114.504 z"
         id="path250"
         inkscape:connector-curvature="0"
         style="fill:none;stroke:#cccccc;stroke-width:0.5" />
      <path
         d="m 1127.623,525.263 c 91.025,69.454 114.867,191.219 53.26,271.956 -61.623,80.744 -185.353,89.893 -276.376,20.428 -91.02,-69.462 -114.863,-191.224 -53.252,-271.961 61.612,-80.743 185.349,-89.885 276.368,-20.423 z"
         id="path252"
         inkscape:connector-curvature="0"
         style="fill:none;stroke:#cccccc;stroke-width:0.5" />
      <line
         x1="1070.578"
         y1="586.40503"
         x2="962.15002"
         y2="755.36902"
         id="line254"
         style="fill:none;stroke:#cccccc;stroke-width:0.5" />
      <line
         x1="852.229"
         y1="617.04498"
         x2="1181.282"
         y2="723.62903"
         id="line256"
         style="fill:none;stroke:#cccccc;stroke-width:0.5" />
      <line
         x1="1181.119"
         y1="723.41498"
         x2="815.89099"
         y2="646.98602"
         id="line258"
         style="fill:none;stroke:#cccccc;stroke-width:0.5" />
      <line
         x1="815.737"
         y1="646.51703"
         x2="1215.245"
         y2="694.13"
         id="line260"
         style="fill:none;stroke:#cccccc;stroke-width:0.5" />
      <line
         x1="1016.627"
         y1="670.10999"
         x2="1015.552"
         y2="480.17999"
         id="line262"
         style="fill:none;stroke:#cccccc;stroke-width:0.5" />
      <line
         x1="1015.052"
         y1="479.77301"
         x2="1079.218"
         y2="516.38599"
         id="line264"
         style="fill:none;stroke:#cccccc;stroke-width:0.5" />
      <line
         x1="1079.218"
         y1="516.38599"
         x2="1094.0699"
         y2="503.655"
         id="line266"
         style="fill:none;stroke:#cccccc;stroke-width:0.5" />
      <line
         x1="1094.0699"
         y1="503.655"
         x2="1016.1"
         y2="480.315"
         id="line268"
         style="fill:none;stroke:#cccccc;stroke-width:0.5" />
      <line
         x1="1094.0699"
         y1="503.655"
         x2="1158.259"
         y2="553.52197"
         id="line270"
         style="fill:none;stroke:#cccccc;stroke-width:0.5" />
      <line
         x1="1158.259"
         y1="553.52197"
         x2="1133.326"
         y2="574.20801"
         id="line272"
         style="fill:none;stroke:#cccccc;stroke-width:0.5" />
      <line
         x1="1133.326"
         y1="574.20801"
         x2="1079.218"
         y2="516.38599"
         id="line274"
         style="fill:none;stroke:#cccccc;stroke-width:0.5" />
      <line
         x1="1133.326"
         y1="574.20801"
         x2="1168.869"
         y2="647.41101"
         id="line276"
         style="fill:none;stroke:#cccccc;stroke-width:0.5" />
      <line
         x1="1168.869"
         y1="647.41101"
         x2="1200.938"
         y2="621.54602"
         id="line278"
         style="fill:none;stroke:#cccccc;stroke-width:0.5" />
      <line
         x1="1200.791"
         y1="620.96198"
         x2="1158.259"
         y2="553.52197"
         id="line280"
         style="fill:none;stroke:#cccccc;stroke-width:0.5" />
      <line
         x1="1016.807"
         y1="670.28998"
         x2="1193.269"
         y2="673.40002"
         id="line282"
         style="fill:none;stroke:#cccccc;stroke-width:0.5" />
      <line
         x1="1193.269"
         y1="673.40002"
         x2="1215.179"
         y2="695.04901"
         id="line284"
         style="fill:none;stroke:#cccccc;stroke-width:0.5" />
      <line
         x1="1201.0649"
         y1="621.66199"
         x2="1202.7061"
         y2="692.51599"
         id="line286"
         style="fill:none;stroke:#cccccc;stroke-width:0.5" />
      <line
         x1="1202.7061"
         y1="692.51599"
         x2="1169.567"
         y2="719.802"
         id="line288"
         style="fill:none;stroke:#cccccc;stroke-width:0.5" />
      <line
         x1="1169.401"
         y1="719.966"
         x2="1168.869"
         y2="647.41101"
         id="line290"
         style="fill:none;stroke:#cccccc;stroke-width:0.5" />
      <line
         x1="1168.869"
         y1="647.41101"
         x2="1181.447"
         y2="723.35999"
         id="line292"
         style="fill:none;stroke:#cccccc;stroke-width:0.5" />
      <line
         x1="1181.604"
         y1="723.26599"
         x2="1202.938"
         y2="692.57898"
         id="line294"
         style="fill:none;stroke:#cccccc;stroke-width:0.5" />
      <line
         x1="1193.269"
         y1="673.40002"
         x2="1181.604"
         y2="723.26599"
         id="line296"
         style="fill:none;stroke:#cccccc;stroke-width:0.5" />
    </g>
    <g
       id="g10555"
       transform="matrix(0.28222223,0,0,0.28222223,-79.537057,-138.04094)"
       style="display:inline;fill:#cccccc;fill-opacity:1">
      <path
         inkscape:export-ydpi="90"
         inkscape:export-xdpi="90"
         inkscape:export-filename="/Users/mars/devel/RebelTechnology/ClockDelay/drawings/g240.png"
         inkscape:connector-curvature="0"
         id="path328"
         d="m 296.96195,920.20541 -0.398,3.653 -0.361,-3.653 v -15.019 h 7.899 v 10.105 l -1.886,0.951 1.886,0.979 v 2.976 l -0.399,3.661 -0.36,-3.653 v -2.514 l -2.799,-1.474 2.799,-1.395 v -8.877 h -6.378 z m 4.76,-12.638 v 6.255 l -3.142,1.588 v -7.843 z m -2.779,16.292 -0.361,-3.64 v -3.089 l 3.142,1.603 v 1.469 l -0.399,3.657 -0.361,-3.653 v -1.01 l -1.616,-0.836 v 1.846 z m 2.016,-15.531 h -1.616 v 5.829 l 1.616,-0.814 z"
         style="fill:#cccccc;fill-opacity:1" />
      <path
         inkscape:export-ydpi="90"
         inkscape:export-xdpi="90"
         inkscape:export-filename="/Users/mars/devel/RebelTechnology/ClockDelay/drawings/g240.png"
         inkscape:connector-curvature="0"
         id="path330"
         d="m 314.01895,920.20541 -0.399,3.653 -0.361,-3.653 v -2.359 h -4.759 v -3.159 h 4.759 v -1.599 h -4.759 v -5.54 h 3.142 v 2.38 h 1.617 v -3.979 h -6.377 v 14.257 l -0.398,3.653 -0.361,-3.653 v -15.019 h 7.899 v 5.501 h -3.143 v -2.379 h -1.616 v 4.018 h 4.759 v 3.12 h -4.759 v 1.637 h 4.759 z"
         style="fill:#cccccc;fill-opacity:1" />
      <path
         inkscape:export-ydpi="90"
         inkscape:export-xdpi="90"
         inkscape:export-filename="/Users/mars/devel/RebelTechnology/ClockDelay/drawings/g240.png"
         inkscape:connector-curvature="0"
         id="path332"
         d="m 323.87695,920.20141 -0.399,3.657 -0.36,-3.651 v -4.89 l -2.789,-1.465 2.789,-1.396 v -6.51 h -6.377 v 14.257 l -0.398,3.653 -0.362,-3.653 v -15.019 h 7.899 v 7.737 l -1.877,0.948 1.877,0.975 z m -2.38,-12.634 v 3.875 l -3.142,1.589 v -5.464 z m 0,8.764 v 1.495 h -3.142 v -3.085 z m -0.762,-8.003 h -1.617 v 3.465 l 1.617,-0.816 z m 0,8.472 -1.617,-0.818 v 1.086 h 1.617 z"
         style="fill:#cccccc;fill-opacity:1" />
      <path
         inkscape:export-ydpi="90"
         inkscape:export-xdpi="90"
         inkscape:export-filename="/Users/mars/devel/RebelTechnology/ClockDelay/drawings/g240.png"
         inkscape:connector-curvature="0"
         id="path334"
         d="m 333.79295,920.20541 -0.399,3.653 -0.36,-3.653 v -2.359 h -4.76 v -3.159 h 4.76 v -1.599 h -4.76 v -5.54 h 3.142 v 2.38 h 1.618 v -3.979 h -6.377 v 14.257 l -0.399,3.653 -0.361,-3.653 v -15.019 h 7.899 v 5.501 h -3.143 v -2.379 h -1.616 v 4.018 h 4.759 v 3.12 h -4.759 v 1.637 h 4.759 z"
         style="fill:#cccccc;fill-opacity:1" />
      <path
         inkscape:export-ydpi="90"
         inkscape:export-xdpi="90"
         inkscape:export-filename="/Users/mars/devel/RebelTechnology/ClockDelay/drawings/g240.png"
         inkscape:connector-curvature="0"
         id="path336"
         d="m 341.27395,920.20541 -0.399,3.653 -0.36,-3.653 v -2.359 h -2.379 v -11.896 h -1.618 v 14.257 l -0.398,3.653 -0.362,-3.653 v -15.019 h 3.143 v 11.896 h 2.38 v 3.123 h -0.007 v 0 z"
         style="fill:#cccccc;fill-opacity:1" />
      <path
         inkscape:export-ydpi="90"
         inkscape:export-xdpi="90"
         inkscape:export-filename="/Users/mars/devel/RebelTechnology/ClockDelay/drawings/g240.png"
         inkscape:connector-curvature="0"
         id="path338"
         d="m 357.94595,920.20541 -0.4,3.653 -0.36,-3.653 v -12.658 h 2.38 v -1.599 h -6.377 v 1.599 h 2.379 v 12.658 l -0.397,3.653 -0.361,-3.653 v -11.896 h -2.38 v -3.122 h 7.899 v 3.122 h -2.38 z"
         style="fill:#cccccc;fill-opacity:1" />
      <path
         inkscape:export-ydpi="90"
         inkscape:export-xdpi="90"
         inkscape:export-filename="/Users/mars/devel/RebelTechnology/ClockDelay/drawings/g240.png"
         inkscape:connector-curvature="0"
         id="path340"
         d="m 369.99494,920.20541 -0.399,3.653 -0.36,-3.653 v -2.359 h -4.76 v -3.159 h 4.76 v -1.599 h -4.76 v -5.54 h 3.142 v 2.38 h 1.618 v -3.979 h -6.378 v 14.257 l -0.398,3.653 -0.36099,-3.653 v -15.019 h 7.89899 v 5.501 h -3.143 v -2.379 h -1.617 v 4.018 h 4.76 v 3.12 h -4.76 v 1.637 h 4.76 z"
         style="fill:#cccccc;fill-opacity:1" />
      <path
         inkscape:export-ydpi="90"
         inkscape:export-xdpi="90"
         inkscape:export-filename="/Users/mars/devel/RebelTechnology/ClockDelay/drawings/g240.png"
         inkscape:connector-curvature="0"
         id="path342"
         d="m 379.85594,920.20541 -0.399,3.653 -0.36,-3.653 v -4.737 h -1.618 v 2.378 h -3.142 v -10.298 h 3.142 v 2.38 h 1.618 v -3.979 h -6.377 v 14.257 l -0.398,3.653 -0.362,-3.653 v -15.019 h 7.9 v 5.501 h -3.144 v -2.379 h -1.616 v 8.772 h 1.616 v -2.379 h 3.144 z"
         style="fill:#cccccc;fill-opacity:1" />
      <path
         inkscape:export-ydpi="90"
         inkscape:export-xdpi="90"
         inkscape:export-filename="/Users/mars/devel/RebelTechnology/ClockDelay/drawings/g240.png"
         inkscape:connector-curvature="0"
         id="path344"
         d="m 389.67695,920.20541 -0.4,3.653 -0.36,-3.653 v -14.257 h -1.618 v 9.52 h -3.141 v -9.52 h -1.618 v 14.257 l -0.39801,3.653 -0.361,-3.653 v -15.019 h 3.14201 v 9.518 h 1.618 v -9.518 h 3.142 v 15.019 z m -2.381,0 -0.399,3.653 -0.359,-3.653 v -2.379 h -1.618 v 2.379 l -0.398,3.653 -0.361,-3.653 v -3.14 h 3.142 v 3.14 z"
         style="fill:#cccccc;fill-opacity:1" />
      <path
         inkscape:export-ydpi="90"
         inkscape:export-xdpi="90"
         inkscape:export-filename="/Users/mars/devel/RebelTechnology/ClockDelay/drawings/g240.png"
         inkscape:connector-curvature="0"
         id="path346"
         d="m 399.59395,920.20541 -0.399,3.653 -0.361,-3.653 v -14.257 h -1.639 v 8.762 l -3.018,-8.762 h -1.723 v 14.257 l -0.398,3.653 -0.362,-3.653 v -15.019 h 3.027 l 1.714,5.007 v -5.007 h 3.159 z m -2.266,-0.01 -0.402,3.663 -0.364,-3.653 -1.728,-5.007 v 5.007 l -0.398,3.653 -0.361,-3.653 v -9.477 z"
         style="fill:#cccccc;fill-opacity:1" />
      <path
         inkscape:export-ydpi="90"
         inkscape:export-xdpi="90"
         inkscape:export-filename="/Users/mars/devel/RebelTechnology/ClockDelay/drawings/g240.png"
         inkscape:connector-curvature="0"
         id="path348"
         d="m 409.50995,920.20541 -0.399,3.653 -0.361,-3.653 v -14.257 h -6.377 v 14.257 l -0.398,3.653 -0.361,-3.653 v -15.019 h 7.899 z m -2.381,-12.638 v 10.26 h -3.141 v -10.26 z m -0.761,0.761 h -1.618 v 8.737 h 1.618 z"
         style="fill:#cccccc;fill-opacity:1" />
      <path
         inkscape:export-ydpi="90"
         inkscape:export-xdpi="90"
         inkscape:export-filename="/Users/mars/devel/RebelTechnology/ClockDelay/drawings/g240.png"
         inkscape:connector-curvature="0"
         id="path350"
         d="m 417.04795,920.20541 -0.4,3.653 -0.36,-3.653 v -2.359 h -2.38 v -11.896 h -1.618 v 14.257 l -0.397,3.653 -0.361,-3.653 v -15.019 h 3.141 v 11.896 h 2.381 v 3.123 h -0.006 v 0 z"
         style="fill:#cccccc;fill-opacity:1" />
      <path
         inkscape:export-ydpi="90"
         inkscape:export-xdpi="90"
         inkscape:export-filename="/Users/mars/devel/RebelTechnology/ClockDelay/drawings/g240.png"
         inkscape:connector-curvature="0"
         id="path352"
         d="m 426.58295,920.20541 -0.399,3.653 -0.36,-3.653 v -14.257 h -6.377 v 14.257 l -0.399,3.653 -0.361,-3.653 v -15.019 h 7.899 z m -2.38,-12.638 v 10.26 h -3.142 v -10.26 z m -0.76,0.761 h -1.616 v 8.737 h 1.616 z"
         style="fill:#cccccc;fill-opacity:1" />
      <path
         inkscape:export-ydpi="90"
         inkscape:export-xdpi="90"
         inkscape:export-filename="/Users/mars/devel/RebelTechnology/ClockDelay/drawings/g240.png"
         inkscape:connector-curvature="0"
         id="path354"
         d="m 436.49894,920.20541 -0.399,3.653 -0.36,-3.653 v -7.117 h -1.61799 v 4.758 h -3.142 v -10.297 h 3.142 v 2.379 h 1.61799 v -3.979 h -6.37699 v 14.257 l -0.399,3.653 -0.361,-3.653 v -15.019 h 7.89899 v 5.501 h -3.14299 v -2.379 h -1.616 v 8.772 h 1.616 v -4.757 h 3.14299 z"
         style="fill:#cccccc;fill-opacity:1" />
      <path
         inkscape:export-ydpi="90"
         inkscape:export-xdpi="90"
         inkscape:export-filename="/Users/mars/devel/RebelTechnology/ClockDelay/drawings/g240.png"
         inkscape:connector-curvature="0"
         id="path356"
         d="m 446.37795,920.20541 -0.399,3.653 -0.36001,-3.653 v -14.257 h -1.618 v 7.139 h -3.142 v -7.139 h -1.61699 v 8.736 h 4.759 v 3.159 h -4.759 v 2.359 l -0.398,3.653 -0.362,-3.653 v -3.122 h 4.76 v -1.637 h -4.76 v -10.26 h 3.143 v 7.14 h 1.616 v -7.14 h 3.144 v 15.02 h -0.007 v 0 z"
         style="fill:#cccccc;fill-opacity:1" />
    </g>
    <path
       d="m 12.299842,44.945885 c 0,0 -15.5992696,14.485332 0,38.070636"
       id="path372"
       inkscape:connector-curvature="0"
       style="display:inline;fill:none;stroke:#cccccc;stroke-width:0.564444;stroke-linecap:round"
       inkscape:export-filename="/Users/mars/devel/RebelTechnology/ClockDelay/drawings/g240.png"
       inkscape:export-xdpi="90"
       inkscape:export-ydpi="90" />
    <path
       d="m 38.380279,44.945885 c 0,0 15.599269,14.485332 0,38.070636"
       id="path374"
       inkscape:connector-curvature="0"
       style="display:inline;fill:none;stroke:#cccccc;stroke-width:0.564444;stroke-linecap:round"
       inkscape:export-filename="/Users/mars/devel/RebelTechnology/ClockDelay/drawings/g240.png"
       inkscape:export-xdpi="90"
       inkscape:export-ydpi="90" />
    <path
       d="M 12.520822,70.395542"
       id="path376"
       inkscape:connector-curvature="0"
       style="display:inline;fill:none;stroke:#cccccc;stroke-width:0.564444;stroke-linecap:round"
       inkscape:export-filename="/Users/mars/devel/RebelTechnology/ClockDelay/drawings/g240.png"
       inkscape:export-xdpi="90"
       inkscape:export-ydpi="90" />
    <polyline
       points="899.681,642.148 890.434,656.964 899.845,659.61 "
       id="polyline398"
       transform="matrix(0.22078956,-0.17578782,0.17578782,0.22078956,-304.7234,88.401524)"
       inkscape:export-filename="/Users/mars/devel/RebelTechnology/ClockDelay/drawings/g240.png"
       inkscape:export-xdpi="90"
       inkscape:export-ydpi="90"
       style="display:inline;fill:#cccccc" />
    <path
       d="M 30.189346,99.090488"
       id="path418"
       inkscape:connector-curvature="0"
       inkscape:export-filename="/Users/mars/devel/RebelTechnology/ClockDelay/drawings/g240.png"
       inkscape:export-xdpi="90"
       inkscape:export-ydpi="90"
       style="display:inline;stroke-width:0.282222" />
    <g
       id="g1232"
       transform="matrix(0.28222223,0,0,0.28222223,-221.49428,-129.24011)"
       style="display:inline;fill:#cccccc;fill-opacity:1;stroke:#cccccc;stroke-width:0.6;stroke-miterlimit:4;stroke-dasharray:none;stroke-opacity:1"
       inkscape:export-filename="/Users/mars/devel/RebelTechnology/ClockDelay/drawings/g240.png"
       inkscape:export-xdpi="90"
       inkscape:export-ydpi="90">
      <path
         d="m 924.434,504.724 c 0.101,0.096 0.19,0.181 0.273,0.255 0.055,0.099 0.033,0.196 -0.061,0.294 -0.095,0.097 -0.191,0.173 -0.29,0.229 -0.071,0.037 -0.155,0.064 -0.252,0.08 -0.098,0.019 -0.18,0.03 -0.248,0.04 -0.017,0.036 -0.038,0.065 -0.062,0.09 -0.025,0.021 -0.052,0.042 -0.08,0.057 -0.093,0.051 -0.229,0.036 -0.41,-0.044 -0.182,-0.079 -0.372,-0.092 -0.571,-0.037 -0.21,-0.032 -0.365,-0.054 -0.462,-0.062 -0.315,-0.039 -0.497,-0.054 -0.545,-0.04 -0.049,0.014 -0.103,0.017 -0.16,0.012 -0.059,-0.005 -0.103,-0.006 -0.133,-0.003 -0.031,0.003 -0.103,0.026 -0.215,0.075 -0.11,0.048 -0.183,0.072 -0.21,0.078 -0.028,0.009 -0.082,-10e-4 -0.157,-0.021 -0.077,-0.022 -0.118,-0.031 -0.125,-0.027 -0.429,0.061 -0.659,0.09 -0.696,0.091 -0.126,0.007 -0.22,-0.018 -0.283,-0.062 l -0.1,0.095 c -0.031,-0.057 -0.094,-0.086 -0.188,-0.09 -0.291,0.021 -0.555,0.032 -0.792,0.033 -0.237,0.002 -0.462,0.005 -0.674,0.011 -0.212,0.006 -0.343,0.021 -0.393,0.049 -0.031,-0.057 -0.125,-0.097 -0.285,-0.12 -0.159,-0.021 -0.265,-0.057 -0.315,-0.102 -0.208,-0.18 -0.404,-0.22 -0.587,-0.119 -0.017,0.035 -0.029,0.062 -0.04,0.076 -0.052,0.073 -0.112,0.13 -0.183,0.168 -0.12,0.066 -0.252,0.06 -0.396,-0.018 -0.144,-0.078 -0.311,-0.065 -0.5,0.037 l -0.052,0.028 c -0.114,0.062 -0.269,0.077 -0.464,0.047 -0.194,-0.03 -0.331,-0.117 -0.407,-0.259 -0.047,-0.085 -0.053,-0.193 -0.021,-0.325 0.033,-0.133 0.099,-0.226 0.197,-0.277 0.07,-0.038 0.17,-0.059 0.3,-0.056 0.13,0.002 0.203,0.003 0.222,0.003 0.084,-0.046 0.169,-0.092 0.254,-0.139 0.062,0.013 0.175,0.011 0.341,-0.006 0.092,-0.017 0.188,-0.025 0.283,-0.032 0.029,0.003 0.111,0.023 0.248,0.064 0.138,0.04 0.256,0.062 0.361,0.068 0.256,0.018 0.444,0.021 0.565,0.007 0.058,-0.012 0.125,-0.021 0.207,-0.021 0.08,-0.004 0.186,0.02 0.312,0.069 0.128,0.049 0.206,0.073 0.234,0.075 0.104,0.01 0.175,-10e-4 0.212,-0.024 0.037,-0.024 0.073,-0.046 0.107,-0.065 0.098,-0.007 0.168,-0.001 0.216,0.021 0.048,0.02 0.096,0.029 0.142,0.031 0.048,0.004 0.076,-0.008 0.089,-0.026 0.012,-0.021 0.025,-0.03 0.045,-0.031 0.123,0.025 0.236,0.026 0.345,0.004 0.092,-0.032 0.189,-0.062 0.293,-0.091 l 1.251,0.004 1.033,-0.041 c 0.059,-0.014 0.216,-0.004 0.478,0.028 0.26,0.032 0.429,0.025 0.506,-0.018 0.034,-0.037 0.066,-0.066 0.1,-0.095 0.031,-0.026 0.051,-0.05 0.058,-0.072 l 0.481,-0.05 0.715,0.094 z"
         id="path1234"
         inkscape:connector-curvature="0"
         style="fill:#cccccc;fill-opacity:1;stroke:#cccccc;stroke-width:0.6;stroke-miterlimit:4;stroke-dasharray:none;stroke-opacity:1" />
      <path
         d="m 918.891,500.73 c 0.095,-0.103 0.179,-0.194 0.25,-0.278 0.099,-0.056 0.195,-0.036 0.295,0.058 0.099,0.093 0.176,0.188 0.231,0.287 0.039,0.068 0.068,0.151 0.086,0.25 0.02,0.097 0.032,0.179 0.043,0.245 0.037,0.018 0.066,0.036 0.089,0.062 0.022,0.024 0.043,0.051 0.059,0.078 0.053,0.092 0.04,0.229 -0.036,0.411 -0.077,0.183 -0.086,0.373 -0.027,0.571 -0.029,0.212 -0.049,0.365 -0.058,0.465 -0.033,0.313 -0.043,0.498 -0.03,0.546 0.015,0.048 0.019,0.102 0.015,0.157 -0.004,0.061 -0.004,0.104 -10e-4,0.135 0.003,0.028 0.03,0.102 0.079,0.213 0.049,0.108 0.078,0.181 0.084,0.209 0.007,0.029 0,0.082 -0.021,0.158 -0.021,0.075 -0.03,0.117 -0.025,0.126 0.065,0.427 0.1,0.655 0.103,0.692 0.007,0.126 -0.015,0.223 -0.062,0.284 l 0.097,0.098 c -0.057,0.032 -0.085,0.097 -0.087,0.188 0.024,0.291 0.041,0.554 0.047,0.791 0.005,0.237 0.012,0.462 0.021,0.673 0.01,0.212 0.028,0.343 0.056,0.392 -0.057,0.032 -0.095,0.129 -0.114,0.286 -0.021,0.16 -0.054,0.268 -0.097,0.318 -0.178,0.21 -0.214,0.407 -0.109,0.589 0.036,0.016 0.062,0.028 0.077,0.039 0.073,0.05 0.132,0.11 0.171,0.179 0.067,0.12 0.062,0.252 -0.013,0.396 -0.075,0.144 -0.061,0.311 0.048,0.5 l 0.028,0.052 c 0.063,0.112 0.081,0.266 0.054,0.462 -0.027,0.195 -0.111,0.333 -0.25,0.412 -0.084,0.047 -0.192,0.056 -0.325,0.025 -0.134,-0.032 -0.228,-0.098 -0.283,-0.194 -0.04,-0.069 -0.058,-0.169 -0.058,-0.298 0,-0.13 0,-0.204 0,-0.222 -0.049,-0.085 -0.097,-0.171 -0.145,-0.254 0.012,-0.062 0.008,-0.175 -0.012,-0.34 -0.017,-0.092 -0.028,-0.187 -0.037,-0.281 0.002,-0.029 0.021,-0.112 0.061,-0.249 0.038,-0.14 0.06,-0.26 0.063,-0.362 0.012,-0.256 0.012,-0.445 -10e-4,-0.567 -0.014,-0.056 -0.022,-0.124 -0.025,-0.205 -0.006,-0.081 0.017,-0.186 0.063,-0.312 0.047,-0.128 0.071,-0.207 0.073,-0.235 0.006,-0.104 -0.004,-0.175 -0.029,-0.211 -0.024,-0.037 -0.047,-0.073 -0.067,-0.105 -0.009,-0.1 -0.004,-0.169 0.017,-0.219 0.021,-0.048 0.029,-0.096 0.031,-0.143 0.002,-0.047 -0.009,-0.075 -0.028,-0.087 -0.021,-0.012 -0.031,-0.025 -0.032,-0.045 0.022,-0.123 0.021,-0.238 -10e-4,-0.347 -0.034,-0.092 -0.064,-0.188 -0.097,-0.292 l -0.018,-1.251 -0.058,-1.031 c -0.016,-0.06 -0.009,-0.218 0.021,-0.479 0.027,-0.26 0.021,-0.428 -0.022,-0.506 -0.038,-0.033 -0.069,-0.064 -0.098,-0.098 -0.025,-0.03 -0.052,-0.049 -0.072,-0.057 l -0.059,-0.479 0.082,-0.717 z"
         id="path1236"
         inkscape:connector-curvature="0"
         style="fill:#cccccc;fill-opacity:1;stroke:#cccccc;stroke-width:0.6;stroke-miterlimit:4;stroke-dasharray:none;stroke-opacity:1" />
    </g>
    <g
       id="g1238"
       transform="matrix(0.28222223,0,0,0.28222223,-272.26927,-129.24011)"
       style="display:inline;fill:#cccccc;fill-opacity:1;stroke:#cccccc;stroke-width:0.6;stroke-miterlimit:4;stroke-dasharray:none;stroke-opacity:1"
       inkscape:export-filename="/Users/mars/devel/RebelTechnology/ClockDelay/drawings/g240.png"
       inkscape:export-xdpi="90"
       inkscape:export-ydpi="90">
      <path
         d="m 1014.22,505.804 c -0.088,0.043 -0.213,0.066 -0.371,0.073 -0.146,-0.009 -0.287,-0.013 -0.422,-0.014 -0.141,0.019 -0.291,0.019 -0.451,0.002 -0.159,-0.015 -0.301,-0.024 -0.422,-0.03 -0.12,-0.008 -0.272,0.011 -0.461,0.051 -0.188,0.039 -0.292,0.062 -0.314,0.068 -0.22,0.032 -0.416,0.048 -0.59,0.046 -0.176,-0.005 -0.354,-0.007 -0.543,-0.01 -0.046,-0.096 -0.092,-0.137 -0.139,-0.124 -0.095,0.056 -0.19,0.098 -0.293,0.126 -0.093,0.028 -0.193,0.043 -0.304,0.049 -0.107,0.004 -0.245,-0.019 -0.411,-0.061 -0.125,-0.021 -0.271,-0.033 -0.436,-0.034 -0.166,-0.001 -0.396,0.022 -0.696,0.07 -0.066,0.003 -0.146,-0.021 -0.242,-0.066 -0.096,-0.048 -0.167,-0.066 -0.216,-0.062 -0.13,-0.012 -0.328,0.001 -0.592,0.039 -0.264,0.037 -0.426,0.056 -0.483,0.057 -0.197,-0.008 -0.391,-0.018 -0.579,-0.028 -0.019,-0.003 -0.079,0.017 -0.182,0.057 -0.104,0.039 -0.17,0.059 -0.204,0.061 -0.399,0.021 -0.624,0.029 -0.67,0.031 -0.046,10e-4 -0.177,-0.004 -0.393,-0.016 -0.278,0 -0.562,0 -0.85,0.003 -0.1,-0.021 -0.183,-0.143 -0.248,-0.357 0.01,-0.035 0.012,-0.073 0.018,-0.113 0,-0.039 0,-0.086 -0.018,-0.141 -0.035,-0.116 -0.076,-0.195 -0.122,-0.236 -0.046,-0.041 -0.064,-0.074 -0.058,-0.104 0.041,-0.004 0.079,-0.037 0.11,-0.097 0.032,-0.062 0.073,-0.097 0.122,-0.103 0.099,-0.013 0.218,-0.01 0.358,0.006 0.411,0.045 0.666,0.066 0.769,0.062 0.101,-0.005 0.207,-0.003 0.319,0.005 0.358,0.036 0.557,0.052 0.594,0.049 0.037,-0.003 0.096,-0.016 0.173,-0.04 0.125,-0.038 0.215,-0.062 0.269,-0.081 0.022,-0.007 0.048,-0.014 0.07,-0.021 0.034,0.006 0.069,0.007 0.104,0.005 0.032,-0.002 0.151,0.011 0.354,0.039 0.125,0.02 0.214,0.025 0.268,0.021 0.055,-0.004 0.102,-0.013 0.14,-0.022 0.108,-0.033 0.177,-0.048 0.202,-0.048 l 0.896,0.061 0.602,0.009 c 0.117,-10e-4 0.206,-0.007 0.263,-0.016 0.243,-0.006 0.409,-0.02 0.498,-0.036 0.115,-0.009 0.236,-0.01 0.362,-0.001 0.126,0.009 0.244,0.017 0.356,0.025 l 0.646,-0.007 c 0.118,-0.025 0.238,-0.051 0.359,-0.068 0.111,0.008 0.255,0.016 0.427,0.021 0.021,0.003 0.209,0.005 0.574,0.005 0.094,0.031 0.188,0.062 0.283,0.095 0.018,0.003 0.07,-0.015 0.161,-0.05 0.093,-0.036 0.154,-0.056 0.188,-0.058 0.096,-0.021 0.187,-0.039 0.271,-0.056 0.084,-0.019 0.198,-0.031 0.345,-0.041 0.146,-0.01 0.254,-0.017 0.326,-0.018 0.071,0 0.163,0.033 0.276,0.103 0.01,0.015 0.01,0.055 0,0.119 0,0.062 0.015,0.146 0.043,0.248 0.021,0.062 0.047,0.106 0.082,0.14 0.037,0.031 0.08,0.064 0.136,0.1 0.028,0.102 0.053,0.18 0.067,0.232 0.021,0.07 0.01,0.112 -0.037,0.126 -0.048,0.022 -0.147,0.005 -0.288,-0.045 z"
         id="path1240"
         inkscape:connector-curvature="0"
         style="fill:#cccccc;fill-opacity:1;stroke:#cccccc;stroke-width:0.6;stroke-miterlimit:4;stroke-dasharray:none;stroke-opacity:1" />
      <path
         d="m 1009.659,510.34 c -0.087,0.031 -0.149,0.05 -0.189,0.05 -0.065,0 -0.117,-0.004 -0.149,-0.01 -0.101,-0.027 -0.186,-0.051 -0.255,-0.066 -0.07,-0.016 -0.134,-0.041 -0.19,-0.074 -0.057,-0.034 -0.118,-0.084 -0.185,-0.149 -0.01,-0.009 -0.032,-0.021 -0.075,-0.04 -0.043,-0.021 -0.064,-0.059 -0.064,-0.11 -0.086,-0.161 -0.131,-0.325 -0.131,-0.493 0,-0.04 0.01,-0.094 0.021,-0.16 0.033,-0.188 0.117,-0.353 0.25,-0.493 0.021,0.009 0.043,0.014 0.065,0.017 0.022,0.004 0.042,-0.035 0.055,-0.115 0.105,-0.087 0.221,-0.145 0.341,-0.171 0.054,0 0.095,0 0.121,0 0.116,0 0.241,0.021 0.378,0.06 0.021,-0.006 0.048,0.01 0.081,0.041 0.055,0.021 0.097,0.039 0.128,0.062 0.03,0.021 0.079,0.06 0.147,0.12 0.088,0.1 0.135,0.151 0.144,0.16 0.032,0.06 0.054,0.1 0.062,0.117 -0.021,0.021 -0.03,0.041 -0.03,0.062 0,0.02 0.018,0.029 0.052,0.029 0.032,0.021 0.05,0.051 0.05,0.091 0,0.054 0,0.087 0,0.101 0,0.061 -0.013,0.117 -0.035,0.174 -0.022,0.059 -0.049,0.119 -0.073,0.188 -0.01,0.053 -0.017,0.104 -0.024,0.16 -0.011,0.053 -0.028,0.1 -0.056,0.14 l -0.102,0.07 c -0.106,0.087 -0.217,0.17 -0.337,0.239 z"
         id="path1242"
         inkscape:connector-curvature="0"
         style="fill:#cccccc;fill-opacity:1;stroke:#cccccc;stroke-width:0.6;stroke-miterlimit:4;stroke-dasharray:none;stroke-opacity:1" />
      <path
         d="m 1009.635,502.673 c -0.087,0.031 -0.149,0.05 -0.189,0.05 -0.066,0 -0.117,-0.003 -0.15,-0.01 -0.1,-0.027 -0.185,-0.051 -0.255,-0.065 -0.069,-0.017 -0.134,-0.042 -0.189,-0.076 -0.058,-0.033 -0.117,-0.083 -0.186,-0.148 -0.01,-0.009 -0.031,-0.021 -0.074,-0.041 -0.044,-0.021 -0.064,-0.059 -0.064,-0.11 -0.087,-0.161 -0.131,-0.325 -0.131,-0.493 0,-0.041 0.01,-0.094 0.021,-0.161 0.033,-0.188 0.116,-0.352 0.25,-0.493 0.021,0.009 0.042,0.014 0.065,0.017 0.022,0.003 0.042,-0.035 0.055,-0.115 0.106,-0.087 0.221,-0.145 0.34,-0.171 0.055,0 0.096,0 0.122,0 0.115,0 0.241,0.02 0.377,0.06 0.021,-0.006 0.049,0.009 0.081,0.04 0.056,0.021 0.099,0.04 0.128,0.062 0.03,0.02 0.079,0.06 0.147,0.12 0.088,0.1 0.136,0.151 0.143,0.16 0.034,0.06 0.056,0.1 0.062,0.118 -0.021,0.021 -0.03,0.04 -0.03,0.062 0,0.02 0.018,0.03 0.051,0.03 0.033,0.02 0.051,0.05 0.051,0.09 0,0.053 0,0.086 0,0.1 0,0.062 -0.013,0.118 -0.035,0.175 -0.022,0.059 -0.048,0.118 -0.074,0.187 -0.01,0.053 -0.016,0.104 -0.025,0.16 -0.01,0.053 -0.026,0.1 -0.055,0.14 l -0.101,0.07 c -0.105,0.09 -0.215,0.173 -0.335,0.242 z"
         id="path1244"
         inkscape:connector-curvature="0"
         style="fill:#cccccc;fill-opacity:1;stroke:#cccccc;stroke-width:0.6;stroke-miterlimit:4;stroke-dasharray:none;stroke-opacity:1" />
    </g>
    <g
       id="g1271"
       transform="matrix(0.49504006,0,0,0.49504006,-423.48323,-231.14287)"
       inkscape:export-filename="/Users/mars/devel/RebelTechnology/ClockDelay/drawings/g240.png"
       inkscape:export-xdpi="90"
       inkscape:export-ydpi="90"
       style="display:inline;fill:#cccccc;fill-opacity:1">
      <path
         id="path11422_1_"
         d="m 921.08,477.848 c -0.078,0.139 -0.155,0.145 -0.345,0.021 -0.077,-0.05 -0.143,-0.072 -0.143,-0.054 -10e-4,0.05 -0.294,0.348 -0.341,0.347 -0.062,-10e-4 -0.071,0.109 -0.093,1.278 -0.019,1.022 -0.012,1.147 0.059,1.299 0.043,0.093 0.091,0.197 0.106,0.233 0.017,0.036 0.023,0.493 0.019,1.016 -0.007,0.523 -10e-4,1.016 0.012,1.091 0.014,0.077 0.002,0.182 -0.026,0.229 -0.036,0.067 -0.038,0.132 -10e-4,0.26 0.042,0.148 0.063,0.17 0.172,0.173 0.087,0.001 0.164,0.051 0.267,0.165 0.309,0.35 0.071,0.556 -0.467,0.403 -0.203,-0.056 -0.345,-0.068 -0.604,-0.047 -0.426,0.032 -0.624,0.021 -0.893,-0.047 -0.117,-0.031 -0.229,-0.051 -0.25,-0.045 -0.072,0.019 -0.193,-0.141 -0.191,-0.253 0.003,-0.198 0.124,-0.29 0.419,-0.324 0.146,-0.02 0.282,-0.045 0.3,-0.062 0.051,-0.048 0.052,-1.266 0.005,-2.727 -0.024,-0.728 -0.041,-1.579 -0.038,-1.896 0.004,-0.313 -0.008,-0.595 -0.023,-0.622 -0.018,-0.024 -0.071,-0.067 -0.119,-0.096 -0.052,-0.025 -0.101,-0.104 -0.113,-0.174 -0.021,-0.119 -0.032,-0.125 -0.301,-0.147 -0.32,-0.024 -0.431,-0.102 -0.387,-0.268 0.022,-0.083 0.069,-0.113 0.232,-0.147 0.11,-0.021 0.259,-0.041 0.329,-0.034 0.07,0.004 0.286,-0.023 0.479,-0.062 0.27,-0.05 0.493,-0.06 0.938,-0.038 0.531,0.026 0.602,0.04 0.793,0.146 0.188,0.104 0.274,0.185 0.271,0.245 0,0.013 -0.03,0.074 -0.066,0.137 z"
         inkscape:connector-curvature="0"
         style="fill:#cccccc;fill-opacity:1" />
      <g
         id="g1274"
         style="fill:#cccccc;fill-opacity:1">
        <g
           id="g1276"
           style="fill:#cccccc;fill-opacity:1">
          <path
             d="m 917.1,479.689 c -0.066,-0.088 -0.148,-0.354 -0.146,-0.486 0.002,-0.107 -0.025,-0.194 -0.203,-0.609 -0.146,-0.353 -0.687,-0.847 -1.021,-0.938 -0.071,-0.02 -0.243,-0.08 -0.38,-0.134 -0.165,-0.065 -0.302,-0.092 -0.411,-0.079 -0.111,0.013 -0.252,-0.015 -0.451,-0.093 -0.22,-0.085 -0.4,-0.119 -0.767,-0.145 l -0.479,-0.029 -0.218,0.13 c -0.118,0.071 -0.238,0.129 -0.265,0.128 -0.025,0 -0.254,0.203 -0.505,0.451 -0.252,0.248 -0.508,0.486 -0.566,0.533 -0.26,0.194 -0.453,0.626 -0.621,1.381 -0.08,0.359 -0.087,0.47 -0.058,0.871 0.06,0.777 0.157,1.171 0.438,1.771 0.204,0.437 0.478,0.849 0.562,0.853 0.093,0.002 0.437,0.287 0.603,0.505 0.343,0.444 0.916,0.707 1.328,0.601 0.094,-0.022 0.164,-0.023 0.178,-10e-4 0.04,0.065 0.309,0.049 0.458,-0.027 0.076,-0.04 0.332,-0.213 0.571,-0.385 0.235,-0.171 0.567,-0.398 0.738,-0.509 0.327,-0.208 0.791,-0.665 0.793,-0.781 10e-4,-0.038 0.053,-0.135 0.112,-0.215 0.259,-0.334 0.446,-0.896 0.505,-1.499 0.065,-0.693 0.017,-1.018 -0.195,-1.294 z m -1.188,1.486 c -0.131,1.077 -0.358,1.584 -0.976,2.167 -0.555,0.525 -0.808,0.625 -1.278,0.495 -0.438,-0.123 -0.521,-0.176 -0.724,-0.473 -0.269,-0.39 -0.55,-1.016 -0.546,-1.215 0,-0.038 -0.046,-0.221 -0.104,-0.406 -0.087,-0.282 -0.104,-0.414 -0.094,-0.83 0.005,-0.308 0.034,-0.59 0.079,-0.748 0.039,-0.139 0.092,-0.451 0.116,-0.694 0.025,-0.243 0.066,-0.516 0.093,-0.604 0.07,-0.248 0.393,-0.727 0.591,-0.881 0.352,-0.271 0.417,-0.296 0.801,-0.308 0.346,-0.012 0.367,-0.007 0.472,0.102 0.062,0.062 0.23,0.156 0.379,0.208 0.147,0.052 0.315,0.128 0.374,0.17 0.059,0.043 0.188,0.094 0.289,0.112 0.147,0.027 0.199,0.062 0.274,0.19 0.133,0.222 0.195,0.479 0.229,0.945 0.042,0.498 0.053,1.537 0.025,1.77 z"
             id="path1278"
             inkscape:connector-curvature="0"
             style="fill:#cccccc;fill-opacity:1" />
        </g>
      </g>
      <path
         id="path11400_1_"
         d="m 910.774,477.548 c -0.021,0.012 -0.031,0.166 -0.025,0.342 0.006,0.176 -0.008,0.354 -0.03,0.394 -0.021,0.042 -0.03,0.209 -0.02,0.373 0.02,0.249 0.008,0.326 -0.062,0.458 -0.047,0.086 -0.118,0.157 -0.156,0.156 -0.096,-0.001 -0.209,-0.139 -0.206,-0.251 0,-0.05 -0.021,-0.227 -0.046,-0.391 -0.036,-0.24 -0.061,-0.302 -0.122,-0.303 -0.041,-0.001 -0.174,-0.042 -0.297,-0.091 -0.157,-0.062 -0.397,-0.104 -0.838,-0.141 -0.339,-0.028 -0.767,-0.083 -0.949,-0.123 -0.477,-0.104 -0.615,-0.098 -0.661,0.019 -0.067,0.169 -0.197,1.313 -0.208,1.837 -0.034,1.601 -0.031,3.55 0.006,3.66 0.033,0.105 0.069,0.134 0.208,0.159 0.249,0.045 0.702,0.18 0.828,0.247 0.134,0.071 0.187,0.272 0.087,0.345 -0.036,0.027 -0.089,0.04 -0.117,0.029 -0.027,-0.012 -0.203,0.01 -0.391,0.049 -0.268,0.055 -0.522,0.066 -1.193,0.055 l -0.854,-0.017 -0.177,-0.121 c -0.098,-0.064 -0.177,-0.141 -0.175,-0.164 0,-0.042 0.169,-0.418 0.188,-0.422 0.005,-10e-4 0.159,-0.016 0.342,-0.031 0.184,-0.016 0.335,-0.037 0.341,-0.045 0.007,-0.008 0.003,-0.273 -0.005,-0.59 -0.013,-0.457 0.037,-2.836 0.08,-3.971 0.005,-0.112 -0.012,-0.31 -0.036,-0.438 -0.022,-0.128 -0.063,-0.337 -0.088,-0.464 -0.064,-0.34 -0.073,-0.346 -0.307,-0.249 -0.198,0.084 -0.291,0.077 -0.405,-0.03 -0.036,-0.03 -0.104,-0.093 -0.158,-0.134 -0.104,-0.084 -0.09,-0.242 0.022,-0.284 0.189,-0.067 0.988,-0.091 2.425,-0.067 1.219,0.019 1.718,0.011 2.037,-0.032 0.545,-0.073 0.561,-0.073 0.799,0.04 0.194,0.093 0.241,0.151 0.163,0.196 z"
         inkscape:connector-curvature="0"
         style="fill:#cccccc;fill-opacity:1" />
      <g
         id="g1281"
         style="fill:#cccccc;fill-opacity:1">
        <g
           id="g1283"
           style="fill:#cccccc;fill-opacity:1">
          <path
             d="m 904.055,479.579 c -0.046,-0.103 -0.085,-0.207 -0.085,-0.229 0.002,-0.124 -0.303,-0.671 -0.494,-0.894 -0.549,-0.629 -1.332,-0.982 -2.279,-1.03 -0.104,-0.004 -0.276,-0.045 -0.381,-0.088 -0.171,-0.07 -0.231,-0.074 -0.574,-0.034 -0.245,0.027 -0.518,0.097 -0.748,0.188 -0.422,0.165 -0.543,0.239 -0.839,0.508 -0.12,0.109 -0.268,0.209 -0.329,0.223 -0.086,0.018 -0.134,0.076 -0.207,0.247 -0.158,0.375 -0.229,0.781 -0.271,1.581 -0.032,0.613 -0.028,0.845 0.022,1.171 0.086,0.552 0.115,0.666 0.238,0.952 0.06,0.136 0.106,0.279 0.105,0.319 0.001,0.04 0.042,0.15 0.097,0.244 0.056,0.095 0.148,0.277 0.213,0.404 0.062,0.127 0.229,0.354 0.367,0.508 0.214,0.229 0.312,0.301 0.613,0.43 0.195,0.084 0.376,0.155 0.4,0.156 0.024,10e-4 0.155,0.062 0.293,0.132 0.367,0.19 0.537,0.205 0.917,0.08 0.177,-0.059 0.481,-0.129 0.677,-0.158 0.258,-0.038 0.416,-0.089 0.577,-0.188 0.313,-0.191 0.63,-0.452 0.7,-0.577 0.031,-0.059 0.135,-0.19 0.23,-0.293 0.094,-0.103 0.207,-0.254 0.251,-0.336 0.044,-0.082 0.112,-0.196 0.152,-0.254 0.04,-0.061 0.089,-0.172 0.105,-0.253 0.02,-0.082 0.103,-0.346 0.188,-0.584 0.084,-0.239 0.172,-0.562 0.194,-0.721 0.102,-0.682 0.067,-1.07 -0.132,-1.504 z m -0.996,2.688 c -0.126,0.317 -0.217,0.498 -0.295,0.585 -0.093,0.103 -1.225,0.922 -1.383,1.001 -0.148,0.073 -0.659,0.118 -0.862,0.076 -0.154,-0.032 -0.648,-0.351 -0.848,-0.544 -0.065,-0.063 -0.157,-0.192 -0.203,-0.285 -0.132,-0.271 -0.271,-0.84 -0.269,-1.094 0.001,-0.138 -0.042,-0.379 -0.103,-0.576 -0.096,-0.312 -0.104,-0.4 -0.091,-1.048 0.008,-0.39 0.036,-0.79 0.063,-0.895 0.079,-0.29 0.278,-0.744 0.389,-0.88 0.354,-0.442 0.444,-0.52 0.781,-0.667 0.055,-0.021 0.28,-0.051 0.5,-0.061 0.322,-0.017 0.438,-0.005 0.604,0.061 0.396,0.153 0.781,0.424 1.146,0.8 0.346,0.354 0.365,0.389 0.431,0.671 0.038,0.165 0.094,0.4 0.125,0.523 0.03,0.123 0.064,0.401 0.073,0.618 0.045,0.984 0.029,1.496 -0.058,1.715 z"
             id="path1285"
             inkscape:connector-curvature="0"
             style="fill:#cccccc;fill-opacity:1" />
        </g>
      </g>
      <path
         id="path11378_1_"
         d="m 897.481,484.104 c -0.037,0.029 -0.125,0.041 -0.202,0.028 -0.161,-0.026 -0.415,0.08 -0.418,0.176 -10e-4,0.067 -0.147,0.208 -0.214,0.207 -0.021,0 -0.075,-0.068 -0.123,-0.15 l -0.084,-0.148 -0.375,-0.014 c -0.865,-0.027 -0.92,-0.031 -0.935,-0.082 -0.01,-0.025 -0.062,-0.104 -0.118,-0.172 -0.259,-0.311 -0.177,-0.399 0.357,-0.391 l 0.401,0.007 -0.098,-0.183 c -0.177,-0.323 -0.218,-0.395 -0.271,-0.453 -0.029,-0.032 -0.054,-0.078 -0.052,-0.102 0,-0.021 -0.044,-0.111 -0.099,-0.199 -0.218,-0.359 -0.729,-1.331 -0.771,-1.473 -0.026,-0.081 -0.062,-0.168 -0.076,-0.19 -0.051,-0.068 -0.236,-0.688 -0.264,-0.864 -0.047,-0.329 -0.187,-0.977 -0.224,-1.052 -0.036,-0.071 -0.05,-0.066 -0.147,0.061 -0.146,0.189 -0.289,0.46 -0.424,0.816 -0.063,0.162 -0.167,0.428 -0.229,0.591 -0.172,0.438 -0.382,1.034 -0.384,1.084 0,0.025 -0.027,0.104 -0.062,0.178 -0.181,0.396 -0.421,1.487 -0.347,1.579 0.022,0.032 0.036,0.129 0.025,0.217 l -0.017,0.162 0.242,0.026 c 0.176,0.018 0.259,0.05 0.302,0.107 0.109,0.154 0.022,0.248 -0.326,0.358 -0.179,0.055 -0.355,0.127 -0.396,0.161 -0.062,0.052 -0.119,0.046 -0.44,-0.046 -0.2,-0.06 -0.425,-0.114 -0.493,-0.124 -0.069,-0.012 -0.206,-0.042 -0.301,-0.068 -0.146,-0.04 -0.201,-0.034 -0.404,0.057 -0.317,0.138 -0.348,0.145 -0.456,0.103 -0.066,-0.027 -0.096,-0.073 -0.094,-0.153 0.002,-0.062 0.017,-0.102 0.03,-0.086 0.017,0.019 0.059,0.002 0.098,-0.027 0.038,-0.033 0.229,-0.141 0.425,-0.238 0.766,-0.383 0.729,-0.351 0.938,-0.839 0.325,-0.756 0.521,-1.196 0.665,-1.487 0.584,-1.182 1.349,-2.883 1.351,-3.007 0,-0.021 0.048,-0.088 0.107,-0.155 0.061,-0.065 0.111,-0.167 0.111,-0.223 0,-0.056 0.042,-0.145 0.09,-0.193 0.049,-0.051 0.1,-0.134 0.115,-0.187 0.035,-0.137 0.199,-0.125 0.287,0.017 0.038,0.062 0.133,0.264 0.207,0.453 0.078,0.19 0.229,0.503 0.34,0.696 0.191,0.336 0.385,0.73 0.397,0.822 0.013,0.089 0.627,1.422 0.743,1.611 0.051,0.084 0.12,0.24 0.154,0.345 0.056,0.177 0.125,0.354 0.248,0.638 0.022,0.058 0.149,0.31 0.28,0.558 0.131,0.25 0.236,0.494 0.235,0.544 -0.002,0.12 0.062,0.166 0.316,0.23 0.267,0.066 0.495,0.244 0.396,0.307 -0.044,0.028 -0.048,0.042 -0.011,0.043 0.079,-0.001 0.074,0.061 -0.005,0.124 z"
         inkscape:connector-curvature="0"
         style="fill:#cccccc;fill-opacity:1" />
      <path
         id="path11376_1_"
         d="m 893.794,478.136 c -0.015,0.014 -0.018,0.051 -0.006,0.081 0.015,0.032 0.023,0.022 0.026,-0.025 0.003,-0.045 -0.005,-0.071 -0.02,-0.056 z"
         inkscape:connector-curvature="0"
         style="fill:#cccccc;fill-opacity:1" />
    </g>
    <g
       transform="matrix(0.28222223,0,0,0.28222223,-272.23015,-41.192459)"
       id="g4393"
       style="display:inline;fill:#cccccc;fill-opacity:1;stroke:#cccccc;stroke-width:0.6;stroke-miterlimit:4;stroke-dasharray:none;stroke-opacity:1"
       inkscape:export-filename="/Users/mars/devel/RebelTechnology/ClockDelay/drawings/g240.png"
       inkscape:export-xdpi="90"
       inkscape:export-ydpi="90">
      <path
         inkscape:connector-curvature="0"
         id="path4395"
         d="m 1014.22,505.804 c -0.088,0.043 -0.213,0.066 -0.371,0.073 -0.146,-0.009 -0.287,-0.013 -0.422,-0.014 -0.141,0.019 -0.291,0.019 -0.451,0.002 -0.159,-0.015 -0.301,-0.024 -0.422,-0.03 -0.12,-0.008 -0.272,0.011 -0.461,0.051 -0.188,0.039 -0.292,0.062 -0.314,0.068 -0.22,0.032 -0.416,0.048 -0.59,0.046 -0.176,-0.005 -0.354,-0.007 -0.543,-0.01 -0.046,-0.096 -0.092,-0.137 -0.139,-0.124 -0.095,0.056 -0.19,0.098 -0.293,0.126 -0.093,0.028 -0.193,0.043 -0.304,0.049 -0.107,0.004 -0.245,-0.019 -0.411,-0.061 -0.125,-0.021 -0.271,-0.033 -0.436,-0.034 -0.166,-0.001 -0.396,0.022 -0.696,0.07 -0.066,0.003 -0.146,-0.021 -0.242,-0.066 -0.096,-0.048 -0.167,-0.066 -0.216,-0.062 -0.13,-0.012 -0.328,0.001 -0.592,0.039 -0.264,0.037 -0.426,0.056 -0.483,0.057 -0.197,-0.008 -0.391,-0.018 -0.579,-0.028 -0.019,-0.003 -0.079,0.017 -0.182,0.057 -0.104,0.039 -0.17,0.059 -0.204,0.061 -0.399,0.021 -0.624,0.029 -0.67,0.031 -0.046,10e-4 -0.177,-0.004 -0.393,-0.016 -0.278,0 -0.562,0 -0.85,0.003 -0.1,-0.021 -0.183,-0.143 -0.248,-0.357 0.01,-0.035 0.012,-0.073 0.018,-0.113 0,-0.039 0,-0.086 -0.018,-0.141 -0.035,-0.116 -0.076,-0.195 -0.122,-0.236 -0.046,-0.041 -0.064,-0.074 -0.058,-0.104 0.041,-0.004 0.079,-0.037 0.11,-0.097 0.032,-0.062 0.073,-0.097 0.122,-0.103 0.099,-0.013 0.218,-0.01 0.358,0.006 0.411,0.045 0.666,0.066 0.769,0.062 0.101,-0.005 0.207,-0.003 0.319,0.005 0.358,0.036 0.557,0.052 0.594,0.049 0.037,-0.003 0.096,-0.016 0.173,-0.04 0.125,-0.038 0.215,-0.062 0.269,-0.081 0.022,-0.007 0.048,-0.014 0.07,-0.021 0.034,0.006 0.069,0.007 0.104,0.005 0.032,-0.002 0.151,0.011 0.354,0.039 0.125,0.02 0.214,0.025 0.268,0.021 0.055,-0.004 0.102,-0.013 0.14,-0.022 0.108,-0.033 0.177,-0.048 0.202,-0.048 l 0.896,0.061 0.602,0.009 c 0.117,-10e-4 0.206,-0.007 0.263,-0.016 0.243,-0.006 0.409,-0.02 0.498,-0.036 0.115,-0.009 0.236,-0.01 0.362,-0.001 0.126,0.009 0.244,0.017 0.356,0.025 l 0.646,-0.007 c 0.118,-0.025 0.238,-0.051 0.359,-0.068 0.111,0.008 0.255,0.016 0.427,0.021 0.021,0.003 0.209,0.005 0.574,0.005 0.094,0.031 0.188,0.062 0.283,0.095 0.018,0.003 0.07,-0.015 0.161,-0.05 0.093,-0.036 0.154,-0.056 0.188,-0.058 0.096,-0.021 0.187,-0.039 0.271,-0.056 0.084,-0.019 0.198,-0.031 0.345,-0.041 0.146,-0.01 0.254,-0.017 0.326,-0.018 0.071,0 0.163,0.033 0.276,0.103 0.01,0.015 0.01,0.055 0,0.119 0,0.062 0.015,0.146 0.043,0.248 0.021,0.062 0.047,0.106 0.082,0.14 0.037,0.031 0.08,0.064 0.136,0.1 0.028,0.102 0.053,0.18 0.067,0.232 0.021,0.07 0.01,0.112 -0.037,0.126 -0.048,0.022 -0.147,0.005 -0.288,-0.045 z"
         style="fill:#cccccc;fill-opacity:1;stroke:#cccccc;stroke-width:0.6;stroke-miterlimit:4;stroke-dasharray:none;stroke-opacity:1" />
      <path
         inkscape:connector-curvature="0"
         id="path4397"
         d="m 1009.659,510.34 c -0.087,0.031 -0.149,0.05 -0.189,0.05 -0.065,0 -0.117,-0.004 -0.149,-0.01 -0.101,-0.027 -0.186,-0.051 -0.255,-0.066 -0.07,-0.016 -0.134,-0.041 -0.19,-0.074 -0.057,-0.034 -0.118,-0.084 -0.185,-0.149 -0.01,-0.009 -0.032,-0.021 -0.075,-0.04 -0.043,-0.021 -0.064,-0.059 -0.064,-0.11 -0.086,-0.161 -0.131,-0.325 -0.131,-0.493 0,-0.04 0.01,-0.094 0.021,-0.16 0.033,-0.188 0.117,-0.353 0.25,-0.493 0.021,0.009 0.043,0.014 0.065,0.017 0.022,0.004 0.042,-0.035 0.055,-0.115 0.105,-0.087 0.221,-0.145 0.341,-0.171 0.054,0 0.095,0 0.121,0 0.116,0 0.241,0.021 0.378,0.06 0.021,-0.006 0.048,0.01 0.081,0.041 0.055,0.021 0.097,0.039 0.128,0.062 0.03,0.021 0.079,0.06 0.147,0.12 0.088,0.1 0.135,0.151 0.144,0.16 0.032,0.06 0.054,0.1 0.062,0.117 -0.021,0.021 -0.03,0.041 -0.03,0.062 0,0.02 0.018,0.029 0.052,0.029 0.032,0.021 0.05,0.051 0.05,0.091 0,0.054 0,0.087 0,0.101 0,0.061 -0.013,0.117 -0.035,0.174 -0.022,0.059 -0.049,0.119 -0.073,0.188 -0.01,0.053 -0.017,0.104 -0.024,0.16 -0.011,0.053 -0.028,0.1 -0.056,0.14 l -0.102,0.07 c -0.106,0.087 -0.217,0.17 -0.337,0.239 z"
         style="fill:#cccccc;fill-opacity:1;stroke:#cccccc;stroke-width:0.6;stroke-miterlimit:4;stroke-dasharray:none;stroke-opacity:1" />
      <path
         inkscape:connector-curvature="0"
         id="path4399"
         d="m 1009.635,502.673 c -0.087,0.031 -0.149,0.05 -0.189,0.05 -0.066,0 -0.117,-0.003 -0.15,-0.01 -0.1,-0.027 -0.185,-0.051 -0.255,-0.065 -0.069,-0.017 -0.134,-0.042 -0.189,-0.076 -0.058,-0.033 -0.117,-0.083 -0.186,-0.148 -0.01,-0.009 -0.031,-0.021 -0.074,-0.041 -0.044,-0.021 -0.064,-0.059 -0.064,-0.11 -0.087,-0.161 -0.131,-0.325 -0.131,-0.493 0,-0.041 0.01,-0.094 0.021,-0.161 0.033,-0.188 0.116,-0.352 0.25,-0.493 0.021,0.009 0.042,0.014 0.065,0.017 0.022,0.003 0.042,-0.035 0.055,-0.115 0.106,-0.087 0.221,-0.145 0.34,-0.171 0.055,0 0.096,0 0.122,0 0.115,0 0.241,0.02 0.377,0.06 0.021,-0.006 0.049,0.009 0.081,0.04 0.056,0.021 0.099,0.04 0.128,0.062 0.03,0.02 0.079,0.06 0.147,0.12 0.088,0.1 0.136,0.151 0.143,0.16 0.034,0.06 0.056,0.1 0.062,0.118 -0.021,0.021 -0.03,0.04 -0.03,0.062 0,0.02 0.018,0.03 0.051,0.03 0.033,0.02 0.051,0.05 0.051,0.09 0,0.053 0,0.086 0,0.1 0,0.062 -0.013,0.118 -0.035,0.175 -0.022,0.059 -0.048,0.118 -0.074,0.187 -0.01,0.053 -0.016,0.104 -0.025,0.16 -0.01,0.053 -0.026,0.1 -0.055,0.14 l -0.101,0.07 c -0.105,0.09 -0.215,0.173 -0.335,0.242 z"
         style="fill:#cccccc;fill-opacity:1;stroke:#cccccc;stroke-width:0.6;stroke-miterlimit:4;stroke-dasharray:none;stroke-opacity:1" />
    </g>
    <g
       transform="matrix(0.28222223,0,0,0.28222223,-221.41379,-41.315226)"
       id="g4401"
       style="display:inline;fill:#cccccc;fill-opacity:1;stroke:#cccccc;stroke-width:0.6;stroke-miterlimit:4;stroke-dasharray:none;stroke-opacity:1"
       inkscape:export-filename="/Users/mars/devel/RebelTechnology/ClockDelay/drawings/g240.png"
       inkscape:export-xdpi="90"
       inkscape:export-ydpi="90">
      <path
         inkscape:connector-curvature="0"
         id="path4403"
         d="m 924.434,504.724 c 0.101,0.096 0.19,0.181 0.273,0.255 0.055,0.099 0.033,0.196 -0.061,0.294 -0.095,0.097 -0.191,0.173 -0.29,0.229 -0.071,0.037 -0.155,0.064 -0.252,0.08 -0.098,0.019 -0.18,0.03 -0.248,0.04 -0.017,0.036 -0.038,0.065 -0.062,0.09 -0.025,0.021 -0.052,0.042 -0.08,0.057 -0.093,0.051 -0.229,0.036 -0.41,-0.044 -0.182,-0.079 -0.372,-0.092 -0.571,-0.037 -0.21,-0.032 -0.365,-0.054 -0.462,-0.062 -0.315,-0.039 -0.497,-0.054 -0.545,-0.04 -0.049,0.014 -0.103,0.017 -0.16,0.012 -0.059,-0.005 -0.103,-0.006 -0.133,-0.003 -0.031,0.003 -0.103,0.026 -0.215,0.075 -0.11,0.048 -0.183,0.072 -0.21,0.078 -0.028,0.009 -0.082,-10e-4 -0.157,-0.021 -0.077,-0.022 -0.118,-0.031 -0.125,-0.027 -0.429,0.061 -0.659,0.09 -0.696,0.091 -0.126,0.007 -0.22,-0.018 -0.283,-0.062 l -0.1,0.095 c -0.031,-0.057 -0.094,-0.086 -0.188,-0.09 -0.291,0.021 -0.555,0.032 -0.792,0.033 -0.237,0.002 -0.462,0.005 -0.674,0.011 -0.212,0.006 -0.343,0.021 -0.393,0.049 -0.031,-0.057 -0.125,-0.097 -0.285,-0.12 -0.159,-0.021 -0.265,-0.057 -0.315,-0.102 -0.208,-0.18 -0.404,-0.22 -0.587,-0.119 -0.017,0.035 -0.029,0.062 -0.04,0.076 -0.052,0.073 -0.112,0.13 -0.183,0.168 -0.12,0.066 -0.252,0.06 -0.396,-0.018 -0.144,-0.078 -0.311,-0.065 -0.5,0.037 l -0.052,0.028 c -0.114,0.062 -0.269,0.077 -0.464,0.047 -0.194,-0.03 -0.331,-0.117 -0.407,-0.259 -0.047,-0.085 -0.053,-0.193 -0.021,-0.325 0.033,-0.133 0.099,-0.226 0.197,-0.277 0.07,-0.038 0.17,-0.059 0.3,-0.056 0.13,0.002 0.203,0.003 0.222,0.003 0.084,-0.046 0.169,-0.092 0.254,-0.139 0.062,0.013 0.175,0.011 0.341,-0.006 0.092,-0.017 0.188,-0.025 0.283,-0.032 0.029,0.003 0.111,0.023 0.248,0.064 0.138,0.04 0.256,0.062 0.361,0.068 0.256,0.018 0.444,0.021 0.565,0.007 0.058,-0.012 0.125,-0.021 0.207,-0.021 0.08,-0.004 0.186,0.02 0.312,0.069 0.128,0.049 0.206,0.073 0.234,0.075 0.104,0.01 0.175,-10e-4 0.212,-0.024 0.037,-0.024 0.073,-0.046 0.107,-0.065 0.098,-0.007 0.168,-0.001 0.216,0.021 0.048,0.02 0.096,0.029 0.142,0.031 0.048,0.004 0.076,-0.008 0.089,-0.026 0.012,-0.021 0.025,-0.03 0.045,-0.031 0.123,0.025 0.236,0.026 0.345,0.004 0.092,-0.032 0.189,-0.062 0.293,-0.091 l 1.251,0.004 1.033,-0.041 c 0.059,-0.014 0.216,-0.004 0.478,0.028 0.26,0.032 0.429,0.025 0.506,-0.018 0.034,-0.037 0.066,-0.066 0.1,-0.095 0.031,-0.026 0.051,-0.05 0.058,-0.072 l 0.481,-0.05 0.715,0.094 z"
         style="fill:#cccccc;fill-opacity:1;stroke:#cccccc;stroke-width:0.6;stroke-miterlimit:4;stroke-dasharray:none;stroke-opacity:1" />
      <path
         inkscape:connector-curvature="0"
         id="path4405"
         d="m 918.891,500.73 c 0.095,-0.103 0.179,-0.194 0.25,-0.278 0.099,-0.056 0.195,-0.036 0.295,0.058 0.099,0.093 0.176,0.188 0.231,0.287 0.039,0.068 0.068,0.151 0.086,0.25 0.02,0.097 0.032,0.179 0.043,0.245 0.037,0.018 0.066,0.036 0.089,0.062 0.022,0.024 0.043,0.051 0.059,0.078 0.053,0.092 0.04,0.229 -0.036,0.411 -0.077,0.183 -0.086,0.373 -0.027,0.571 -0.029,0.212 -0.049,0.365 -0.058,0.465 -0.033,0.313 -0.043,0.498 -0.03,0.546 0.015,0.048 0.019,0.102 0.015,0.157 -0.004,0.061 -0.004,0.104 -10e-4,0.135 0.003,0.028 0.03,0.102 0.079,0.213 0.049,0.108 0.078,0.181 0.084,0.209 0.007,0.029 0,0.082 -0.021,0.158 -0.021,0.075 -0.03,0.117 -0.025,0.126 0.065,0.427 0.1,0.655 0.103,0.692 0.007,0.126 -0.015,0.223 -0.062,0.284 l 0.097,0.098 c -0.057,0.032 -0.085,0.097 -0.087,0.188 0.024,0.291 0.041,0.554 0.047,0.791 0.005,0.237 0.012,0.462 0.021,0.673 0.01,0.212 0.028,0.343 0.056,0.392 -0.057,0.032 -0.095,0.129 -0.114,0.286 -0.021,0.16 -0.054,0.268 -0.097,0.318 -0.178,0.21 -0.214,0.407 -0.109,0.589 0.036,0.016 0.062,0.028 0.077,0.039 0.073,0.05 0.132,0.11 0.171,0.179 0.067,0.12 0.062,0.252 -0.013,0.396 -0.075,0.144 -0.061,0.311 0.048,0.5 l 0.028,0.052 c 0.063,0.112 0.081,0.266 0.054,0.462 -0.027,0.195 -0.111,0.333 -0.25,0.412 -0.084,0.047 -0.192,0.056 -0.325,0.025 -0.134,-0.032 -0.228,-0.098 -0.283,-0.194 -0.04,-0.069 -0.058,-0.169 -0.058,-0.298 0,-0.13 0,-0.204 0,-0.222 -0.049,-0.085 -0.097,-0.171 -0.145,-0.254 0.012,-0.062 0.008,-0.175 -0.012,-0.34 -0.017,-0.092 -0.028,-0.187 -0.037,-0.281 0.002,-0.029 0.021,-0.112 0.061,-0.249 0.038,-0.14 0.06,-0.26 0.063,-0.362 0.012,-0.256 0.012,-0.445 -10e-4,-0.567 -0.014,-0.056 -0.022,-0.124 -0.025,-0.205 -0.006,-0.081 0.017,-0.186 0.063,-0.312 0.047,-0.128 0.071,-0.207 0.073,-0.235 0.006,-0.104 -0.004,-0.175 -0.029,-0.211 -0.024,-0.037 -0.047,-0.073 -0.067,-0.105 -0.009,-0.1 -0.004,-0.169 0.017,-0.219 0.021,-0.048 0.029,-0.096 0.031,-0.143 0.002,-0.047 -0.009,-0.075 -0.028,-0.087 -0.021,-0.012 -0.031,-0.025 -0.032,-0.045 0.022,-0.123 0.021,-0.238 -10e-4,-0.347 -0.034,-0.092 -0.064,-0.188 -0.097,-0.292 l -0.018,-1.251 -0.058,-1.031 c -0.016,-0.06 -0.009,-0.218 0.021,-0.479 0.027,-0.26 0.021,-0.428 -0.022,-0.506 -0.038,-0.033 -0.069,-0.064 -0.098,-0.098 -0.025,-0.03 -0.052,-0.049 -0.072,-0.057 l -0.059,-0.479 0.082,-0.717 z"
         style="fill:#cccccc;fill-opacity:1;stroke:#cccccc;stroke-width:0.6;stroke-miterlimit:4;stroke-dasharray:none;stroke-opacity:1" />
    </g>
    <polyline
       transform="matrix(-0.22078956,-0.17578782,-0.17578782,0.22078956,355.34951,88.45198)"
       id="polyline12243"
       points="899.681,642.148 890.434,656.964 899.845,659.61 "
       inkscape:export-filename="/Users/mars/devel/RebelTechnology/ClockDelay/drawings/g240.png"
       inkscape:export-xdpi="90"
       inkscape:export-ydpi="90"
       style="display:inline;fill:#cccccc" />
    <g
       transform="matrix(0.28222223,0,0,0.28222223,36.535285,-226.16305)"
       id="g12249"
       style="display:inline;fill:#cccccc;fill-opacity:1;stroke:#cccccc"
       inkscape:export-filename="/Users/mars/devel/RebelTechnology/ClockDelay/drawings/g240.png"
       inkscape:export-xdpi="90"
       inkscape:export-ydpi="90">
      <line
         style="fill:#cccccc;fill-opacity:1;stroke:#cccccc;stroke-width:1;stroke-miterlimit:4;stroke-dasharray:none"
         id="line12251"
         y2="1164.179"
         x2="-45.483688"
         y1="1156.1982"
         x1="-45.483688" />
      <path
         style="fill:#cccccc;fill-opacity:1;stroke:#cccccc;stroke-width:0.685561"
         inkscape:connector-curvature="0"
         id="path12253"
         d="M -45.404197,1160.1512" />
      <line
         style="fill:#cccccc;fill-opacity:1;stroke:#cccccc;stroke-width:1;stroke-miterlimit:4;stroke-dasharray:none"
         id="line12255"
         y2="1160.1512"
         x2="-41.735779"
         y1="1160.1512"
         x1="-33.28978" />
      <polygon
         style="fill:#cccccc;fill-opacity:1;stroke:#cccccc"
         id="polygon12257"
         points="1155.104,613.322 1147.078,610.646 1147.021,616.055 "
         transform="matrix(-0.68556145,0,0,0.68556145,746.49469,739.69709)" />
    </g>
    <path
       style="display:inline;fill:none;stroke:#cccccc;stroke-width:0.282222px;stroke-linecap:butt;stroke-linejoin:miter;stroke-opacity:1"
       d="m 11.171416,115.02416 h 1.015548 v -1.69333 h 0.805434 v 1.69333 h 0.805437"
       id="path12259"
       inkscape:connector-curvature="0"
       sodipodi:nodetypes="cccccc"
       inkscape:export-filename="/Users/mars/devel/RebelTechnology/ClockDelay/drawings/g240.png"
       inkscape:export-xdpi="90"
       inkscape:export-ydpi="90" />
    <path
       sodipodi:nodetypes="cccccc"
       inkscape:connector-curvature="0"
       id="path12261"
       d="m 36.583545,115.02416 h 1.015548 v -1.69333 h 0.805434 v 1.69333 h 0.805437"
       style="display:inline;fill:none;stroke:#cccccc;stroke-width:0.282222px;stroke-linecap:butt;stroke-linejoin:miter;stroke-opacity:1"
       inkscape:export-filename="/Users/mars/devel/RebelTechnology/ClockDelay/drawings/g240.png"
       inkscape:export-xdpi="90"
       inkscape:export-ydpi="90" />
    <g
       style="display:inline;fill:none;stroke:#cccccc;stroke-width:0.05"
       id="g4397"
       transform="translate(12.550255,45.199998)">
      <g
         id="g4399"
         style="stroke:#cccccc">
        <path
           id="path4401"
           d="M -4.2037748,7.5814929 C -6.8346316,6.1114925 -8.6120123,3.3014922 -8.6120123,0.07148931 c 0,-4.75000381 3.8628404,-8.61000481 8.6282233,-8.61000481 4.764047,0 8.627555,3.8600011 8.627555,8.61000481 0,3.23000299 -1.780051,6.04000329 -4.414579,7.52000359"
           style="fill:none;stroke:#cccccc;stroke-width:0.212"
           inkscape:connector-curvature="0" />
        <path
           id="path4403-8"
           d="m -2.440413,-9.0485165 0.216323,0.810001"
           style="fill:none;stroke:#cccccc;stroke-width:0.212"
           inkscape:connector-curvature="0" />
        <path
           id="path4405-5"
           d="m -5.1129926,-8.7785155 0.8080822,1.4000001"
           style="fill:none;stroke:#cccccc;stroke-width:0.283"
           inkscape:connector-curvature="0" />
        <path
           id="path4407"
           d="m -6.6800914,-6.5985155 0.5891225,0.59"
           style="fill:none;stroke:#cccccc;stroke-width:0.212"
           inkscape:connector-curvature="0" />
        <path
           id="path4409"
           d="m -8.8466601,-5.0285155 1.3848552,0.8000013"
           style="fill:none;stroke:#cccccc;stroke-width:0.283"
           inkscape:connector-curvature="0" />
        <path
           id="path4411"
           d="m -9.1267017,-2.3685125 0.8044106,0.2200004"
           style="fill:none;stroke:#cccccc;stroke-width:0.212"
           inkscape:connector-curvature="0" />
        <path
           id="path4413"
           d="m -10.221501,0.08148931 h 1.6061507"
           style="fill:none;stroke:#cccccc;stroke-width:0.283"
           inkscape:connector-curvature="0" />
        <path
           id="path4415"
           d="M -9.1243652,2.5214918 -8.3199546,2.3014913"
           style="fill:none;stroke:#cccccc;stroke-width:0.212"
           inkscape:connector-curvature="0" />
        <path
           id="path4417"
           d="M -8.8489964,5.181492 -7.4574658,4.3814921"
           style="fill:none;stroke:#cccccc;stroke-width:0.283"
           inkscape:connector-curvature="0" />
        <path
           id="path4419"
           d="m -6.6737496,6.7514925 0.5877873,-0.59"
           style="fill:none;stroke:#cccccc;stroke-width:0.212"
           inkscape:connector-curvature="0" />
        <path
           id="path4421"
           d="m -5.0742739,8.871494 0.776373,-1.3400011"
           style="fill:none;stroke:#cccccc;stroke-width:0.283"
           inkscape:connector-curvature="0" />
        <path
           id="path4423"
           d="M 5.113671,8.8814939 4.329988,7.5214929"
           style="fill:none;stroke:#cccccc;stroke-width:0.283"
           inkscape:connector-curvature="0" />
        <path
           id="path4425"
           d="m 6.704836,6.7414925 -0.588789,-0.58"
           style="fill:none;stroke:#cccccc;stroke-width:0.212"
           inkscape:connector-curvature="0" />
        <path
           id="path4427"
           d="m 8.846371,5.1614921 -1.360155,-0.79"
           style="fill:none;stroke:#cccccc;stroke-width:0.283"
           inkscape:connector-curvature="0" />
        <path
           id="path4429"
           d="M 9.151112,2.5114918 8.347402,2.2914913"
           style="fill:none;stroke:#cccccc;stroke-width:0.212"
           inkscape:connector-curvature="0" />
        <path
           id="path4431"
           d="M 10.195511,0.07148931 H 8.640094"
           style="fill:none;stroke:#cccccc;stroke-width:0.283"
           inkscape:connector-curvature="0" />
        <path
           id="path4433"
           d="M 9.148809,-2.3785126 8.344698,-2.1585121"
           style="fill:none;stroke:#cccccc;stroke-width:0.212"
           inkscape:connector-curvature="0" />
        <path
           id="path4435"
           d="M 8.836691,-5.0185155 7.482544,-4.2385142"
           style="fill:none;stroke:#cccccc;stroke-width:0.283"
           inkscape:connector-curvature="0" />
        <path
           id="path4437"
           d="m 6.699128,-6.6085155 -0.588421,0.59"
           style="fill:none;stroke:#cccccc;stroke-width:0.212"
           inkscape:connector-curvature="0" />
        <path
           id="path4439"
           d="m 5.131729,-8.7785155 -0.80875,1.39"
           style="fill:none;stroke:#cccccc;stroke-width:0.283"
           inkscape:connector-curvature="0" />
        <path
           id="path4441"
           d="m 2.456813,-9.0485165 -0.215288,0.800001"
           style="fill:none;stroke:#cccccc;stroke-width:0.212"
           inkscape:connector-curvature="0" />
        <path
           id="path4443"
           d="m 0.007833,-10.128517 v 1.5900015"
           style="fill:none;stroke:#cccccc;stroke-width:0.283"
           inkscape:connector-curvature="0" />
      </g>
    </g>
    <g
       style="display:inline;fill:none;stroke:#cccccc;stroke-width:0.05"
       id="g4447"
       transform="translate(37.95026,45.199998)">
      <g
         id="g4449"
         style="stroke:#cccccc">
        <path
           id="path4451"
           d="M -4.2037748,7.5814929 C -6.8346316,6.1114925 -8.6120123,3.3014922 -8.6120123,0.07148931 c 0,-4.75000381 3.8628404,-8.61000481 8.6282233,-8.61000481 4.764047,0 8.627555,3.8600011 8.627555,8.61000481 0,3.23000299 -1.780051,6.04000329 -4.414579,7.52000359"
           style="fill:none;stroke:#cccccc;stroke-width:0.212"
           inkscape:connector-curvature="0" />
        <path
           id="path4453"
           d="m -2.440413,-9.0485165 0.216323,0.810001"
           style="fill:none;stroke:#cccccc;stroke-width:0.212"
           inkscape:connector-curvature="0" />
        <path
           id="path4455"
           d="m -5.1129926,-8.7785155 0.8080822,1.4000001"
           style="fill:none;stroke:#cccccc;stroke-width:0.283"
           inkscape:connector-curvature="0" />
        <path
           id="path4457"
           d="m -6.6800914,-6.5985155 0.5891225,0.59"
           style="fill:none;stroke:#cccccc;stroke-width:0.212"
           inkscape:connector-curvature="0" />
        <path
           id="path4459"
           d="m -8.8466601,-5.0285155 1.3848552,0.8000013"
           style="fill:none;stroke:#cccccc;stroke-width:0.283"
           inkscape:connector-curvature="0" />
        <path
           id="path4461"
           d="m -9.1267017,-2.3685125 0.8044106,0.2200004"
           style="fill:none;stroke:#cccccc;stroke-width:0.212"
           inkscape:connector-curvature="0" />
        <path
           id="path4463"
           d="m -10.221501,0.08148931 h 1.6061507"
           style="fill:none;stroke:#cccccc;stroke-width:0.283"
           inkscape:connector-curvature="0" />
        <path
           id="path4465"
           d="M -9.1243652,2.5214918 -8.3199546,2.3014913"
           style="fill:none;stroke:#cccccc;stroke-width:0.212"
           inkscape:connector-curvature="0" />
        <path
           id="path4467"
           d="M -8.8489964,5.181492 -7.4574658,4.3814921"
           style="fill:none;stroke:#cccccc;stroke-width:0.283"
           inkscape:connector-curvature="0" />
        <path
           id="path4469"
           d="m -6.6737496,6.7514925 0.5877873,-0.59"
           style="fill:none;stroke:#cccccc;stroke-width:0.212"
           inkscape:connector-curvature="0" />
        <path
           id="path4471"
           d="m -5.0742739,8.871494 0.776373,-1.3400011"
           style="fill:none;stroke:#cccccc;stroke-width:0.283"
           inkscape:connector-curvature="0" />
        <path
           id="path4473"
           d="M 5.113671,8.8814939 4.329988,7.5214929"
           style="fill:none;stroke:#cccccc;stroke-width:0.283"
           inkscape:connector-curvature="0" />
        <path
           id="path4475"
           d="m 6.704836,6.7414925 -0.588789,-0.58"
           style="fill:none;stroke:#cccccc;stroke-width:0.212"
           inkscape:connector-curvature="0" />
        <path
           id="path4477"
           d="m 8.846371,5.1614921 -1.360155,-0.79"
           style="fill:none;stroke:#cccccc;stroke-width:0.283"
           inkscape:connector-curvature="0" />
        <path
           id="path4479"
           d="M 9.151112,2.5114918 8.347402,2.2914913"
           style="fill:none;stroke:#cccccc;stroke-width:0.212"
           inkscape:connector-curvature="0" />
        <path
           id="path4481"
           d="M 10.195511,0.07148931 H 8.640094"
           style="fill:none;stroke:#cccccc;stroke-width:0.283"
           inkscape:connector-curvature="0" />
        <path
           id="path4483"
           d="M 9.148809,-2.3785126 8.344698,-2.1585121"
           style="fill:none;stroke:#cccccc;stroke-width:0.212"
           inkscape:connector-curvature="0" />
        <path
           id="path4485"
           d="M 8.836691,-5.0185155 7.482544,-4.2385142"
           style="fill:none;stroke:#cccccc;stroke-width:0.283"
           inkscape:connector-curvature="0" />
        <path
           id="path4487"
           d="m 6.699128,-6.6085155 -0.588421,0.59"
           style="fill:none;stroke:#cccccc;stroke-width:0.212"
           inkscape:connector-curvature="0" />
        <path
           id="path4489"
           d="m 5.131729,-8.7785155 -0.80875,1.39"
           style="fill:none;stroke:#cccccc;stroke-width:0.283"
           inkscape:connector-curvature="0" />
        <path
           id="path4491"
           d="m 2.456813,-9.0485165 -0.215288,0.800001"
           style="fill:none;stroke:#cccccc;stroke-width:0.212"
           inkscape:connector-curvature="0" />
        <path
           id="path4493"
           d="m 0.007833,-10.128517 v 1.5900015"
           style="fill:none;stroke:#cccccc;stroke-width:0.283"
           inkscape:connector-curvature="0" />
      </g>
    </g>
    <g
       style="display:inline;fill:none;stroke:#cccccc;stroke-width:0.05"
       id="g4497"
       transform="translate(12.550255,26.149997)">
      <g
         id="g4499"
         style="stroke:#cccccc">
        <path
           id="path4501"
           d="M -4.2037748,7.5814929 C -6.8346316,6.1114925 -8.6120123,3.3014922 -8.6120123,0.07148931 c 0,-4.75000381 3.8628404,-8.61000481 8.6282233,-8.61000481 4.764047,0 8.627555,3.8600011 8.627555,8.61000481 0,3.23000299 -1.780051,6.04000329 -4.414579,7.52000359"
           style="fill:none;stroke:#cccccc;stroke-width:0.212"
           inkscape:connector-curvature="0" />
        <path
           id="path4503"
           d="m -2.440413,-9.0485165 0.216323,0.810001"
           style="fill:none;stroke:#cccccc;stroke-width:0.212"
           inkscape:connector-curvature="0" />
        <path
           id="path4505"
           d="m -5.1129926,-8.7785155 0.8080822,1.4000001"
           style="fill:none;stroke:#cccccc;stroke-width:0.283"
           inkscape:connector-curvature="0" />
        <path
           id="path4507"
           d="m -6.6800914,-6.5985155 0.5891225,0.59"
           style="fill:none;stroke:#cccccc;stroke-width:0.212"
           inkscape:connector-curvature="0" />
        <path
           id="path4509"
           d="m -8.8466601,-5.0285155 1.3848552,0.8000013"
           style="fill:none;stroke:#cccccc;stroke-width:0.283"
           inkscape:connector-curvature="0" />
        <path
           id="path4511"
           d="m -9.1267017,-2.3685125 0.8044106,0.2200004"
           style="fill:none;stroke:#cccccc;stroke-width:0.212"
           inkscape:connector-curvature="0" />
        <path
           id="path4513"
           d="m -10.221501,0.08148931 h 1.6061507"
           style="fill:none;stroke:#cccccc;stroke-width:0.283"
           inkscape:connector-curvature="0" />
        <path
           id="path4515"
           d="M -9.1243652,2.5214918 -8.3199546,2.3014913"
           style="fill:none;stroke:#cccccc;stroke-width:0.212"
           inkscape:connector-curvature="0" />
        <path
           id="path4517"
           d="M -8.8489964,5.181492 -7.4574658,4.3814921"
           style="fill:none;stroke:#cccccc;stroke-width:0.283"
           inkscape:connector-curvature="0" />
        <path
           id="path4519"
           d="m -6.6737496,6.7514925 0.5877873,-0.59"
           style="fill:none;stroke:#cccccc;stroke-width:0.212"
           inkscape:connector-curvature="0" />
        <path
           id="path4521"
           d="m -5.0742739,8.871494 0.776373,-1.3400011"
           style="fill:none;stroke:#cccccc;stroke-width:0.283"
           inkscape:connector-curvature="0" />
        <path
           id="path4523"
           d="M 5.113671,8.8814939 4.329988,7.5214929"
           style="fill:none;stroke:#cccccc;stroke-width:0.283"
           inkscape:connector-curvature="0" />
        <path
           id="path4525"
           d="m 6.704836,6.7414925 -0.588789,-0.58"
           style="fill:none;stroke:#cccccc;stroke-width:0.212"
           inkscape:connector-curvature="0" />
        <path
           id="path4527"
           d="m 8.846371,5.1614921 -1.360155,-0.79"
           style="fill:none;stroke:#cccccc;stroke-width:0.283"
           inkscape:connector-curvature="0" />
        <path
           id="path4529"
           d="M 9.151112,2.5114918 8.347402,2.2914913"
           style="fill:none;stroke:#cccccc;stroke-width:0.212"
           inkscape:connector-curvature="0" />
        <path
           id="path4531"
           d="M 10.195511,0.07148931 H 8.640094"
           style="fill:none;stroke:#cccccc;stroke-width:0.283"
           inkscape:connector-curvature="0" />
        <path
           id="path4533"
           d="M 9.148809,-2.3785126 8.344698,-2.1585121"
           style="fill:none;stroke:#cccccc;stroke-width:0.212"
           inkscape:connector-curvature="0" />
        <path
           id="path4535"
           d="M 8.836691,-5.0185155 7.482544,-4.2385142"
           style="fill:none;stroke:#cccccc;stroke-width:0.283"
           inkscape:connector-curvature="0" />
        <path
           id="path4537"
           d="m 6.699128,-6.6085155 -0.588421,0.59"
           style="fill:none;stroke:#cccccc;stroke-width:0.212"
           inkscape:connector-curvature="0" />
        <path
           id="path4539"
           d="m 5.131729,-8.7785155 -0.80875,1.39"
           style="fill:none;stroke:#cccccc;stroke-width:0.283"
           inkscape:connector-curvature="0" />
        <path
           id="path4541"
           d="m 2.456813,-9.0485165 -0.215288,0.800001"
           style="fill:none;stroke:#cccccc;stroke-width:0.212"
           inkscape:connector-curvature="0" />
        <path
           id="path4543"
           d="m 0.007833,-10.128517 v 1.5900015"
           style="fill:none;stroke:#cccccc;stroke-width:0.283"
           inkscape:connector-curvature="0" />
      </g>
    </g>
    <g
       style="display:inline;fill:none;stroke:#cccccc;stroke-width:0.05"
       id="g4547"
       transform="translate(37.95026,26.149997)">
      <g
         id="g4549"
         style="stroke:#cccccc">
        <path
           id="path4551"
           d="M -4.2037748,7.5814929 C -6.8346316,6.1114925 -8.6120123,3.3014922 -8.6120123,0.07148931 c 0,-4.75000381 3.8628404,-8.61000481 8.6282233,-8.61000481 4.764047,0 8.627555,3.8600011 8.627555,8.61000481 0,3.23000299 -1.780051,6.04000329 -4.414579,7.52000359"
           style="fill:none;stroke:#cccccc;stroke-width:0.212"
           inkscape:connector-curvature="0" />
        <path
           id="path4553"
           d="m -2.440413,-9.0485165 0.216323,0.810001"
           style="fill:none;stroke:#cccccc;stroke-width:0.212"
           inkscape:connector-curvature="0" />
        <path
           id="path4555"
           d="m -5.1129926,-8.7785155 0.8080822,1.4000001"
           style="fill:none;stroke:#cccccc;stroke-width:0.283"
           inkscape:connector-curvature="0" />
        <path
           id="path4557"
           d="m -6.6800914,-6.5985155 0.5891225,0.59"
           style="fill:none;stroke:#cccccc;stroke-width:0.212"
           inkscape:connector-curvature="0" />
        <path
           id="path4559"
           d="m -8.8466601,-5.0285155 1.3848552,0.8000013"
           style="fill:none;stroke:#cccccc;stroke-width:0.283"
           inkscape:connector-curvature="0" />
        <path
           id="path4561"
           d="m -9.1267017,-2.3685125 0.8044106,0.2200004"
           style="fill:none;stroke:#cccccc;stroke-width:0.212"
           inkscape:connector-curvature="0" />
        <path
           id="path4563"
           d="m -10.221501,0.08148931 h 1.6061507"
           style="fill:none;stroke:#cccccc;stroke-width:0.283"
           inkscape:connector-curvature="0" />
        <path
           id="path4565"
           d="M -9.1243652,2.5214918 -8.3199546,2.3014913"
           style="fill:none;stroke:#cccccc;stroke-width:0.212"
           inkscape:connector-curvature="0" />
        <path
           id="path4567"
           d="M -8.8489964,5.181492 -7.4574658,4.3814921"
           style="fill:none;stroke:#cccccc;stroke-width:0.283"
           inkscape:connector-curvature="0" />
        <path
           id="path4569"
           d="m -6.6737496,6.7514925 0.5877873,-0.59"
           style="fill:none;stroke:#cccccc;stroke-width:0.212"
           inkscape:connector-curvature="0" />
        <path
           id="path4571"
           d="m -5.0742739,8.871494 0.776373,-1.3400011"
           style="fill:none;stroke:#cccccc;stroke-width:0.283"
           inkscape:connector-curvature="0" />
        <path
           id="path4573"
           d="M 5.113671,8.8814939 4.329988,7.5214929"
           style="fill:none;stroke:#cccccc;stroke-width:0.283"
           inkscape:connector-curvature="0" />
        <path
           id="path4575"
           d="m 6.704836,6.7414925 -0.588789,-0.58"
           style="fill:none;stroke:#cccccc;stroke-width:0.212"
           inkscape:connector-curvature="0" />
        <path
           id="path4577"
           d="m 8.846371,5.1614921 -1.360155,-0.79"
           style="fill:none;stroke:#cccccc;stroke-width:0.283"
           inkscape:connector-curvature="0" />
        <path
           id="path4579"
           d="M 9.151112,2.5114918 8.347402,2.2914913"
           style="fill:none;stroke:#cccccc;stroke-width:0.212"
           inkscape:connector-curvature="0" />
        <path
           id="path4581"
           d="M 10.195511,0.07148931 H 8.640094"
           style="fill:none;stroke:#cccccc;stroke-width:0.283"
           inkscape:connector-curvature="0" />
        <path
           id="path4583"
           d="M 9.148809,-2.3785126 8.344698,-2.1585121"
           style="fill:none;stroke:#cccccc;stroke-width:0.212"
           inkscape:connector-curvature="0" />
        <path
           id="path4585"
           d="M 8.836691,-5.0185155 7.482544,-4.2385142"
           style="fill:none;stroke:#cccccc;stroke-width:0.283"
           inkscape:connector-curvature="0" />
        <path
           id="path4587"
           d="m 6.699128,-6.6085155 -0.588421,0.59"
           style="fill:none;stroke:#cccccc;stroke-width:0.212"
           inkscape:connector-curvature="0" />
        <path
           id="path4589"
           d="m 5.131729,-8.7785155 -0.80875,1.39"
           style="fill:none;stroke:#cccccc;stroke-width:0.283"
           inkscape:connector-curvature="0" />
        <path
           id="path4591"
           d="m 2.456813,-9.0485165 -0.215288,0.800001"
           style="fill:none;stroke:#cccccc;stroke-width:0.212"
           inkscape:connector-curvature="0" />
        <path
           id="path4593"
           d="m 0.007833,-10.128517 v 1.5900015"
           style="fill:none;stroke:#cccccc;stroke-width:0.283"
           inkscape:connector-curvature="0" />
      </g>
    </g>
    <path
       id="path32"
       d="m 7.0374046,108.66243 c -0.029639,0.0836 -0.1231194,0.10728 -0.1823946,0.16228 -0.057153,0.0533 -0.1023196,0.11997 -0.1562918,0.17501 -0.1361807,0.13936 -0.3524448,0.27059 -0.4808644,0.42477 -0.092081,0.11007 -0.1605223,0.24519 -0.312578,0.31256 -0.079381,0.20746 -0.3051697,0.29707 -0.4812171,0.43713 -0.1548779,0.12382 -0.3076392,0.25048 -0.4551088,0.38735 -0.052917,-0.0448 -0.1661696,-0.0324 -0.156289,-0.13721 -0.097731,-0.048 -0.2137975,-0.0776 -0.2469614,-0.18734 0.2088586,-0.20357 0.5263755,-0.30201 0.7151229,-0.52496 0.2155585,-0.0653 0.3817282,-0.24238 0.5464839,-0.38738 0.1231194,-0.10761 0.2942336,-0.18556 0.4297087,-0.28719 0.1428835,-0.10758 0.2487225,-0.22013 0.3510337,-0.34962 -0.1689919,-0.2921 -0.5013255,-0.40219 -0.7546369,-0.61174 -0.1538196,-0.12771 -0.3291586,-0.33023 -0.5591838,-0.40042 -0.184864,-0.21768 -0.4903894,-0.32035 -0.7027729,-0.51192 0.0208,-0.15522 0.2536614,-0.10691 0.2603641,-0.27483 0.085031,0.0231 0.078317,-0.0409 0.1301835,-0.0505 0.1654613,0.12172 0.2917642,0.28823 0.4551087,0.41244 0.081142,0.0624 0.1749891,0.0952 0.2469586,0.15028 0.089256,0.0681 0.1379446,0.16124 0.2212058,0.24977 0.2642447,0.2812 0.5743533,0.52462 0.8326007,0.81215 0.035642,0.013 0.1241835,0.0572 0.1428863,0.12488 0.063153,0.0144 0.098081,0.0558 0.1566418,0.0744 z m -2.2116909,-1.66167 c -0.00813,0.0459 0.026811,0.049 0.065267,0.0501 -5.645e-4,-0.0172 0.00638,-0.0271 0.0127,-0.0374 -0.020123,-0.0149 -0.050453,-0.0402 -0.07797,-0.0127 z m 1.2097427,1.01253 c -0.032814,-0.0245 -0.071617,-0.0293 -0.091378,0.0124 0.036689,-0.0102 0.033864,0.0175 0.065264,0.0124 0.00288,-0.01 2.822e-4,-0.0245 0.013039,-0.0245 0,0.007 0.010612,0.0141 0.013039,0 z"
       inkscape:connector-curvature="0"
       style="clip-rule:evenodd;display:inline;fill:#cccccc;fill-rule:evenodd;stroke-width:0.282222;fill-opacity:1" />
    <path
       style="clip-rule:evenodd;display:inline;fill:#cccccc;fill-rule:evenodd;stroke-width:0.282222;fill-opacity:1"
       inkscape:connector-curvature="0"
       d="m 4.5659394,95.962407 c 0.029639,0.08362 0.1231195,0.107273 0.1823974,0.162306 0.057153,0.05326 0.1023056,0.119945 0.156289,0.174978 0.1361807,0.139361 0.3524448,0.270595 0.4808644,0.424773 0.092078,0.110066 0.1605223,0.245194 0.312578,0.312589 0.079381,0.207433 0.3051698,0.297039 0.4812172,0.437106 0.1548779,0.123839 0.3076391,0.250472 0.4551087,0.387378 0.052917,-0.04482 0.1661668,-0.03246 0.156289,-0.137245 0.097731,-0.04798 0.2137975,-0.07761 0.2469586,-0.187339 C 6.828786,97.333386 6.5112662,97.234947 6.3225216,97.011992 6.1069603,96.946714 5.9407935,96.769619 5.7760378,96.624613 5.6529042,96.517002 5.4818042,96.439052 5.346329,96.337452 5.2034456,96.229841 5.0976066,96.117291 4.9952954,95.987807 5.1642844,95.695707 5.4966208,95.58564 5.7499294,95.376062 5.903749,95.248357 6.0790908,95.045834 6.3091132,94.975645 6.4939801,94.757967 6.7995026,94.655295 7.0118861,94.463722 6.9910581,94.3085 6.7582276,94.356845 6.751522,94.188894 c -0.085031,0.02314 -0.078317,-0.04092 -0.1301835,-0.05043 -0.1654612,0.121694 -0.2917613,0.288234 -0.4551059,0.412412 -0.081145,0.06243 -0.1749891,0.09525 -0.2469614,0.150283 -0.089253,0.0681 -0.1379446,0.161233 -0.221203,0.249795 -0.2642475,0.281178 -0.5743561,0.524595 -0.8326035,0.812123 -0.035628,0.01298 -0.1241834,0.05715 -0.1428835,0.124911 -0.063153,0.01439 -0.098081,0.05574 -0.1566418,0.07442 z m 2.211691,-1.661668 c 0.00813,0.04586 -0.026811,0.04905 -0.065267,0.05009 5.645e-4,-0.01721 -0.00638,-0.02709 -0.0127,-0.03739 0.020123,-0.01496 0.050453,-0.04022 0.077967,-0.0127 z m -1.2097456,1.012529 c 0.032814,-0.02484 0.071617,-0.02929 0.091381,0.01242 -0.036689,-0.01016 -0.033864,0.0175 -0.065267,0.01242 -0.00288,-0.0096 -2.822e-4,-0.02455 -0.013039,-0.02455 0,0.0068 -0.010612,0.01411 -0.013039,0 z"
       id="path4307" />
    <path
       style="clip-rule:evenodd;display:inline;fill:#cccccc;fill-rule:evenodd;stroke-width:0.282222;fill-opacity:1"
       inkscape:connector-curvature="0"
       d="m 43.248497,108.66243 c 0.02964,0.0836 0.123119,0.10728 0.182394,0.16228 0.05715,0.0533 0.10232,0.11997 0.156292,0.17501 0.136181,0.13936 0.352445,0.27059 0.480864,0.42477 0.09208,0.11007 0.160523,0.24519 0.312578,0.31256 0.07938,0.20746 0.30517,0.29707 0.481217,0.43713 0.154878,0.12382 0.30764,0.25048 0.455109,0.38735 0.05292,-0.0448 0.16617,-0.0324 0.156289,-0.13721 0.09773,-0.048 0.213798,-0.0776 0.246962,-0.18734 -0.208859,-0.20357 -0.526376,-0.30201 -0.715123,-0.52496 -0.215559,-0.0653 -0.381728,-0.24238 -0.546484,-0.38738 -0.12312,-0.10761 -0.294234,-0.18556 -0.429709,-0.28719 -0.142883,-0.10758 -0.248722,-0.22013 -0.351034,-0.34962 0.168992,-0.2921 0.501326,-0.40219 0.754637,-0.61174 0.15382,-0.12771 0.329159,-0.33023 0.559184,-0.40042 0.184864,-0.21768 0.49039,-0.32035 0.702773,-0.51192 -0.0208,-0.15522 -0.253661,-0.10691 -0.260364,-0.27483 -0.08503,0.0231 -0.07832,-0.0409 -0.130184,-0.0505 -0.165461,0.12172 -0.291764,0.28823 -0.455108,0.41244 -0.08114,0.0624 -0.174989,0.0952 -0.246959,0.15028 -0.08925,0.0681 -0.137944,0.16124 -0.221206,0.24977 -0.264244,0.2812 -0.574353,0.52462 -0.8326,0.81215 -0.03564,0.013 -0.124184,0.0572 -0.142887,0.12488 -0.06315,0.0144 -0.09808,0.0558 -0.156641,0.0744 z m 2.21169,-1.66167 c 0.0081,0.0459 -0.02681,0.049 -0.06527,0.0501 5.64e-4,-0.0172 -0.0064,-0.0271 -0.0127,-0.0374 0.02012,-0.0149 0.05045,-0.0402 0.07797,-0.0127 z m -1.209742,1.01253 c 0.03281,-0.0245 0.07162,-0.0293 0.09138,0.0124 -0.03669,-0.0102 -0.03386,0.0175 -0.06526,0.0124 -0.0029,-0.01 -2.82e-4,-0.0245 -0.01304,-0.0245 0,0.007 -0.01061,0.0141 -0.01304,0 z"
       id="path5915" />
    <path
       id="path5917"
       d="m 45.719962,95.962407 c -0.02964,0.08362 -0.12312,0.107273 -0.182398,0.162306 -0.05715,0.05326 -0.102305,0.119945 -0.156289,0.174978 -0.13618,0.139361 -0.352444,0.270595 -0.480864,0.424773 -0.09208,0.110066 -0.160522,0.245194 -0.312578,0.312589 -0.07938,0.207433 -0.30517,0.297039 -0.481217,0.437106 -0.154878,0.123839 -0.307639,0.250472 -0.455109,0.387378 -0.05292,-0.04482 -0.166167,-0.03246 -0.156289,-0.137245 -0.09773,-0.04798 -0.213797,-0.07761 -0.246959,-0.187339 0.208856,-0.203567 0.526376,-0.302006 0.715121,-0.524961 0.215561,-0.06528 0.381728,-0.242373 0.546483,-0.387379 0.123134,-0.107611 0.294234,-0.185561 0.429709,-0.287161 0.142884,-0.107611 0.248723,-0.220161 0.351034,-0.349645 -0.168989,-0.2921 -0.501326,-0.402167 -0.754634,-0.611745 -0.15382,-0.127705 -0.329162,-0.330228 -0.559184,-0.400417 -0.184867,-0.217678 -0.490389,-0.32035 -0.702773,-0.511923 0.02083,-0.155222 0.253659,-0.106877 0.260364,-0.274828 0.08503,0.02314 0.07832,-0.04092 0.130184,-0.05043 0.165461,0.121694 0.291761,0.288234 0.455106,0.412412 0.08114,0.06243 0.174989,0.09525 0.246961,0.150283 0.08925,0.0681 0.137945,0.161233 0.221203,0.249795 0.264247,0.281178 0.574356,0.524595 0.832603,0.812123 0.03563,0.01298 0.124184,0.05715 0.142884,0.124911 0.06315,0.01439 0.09808,0.05574 0.156642,0.07442 z m -2.211691,-1.661668 c -0.0081,0.04586 0.02681,0.04905 0.06527,0.05009 -5.65e-4,-0.01721 0.0064,-0.02709 0.0127,-0.03739 -0.02012,-0.01496 -0.05045,-0.04022 -0.07797,-0.0127 z m 1.209745,1.012529 c -0.03281,-0.02484 -0.07162,-0.02929 -0.09138,0.01242 0.03669,-0.01016 0.03386,0.0175 0.06527,0.01242 0.0029,-0.0096 2.83e-4,-0.02455 0.01304,-0.02455 0,0.0068 0.01061,0.01411 0.01304,0 z"
       inkscape:connector-curvature="0"
       style="clip-rule:evenodd;display:inline;fill:#cccccc;fill-rule:evenodd;stroke-width:0.282222;fill-opacity:1" />
    <path
       inkscape:export-ydpi="90"
       inkscape:export-xdpi="90"
       inkscape:export-filename="/Users/mars/devel/RebelTechnology/ClockDelay/drawings/g240.png"
       style="display:inline;fill:none;stroke:#cccccc;stroke-width:0.564444;stroke-linecap:round"
       inkscape:connector-curvature="0"
       id="path5929"
       d="m 14.904696,98.477501 7.878626,7.770909"
       sodipodi:nodetypes="cc" />
    <polyline
       inkscape:export-ydpi="90"
       inkscape:export-xdpi="90"
       inkscape:export-filename="/Users/mars/devel/RebelTechnology/ClockDelay/drawings/g240.png"
       transform="matrix(-0.1371129,0.24667679,-0.24667679,-0.1371129,302.9197,-29.240265)"
       id="polyline5931"
       points="899.681,642.148 890.434,656.964 899.845,659.61 "
       style="display:inline;fill:#cccccc" />
    <path
       sodipodi:nodetypes="cc"
       d="M 35.600977,98.477501 27.72235,106.24841"
       id="path5933"
       inkscape:connector-curvature="0"
       style="display:inline;fill:none;stroke:#cccccc;stroke-width:0.564444;stroke-linecap:round"
       inkscape:export-filename="/Users/mars/devel/RebelTechnology/ClockDelay/drawings/g240.png"
       inkscape:export-xdpi="90"
       inkscape:export-ydpi="90" />
    <polyline
       points="899.681,642.148 890.434,656.964 899.845,659.61 "
       id="polyline5935"
       transform="matrix(0.13711292,0.24667678,0.24667678,-0.13711292,-252.41402,-29.240252)"
       inkscape:export-filename="/Users/mars/devel/RebelTechnology/ClockDelay/drawings/g240.png"
       inkscape:export-xdpi="90"
       inkscape:export-ydpi="90"
       style="display:inline;fill:#cccccc" />
    <path
       style="clip-rule:evenodd;display:inline;fill:#cccccc;fill-rule:evenodd;stroke-width:0.282222;fill-opacity:1"
       inkscape:connector-curvature="0"
       d="m 25.287848,115.41335 c -0.08362,-0.0296 -0.107272,-0.12312 -0.162306,-0.1824 -0.05326,-0.0572 -0.119944,-0.10231 -0.174977,-0.15629 -0.139362,-0.13618 -0.270595,-0.35244 -0.424773,-0.48086 -0.110067,-0.0921 -0.245195,-0.16053 -0.312589,-0.31258 -0.207434,-0.0794 -0.297039,-0.30517 -0.437106,-0.48122 -0.123839,-0.15488 -0.250472,-0.30764 -0.387378,-0.45511 0.04482,-0.0529 0.03246,-0.16616 0.137244,-0.15629 0.04798,-0.0977 0.07761,-0.21379 0.187339,-0.24696 0.203567,0.20886 0.302006,0.52638 0.524962,0.71512 0.06528,0.21557 0.242372,0.38173 0.387378,0.54649 0.107612,0.12313 0.185561,0.29423 0.287161,0.42971 0.107612,0.14288 0.220162,0.24872 0.349645,0.35103 0.2921,-0.16899 0.402167,-0.50132 0.611745,-0.75463 0.127706,-0.15382 0.330229,-0.32916 0.400417,-0.55919 0.217678,-0.18486 0.320351,-0.49039 0.511923,-0.70277 0.155222,0.0208 0.106878,0.25366 0.274828,0.26036 -0.02314,0.085 0.04092,0.0783 0.05043,0.13019 -0.121694,0.16546 -0.288233,0.29176 -0.412411,0.4551 -0.06243,0.0811 -0.09525,0.17499 -0.150283,0.24696 -0.0681,0.0893 -0.161234,0.13795 -0.249795,0.22121 -0.281178,0.26425 -0.524595,0.57435 -0.812123,0.8326 -0.01298,0.0356 -0.05715,0.12418 -0.124912,0.14288 -0.01439,0.0632 -0.05574,0.0981 -0.07442,0.15665 z m 1.661668,-2.21169 c -0.04586,-0.008 -0.04905,0.0268 -0.05009,0.0653 0.01722,-5.6e-4 0.02709,0.006 0.03739,0.0127 0.01496,-0.0201 0.04022,-0.0504 0.0127,-0.078 z m -1.012528,1.20974 c 0.02483,-0.0328 0.02929,-0.0716 -0.01242,-0.0914 0.01016,0.0367 -0.0175,0.0339 -0.01242,0.0653 0.0096,0.003 0.02455,2.8e-4 0.02455,0.013 -0.0068,0 -0.01411,0.0106 0,0.013 z"
       id="path16322" />
  </g>
  <g
     inkscape:groupmode="layer"
     id="layer2"
     inkscape:label="components"
     style="display:none">
    <circle
       style="display:inline;fill:#ff00ff;fill-opacity:1;stroke-width:0.264583"
       id="path2680-41"
       cx="25.225014"
       cy="57.780437"
       r="1.701031" />
    <circle
       style="display:inline;fill:#ff00ff;fill-opacity:1;stroke-width:0.264583"
       id="path2680-41-2"
       cx="37.975002"
       cy="70.624992"
       r="1.701031" />
    <circle
       style="display:inline;fill:#ff00ff;fill-opacity:1;stroke-width:0.264583"
       id="path2680-6"
       cx="12.525013"
       cy="70.480438"
       r="1.701031" />
    <circle
       style="display:inline;fill:#ff0000;stroke-width:0.264583"
       id="path2680"
       cx="12.532845"
       cy="26.111921"
       r="1.701031"
       inkscape:label="div" />
    <circle
       style="display:inline;fill:#ff0000;stroke-width:0.264583"
       id="path2680-5"
       cx="37.932854"
       cy="26.111921"
       r="1.701031"
       inkscape:label="plus" />
    <circle
       style="display:inline;fill:#ff0000;stroke-width:0.264583"
       id="path2680-8"
       cx="37.932854"
       cy="45.161922"
       r="1.701031"
       inkscape:label="plus_cv" />
    <circle
       style="display:inline;fill:#ff0000;stroke-width:0.264583"
       id="path2680-1"
       cx="12.532845"
       cy="45.161922"
       r="1.701031"
       inkscape:label="div_cv" />
    <circle
       style="display:inline;fill:#ff0000;stroke-width:0.264583"
       id="path2680-4"
       cx="25.225014"
       cy="70.480438"
       r="1.701031" />
    <circle
       style="display:inline;fill:#00ff00;fill-opacity:1;stroke-width:0.264583"
       id="path2680-7"
       cx="12.525013"
       cy="83.180435"
       r="1.701031"
       inkscape:label="div_cv" />
    <circle
       style="display:inline;fill:#0000ff;fill-opacity:1;stroke-width:0.264583"
       id="path2680-13"
       cx="12.525013"
       cy="95.880394"
       r="1.701031" />
    <circle
       style="display:inline;fill:#00ff00;fill-opacity:1;stroke-width:0.264583"
       id="path2680-84"
       cx="25.225014"
       cy="95.880394"
       r="1.701031" />
    <circle
       style="display:inline;fill:#0000ff;fill-opacity:1;stroke-width:0.264583"
       id="path2680-80"
       cx="37.925014"
       cy="95.880394"
       r="1.701031" />
    <circle
       style="display:inline;fill:#00ff00;fill-opacity:1;stroke-width:0.264583"
       id="path2680-46"
       cx="37.925014"
       cy="83.180435"
       r="1.701031"
       inkscape:label="plus_cv" />
    <circle
       style="display:inline;fill:#00ff00;fill-opacity:1;stroke-width:0.264583"
       id="path2680-0"
       cx="37.925014"
       cy="108.5804"
       r="1.701031" />
    <circle
       style="display:inline;fill:#0000ff;fill-opacity:1;stroke-width:0.264583"
       id="path2680-3"
       cx="25.225014"
       cy="108.5804"
       r="1.701031" />
    <circle
       style="display:inline;fill:#00ff00;fill-opacity:1;stroke-width:0.264583"
       id="path2680-2"
       cx="12.525013"
       cy="108.5804"
       r="1.701031" />
  </g>
</svg>
